<svg id="a249248b-596f-48d9-b3cc-f8c41907510d" data-name="Layer 3" xmlns="http://www.w3.org/2000/svg" viewBox="0 0 248.74 290.09"><title>documentIcon</title><path d="M545.91,554.87H574V380.75a35.9,35.9,0,0,1,35.86-35.85h96.58v-10a24.25,24.25,0,0,0-24.22-24.23H545.91a24.26,24.26,0,0,0-24.23,24.23V530.64A24.26,24.26,0,0,0,545.91,554.87Z" transform="translate(-521.68 -310.65)"/><path d="M746.19,356.53H609.87a24.26,24.26,0,0,0-24.23,24.22V576.52a24.25,24.25,0,0,0,24.23,24.22H746.19a24.25,24.25,0,0,0,24.23-24.22V380.75A24.26,24.26,0,0,0,746.19,356.53ZM742,561.33H614.07a5.82,5.82,0,1,1,0-11.63H742a5.82,5.82,0,0,1,0,11.63Zm0-32.3H614.07a5.82,5.82,0,1,1,0-11.63H742A5.82,5.82,0,0,1,742,529Zm0-32.31H614.07a5.82,5.82,0,1,1,0-11.63H742a5.82,5.82,0,0,1,0,11.63Zm0-32.3H614.07a5.82,5.82,0,1,1,0-11.63H742a5.82,5.82,0,0,1,0,11.63Zm0-32.3H614.07a5.82,5.82,0,1,1,0-11.63H742a5.82,5.82,0,0,1,0,11.63Zm0-32.31H632.8a5.82,5.82,0,0,1,0-11.63H742a5.82,5.82,0,0,1,0,11.63Z" transform="translate(-521.68 -310.65)"/></svg>