<svg id="fd1bcac7-7e07-49f7-a895-72c4d7016fe6" data-name="Layer 1" xmlns="http://www.w3.org/2000/svg" viewBox="0 0 418 250.99"><defs><style>.f1979dce-f72c-4cb1-9cb4-a51b90c1cb78{fill:#2a4051;}</style></defs><title>emailIcon</title><path class="f1979dce-f72c-4cb1-9cb4-a51b90c1cb78" d="M709,316V484a41.18,41.18,0,0,1-5.37,20.39L557,395.85,699.88,290.07A41.28,41.28,0,0,1,709,316Z" transform="translate(-291 -274.5)"/><path class="f1979dce-f72c-4cb1-9cb4-a51b90c1cb78" d="M689.07,519.44a41,41,0,0,1-21.56,6.06h-335a41,41,0,0,1-21.56-6.06L460.41,408.76l16.75,12.4a40.29,40.29,0,0,0,45.68,0l16.75-12.4Z" transform="translate(-291 -274.5)"/><path class="f1979dce-f72c-4cb1-9cb4-a51b90c1cb78" d="M443,395.85,296.37,504.41A41.18,41.18,0,0,1,291,484V316a41.28,41.28,0,0,1,9.12-25.91Z" transform="translate(-291 -274.5)"/><path class="f1979dce-f72c-4cb1-9cb4-a51b90c1cb78" d="M682.33,277.24,539.57,382.94l-17.42,12.91-11.65,8.63c-5.51,4.07-15.49,4.07-21,0l-11.65-8.63-17.42-12.91L317.66,277.24a41,41,0,0,1,14.83-2.74h335A41,41,0,0,1,682.33,277.24Z" transform="translate(-291 -274.5)"/></svg>