<svg id="ef9cf58f-5b6b-4ddf-9baf-0a99b7b7f6de" data-name="a4d04ae1-6d9e-4b89-9f24-170bfe997f6e" xmlns="http://www.w3.org/2000/svg" viewBox="0 0 215.1 196.5"><defs><style>.f518bd16-ee0f-4406-adda-cc67e6d04dd3{fill:#051d28;}</style></defs><title>homeIcon</title><path class="f518bd16-ee0f-4406-adda-cc67e6d04dd3" d="M211.2,96.5H179.8a3.9,3.9,0,0,1,0-7.8h31.4a3.9,3.9,0,0,1,3.9,3.9A3.84,3.84,0,0,1,211.2,96.5Z" transform="translate(0 0)"/><path class="f518bd16-ee0f-4406-adda-cc67e6d04dd3" d="M54.4,196.5h-14a3.9,3.9,0,0,1-3.9-3.9V96.5H3.9A3.9,3.9,0,0,1,0,92.6a3.7,3.7,0,0,1,1.4-2.9L105.1.9a3.92,3.92,0,0,1,5,0L213.8,89.7a3.92,3.92,0,0,1,0,5.5,3.81,3.81,0,0,1-5,.4L107.6,9,14.3,88.8H40.4a3.9,3.9,0,0,1,3.9,3.9v96.1H54.4c6,0,7.7,1.7,7.7,3.9S63.6,196.1,54.4,196.5Z" transform="translate(0 0)"/><path class="f518bd16-ee0f-4406-adda-cc67e6d04dd3" d="M176,124.1V92.7a3.9,3.9,0,0,1,7.8,0h0v31.4a3.9,3.9,0,0,1-7.8,0Z" transform="translate(0 0)"/><path class="f518bd16-ee0f-4406-adda-cc67e6d04dd3" d="M175.3,196.5H106.7c-4.6,0-7.8-1.7-7.8-3.9s3.8-3.9,8.4-3.9h68c4.6,0,6.1,1.7,6.1,3.9S179.9,196.5,175.3,196.5Z" transform="translate(0 0)"/><path class="f518bd16-ee0f-4406-adda-cc67e6d04dd3" d="M64.1,119v68.9c0,7.4-1.7,8.5-3.9,8.5s-3.9-3.8-3.9-8.5V119c0-4.7,1.6-7.9,3.9-8.6C63.1,109.5,64.1,114.3,64.1,119Z" transform="translate(0 0)"/><path class="f518bd16-ee0f-4406-adda-cc67e6d04dd3" d="M98.4,186.9v-68c0-4.6,1.7-8.4,3.9-8.4s3.9.4,3.9,8.4v68c0,4.6-1.7,8.4-3.9,8.4S99,196.6,98.4,186.9Z" transform="translate(0 0)"/><path class="f518bd16-ee0f-4406-adda-cc67e6d04dd3" d="M101.6,117.9H62.7c-2.6,0-5.3-1.7-5.3-3.9s2.6-3.9,5.3-3.9h38.9c2.7,0,3.8,1.1,3.8,3.2S104.2,117.9,101.6,117.9Z" transform="translate(0 0)"/></svg>