<?xml version="1.0" encoding="utf-8"?>
<!-- Generator: Adobe Illustrator 24.0.1, SVG Export Plug-In . SVG Version: 6.00 Build 0)  -->
<svg version="1.1" id="Layer_1" xmlns="http://www.w3.org/2000/svg" xmlns:xlink="http://www.w3.org/1999/xlink" x="0px" y="0px"
	 viewBox="0 0 114 114" style="enable-background:new 0 0 114 114;" xml:space="preserve">
<style type="text/css">
	.st0fdsf{fill:#9475F4;stroke:#9475F4;stroke-miterlimit:10;}
	.st1asfsf{fill:#F7F8FA;}
</style>
<title>loginIcon</title>
<circle class="st0fdsf" cx="57" cy="57" r="56.5"/>
<path class="st1asfsf" d="M63.9,50.4c-0.7-0.3-1.5,0.1-1.7,1c-0.1,0.2-0.1,0.5-0.1,0.7v2.1c0.1,3.7-2,6.8-4.8,7.4
	c-9.1,1.6-18.2-2.8-24.1-11.7c-6.3-9.2-11.1-36-11.1-36l0,0c-1.6,55.4,24.8,64.4,35.5,65.8c2.7,0.5,4.6,3.4,4.5,6.8v2
	c-0.1,0.9,0.5,1.7,1.3,1.8c0.1,0,0.3,0,0.4-0.1l40.7-16.5L63.9,50.4z"/>
</svg>
