<svg id="ac6d8678-4f0f-4d93-af34-2e4f7f7b4159" data-name="Layer 2" xmlns="http://www.w3.org/2000/svg" viewBox="0 0 225.24 314.84"><defs><style>.b901fc33-ab86-46bf-a03f-365eb33aec3f{fill:#666;}</style></defs><title>passwordIcon</title><path class="b901fc33-ab86-46bf-a03f-365eb33aec3f" d="M986.53,689.48H958.79V649a61.07,61.07,0,1,0-122.14,0v40.44H808.91V649a88.81,88.81,0,1,1,177.62,0Z" transform="translate(-785.12 -560.23)"/><path class="b901fc33-ab86-46bf-a03f-365eb33aec3f" d="M986.62,682.32H808.87a23.74,23.74,0,0,0-23.75,23.74V851.33a23.74,23.74,0,0,0,23.75,23.74H986.62a23.74,23.74,0,0,0,23.74-23.74V706.06A23.74,23.74,0,0,0,986.62,682.32ZM923.31,829.49a2.64,2.64,0,0,0-.6.08c-1.54.29-6.47-.05-20.64-.05h-2c-.1,0-1.34,0-1.46,0-2.37.08-1.33,0-2.61,0-1.56,0-2.32,0-3.74,0-.21,0-3.82.1-4,.08H872.7c-1.4.11-.75-.24,2.92-12.25.49-1.61,1.27-4.27,1.72-5.66.94-2.87,1.55-5,2.57-8.39.13-.43,1.55-5.1,1.92-6.3s1-3.27,1.37-4.5c.47-1.53.14-.5.6-2a13,13,0,0,1,.43-1.38l1.65-5.42c1.48-4.85,1.48-4.85,2.8-9a36.51,36.51,0,0,1-5.35-3c-12.17-7.62-12.58-27.77-1.8-37.28,5.33-4.71,12.3-7.3,19.21-6.07l2.49.44a18.14,18.14,0,0,1,4.69,1.61c.51.32.85.37,1.33.68l.23.12.76.45.36.21a1.67,1.67,0,0,1,.24.16l.88.59.36.27.15.11.8.62c4.21,3.85,6.77,6.7,8.31,13.52a26.12,26.12,0,0,1,.49,7.09c0,.13-.24,1.82-.32,2.47a18.77,18.77,0,0,1-1.24,4.38,27.46,27.46,0,0,1-1.88,3.8c-2.5,3.65-4.52,6.68-11.58,9.84.55,1.8.79,2.61,1.8,5.9,1.61,5.29,3.12,10.23,4.73,15.5l2.69,8.82c.84,2.77,1.41,4.62,2.6,8.5.27.91.52,1.72.7,2.3.49,1.62.95,3.13,1.62,5.3,1.49,4.89,1,3.27,2.27,7.46,0,.11.25.87.27,1C923.34,829.37,923.71,829.47,923.31,829.49Z" transform="translate(-785.12 -560.23)"/></svg>