<svg id="fe42e828-7ac9-439d-b403-dddc78d63431" data-name="Layer 1" xmlns="http://www.w3.org/2000/svg" viewBox="0 0 367.72 368.64"><defs><style>.a989d3bf-dc30-4815-9588-c8b282f41f19{fill-rule:evenodd;}</style></defs><title>roleIcon</title><path class="a989d3bf-dc30-4815-9588-c8b282f41f19" d="M295.44,277.28c73.94-4,134.68,50.27,134.68,111.34v42.44H62.4V388.62c0-61.08,60.73-115.29,134.68-111.34C211.05,288.46,228,295,246.26,295S281.47,288.46,295.44,277.28Z" transform="translate(-62.4 -62.42)"/><path class="a989d3bf-dc30-4815-9588-c8b282f41f19" d="M246.26,62.42c51.26,0,92.82,31.26,92.82,91.41s-41.56,118.32-92.82,118.32S153.44,214,153.44,153.83,195,62.42,246.26,62.42ZM170.57,166.5A121.87,121.87,0,0,0,189,218.81c10.26,15.9,25.56,30.41,44.31,35.24a51.73,51.73,0,0,0,26,0c18.75-4.83,34.05-19.34,44.31-35.24,10.12-15.69,19.78-34.19,18.45-52.95-5.38-75.58-45,4.08-98.8-49.68C200.18,169.94,166.93,133.11,170.57,166.5Z" transform="translate(-62.4 -62.42)"/></svg>