<svg id="a8c5790d-dfbc-4cc5-b1b4-633634627344" data-name="Layer 2" xmlns="http://www.w3.org/2000/svg" viewBox="0 0 120.94 120.94"><defs><style>.e8cf7a02-8f57-4a17-89dc-00c725e7b347{fill:#f7f8fa;}</style></defs><title>settingsIconDesktop</title><path class="e8cf7a02-8f57-4a17-89dc-00c725e7b347" d="M412.83,356H397.17a2.5,2.5,0,0,1-2.46-2.06l-2-10.88a48.43,48.43,0,0,1-12.69-5.26L371,344.08a2.49,2.49,0,0,1-3.19-.28L356.7,332.72a2.5,2.5,0,0,1-.28-3.19l6.32-9.1a48.41,48.41,0,0,1-5.25-12.67l-10.9-2a2.49,2.49,0,0,1-2.06-2.46V287.67a2.49,2.49,0,0,1,2.06-2.46l10.92-2a48.53,48.53,0,0,1,5.24-12.64l-6.33-9.13a2.5,2.5,0,0,1,.28-3.19l11.08-11.08a2.5,2.5,0,0,1,3.19-.28l9.14,6.34A48.3,48.3,0,0,1,392.74,248l2-10.94a2.5,2.5,0,0,1,2.46-2.06h15.66a2.5,2.5,0,0,1,2.46,2.06l2,10.94a48.3,48.3,0,0,1,12.63,5.23l9.14-6.34a2.5,2.5,0,0,1,3.19.28l11.08,11.08a2.5,2.5,0,0,1,.28,3.19l-6.33,9.13a48.25,48.25,0,0,1,5.24,12.64l10.92,2a2.49,2.49,0,0,1,2.06,2.46v15.66a2.49,2.49,0,0,1-2.06,2.46l-10.9,2a48.41,48.41,0,0,1-5.25,12.67l6.32,9.1a2.5,2.5,0,0,1-.28,3.19L442.22,343.8a2.5,2.5,0,0,1-3.19.28l-9.09-6.31A48.43,48.43,0,0,1,417.25,343l-2,10.88A2.5,2.5,0,0,1,412.83,356Zm-13.57-5h11.48l1.88-10.43a2.52,2.52,0,0,1,1.92-2,43.74,43.74,0,0,0,14.14-5.86,2.49,2.49,0,0,1,2.77.05l8.71,6.06,8.12-8.13-6-8.72a2.49,2.49,0,0,1-.06-2.77A43.84,43.84,0,0,0,448,305.05a2.48,2.48,0,0,1,2-1.92l10.46-1.89V289.76L450,287.87a2.5,2.5,0,0,1-2-1.92,43.68,43.68,0,0,0-5.85-14.09,2.49,2.49,0,0,1,.06-2.77l6.07-8.75-8.12-8.13-8.75,6.09a2.49,2.49,0,0,1-2.77.05,43.86,43.86,0,0,0-14.09-5.83,2.52,2.52,0,0,1-1.92-2L410.74,240H399.26l-1.89,10.49a2.52,2.52,0,0,1-1.92,2,43.86,43.86,0,0,0-14.09,5.83,2.49,2.49,0,0,1-2.77-.05l-8.75-6.09-8.13,8.13,6.08,8.75a2.49,2.49,0,0,1,.06,2.77A43.68,43.68,0,0,0,362,286a2.5,2.5,0,0,1-2,1.92l-10.47,1.89v11.48L360,303.13a2.48,2.48,0,0,1,2,1.92,43.84,43.84,0,0,0,5.85,14.12,2.49,2.49,0,0,1-.06,2.77l-6.06,8.72,8.13,8.13,8.71-6.06a2.49,2.49,0,0,1,2.77-.05,43.74,43.74,0,0,0,14.14,5.86,2.52,2.52,0,0,1,1.92,2Z" transform="translate(-344.53 -235.03)"/><path class="e8cf7a02-8f57-4a17-89dc-00c725e7b347" d="M405,318.86a23.33,23.33,0,1,1,23.33-23.33A23.36,23.36,0,0,1,405,318.86Zm0-41.66a18.33,18.33,0,1,0,18.33,18.33A18.35,18.35,0,0,0,405,277.2Z" transform="translate(-344.53 -235.03)"/><path class="e8cf7a02-8f57-4a17-89dc-00c725e7b347" d="M405,289.7a5.83,5.83,0,1,0,5.83,5.83A5.83,5.83,0,0,0,405,289.7Z" transform="translate(-344.53 -235.03)"/></svg>