<svg id="bbc713d2-45bb-4b73-91f3-d058336c9ce9" data-name="Layer 2" xmlns="http://www.w3.org/2000/svg" viewBox="0 0 121 121"><defs><style>.b3d641f7-6588-468a-877d-b6fa0d3d8a50{fill:#f7f8fa;}</style></defs><title>usersIcon</title><path class="b3d641f7-6588-468a-877d-b6fa0d3d8a50" d="M466.8,366.14a60.5,60.5,0,1,1,60.5-60.5A60.57,60.57,0,0,1,466.8,366.14Zm0-116a55.5,55.5,0,1,0,55.5,55.5A55.57,55.57,0,0,0,466.8,250.14Z" transform="translate(-406.3 -245.14)"/><path class="b3d641f7-6588-468a-877d-b6fa0d3d8a50" d="M444.56,352.7l-2.34-4.42,10.4-5.52V337c-.86-.88-1.71-1.82-2.51-2.73a29.71,29.71,0,0,1-5.74-10.32c-1.51-.29-3.3-1.25-5-3.71-3-4.46-4.6-12.87-2-16.62.17-.24.34-.46.52-.67-1.35-3.94-3.61-13.65,3.59-20.71a39.5,39.5,0,0,0,4.84-6c3.74-5.33,7.28-10.37,20.44-10.37s16.7,5,20.44,10.37a39.5,39.5,0,0,0,4.84,6c7.2,7.06,4.94,16.77,3.59,20.71.18.21.35.43.52.67,2.62,3.75,1.05,12.16-2,16.62-1.68,2.46-3.47,3.42-5,3.71a29.82,29.82,0,0,1-5.73,10.32c-.81.91-1.66,1.85-2.53,2.73v5.81l9.89,5.24-2.35,4.42-11.21-5.95a2.53,2.53,0,0,1-1.33-2.21V335.9a2.52,2.52,0,0,1,.79-1.82c.89-.84,1.81-1.84,3-3.18a25.2,25.2,0,0,0,5.14-10,2.49,2.49,0,0,1,1.11-1.59,2.51,2.51,0,0,1,1.91-.31c.83.2,1.78-1.05,2.15-1.6,2.41-3.55,3-9.5,2-10.94a2.41,2.41,0,0,0-.7-.72,2.51,2.51,0,0,1-1.09-2.81,2.58,2.58,0,0,1,.23-.54c.61-1.43,4.17-10.61-1.95-16.61a44.07,44.07,0,0,1-5.43-6.68c-3.49-5-5.79-8.25-16.35-8.25s-12.86,3.28-16.35,8.24a43.62,43.62,0,0,1-5.43,6.69c-6.18,6.06-2.41,15.52-1.92,16.67a2.53,2.53,0,0,1,.19.48,2.49,2.49,0,0,1-1.08,2.81,2.41,2.41,0,0,0-.7.72c-1,1.44-.39,7.39,2,10.94.37.55,1.32,1.79,2.15,1.6a2.49,2.49,0,0,1,3,1.9,25.54,25.54,0,0,0,5.14,10c1.19,1.34,2.1,2.33,3,3.18a2.51,2.51,0,0,1,.78,1.82v8.36a2.52,2.52,0,0,1-1.32,2.21Z" transform="translate(-406.3 -245.14)"/></svg>