<svg xmlns="http://www.w3.org/2000/svg" viewBox="0 0 171.21 167.24"><defs><style>.a3d0c48a-cde7-47f7-8773-2ffb23b18bd3{isolation:isolate;}.b7f531fb-ac24-4b28-be0a-628b54e76962{fill:#15b898;}.f83ce647-0b11-4fc0-83d5-02b45673ad31{fill:#e7eaee;}.bcf51902-2a1e-415c-bb4e-e0b27e1d98fd{fill:#231f20;opacity:0.18;mix-blend-mode:multiply;}.a8722f3b-06c1-4e46-b5db-814eee3592bb{fill:#4dc1e8;}.e7c5bde2-c317-4ec5-a020-f3fe044fb2c6{fill:#ec5462;}.b5983ab1-42a9-4aaa-95f5-4e1e39923068{fill:#646c78;}.a70af7ea-ac7d-47d5-a5aa-06cdd034f77a{fill:#ee6f6a;}</style></defs><title>virtualArchiveLogo</title><g class="a3d0c48a-cde7-47f7-8773-2ffb23b18bd3"><g id="a64fa2f1-83e2-4f91-8ab8-37126031d7cc" data-name="Layer 2"><rect class="b7f531fb-ac24-4b28-be0a-628b54e76962" y="2.69" width="42.95" height="161.85"/><rect class="f83ce647-0b11-4fc0-83d5-02b45673ad31" x="6.29" y="8.98" width="30.38" height="120.47"/><rect class="bcf51902-2a1e-415c-bb4e-e0b27e1d98fd" x="32.66" y="8.98" width="4" height="120.47"/><circle class="f83ce647-0b11-4fc0-83d5-02b45673ad31" cx="674.47" cy="618.65" r="12.05" transform="translate(-892.9 186.14) rotate(-45)"/><circle class="a8722f3b-06c1-4e46-b5db-814eee3592bb" cx="674.47" cy="618.65" r="10.31" transform="translate(-892.9 186.14) rotate(-45)"/><rect class="e7c5bde2-c317-4ec5-a020-f3fe044fb2c6" x="11.92" y="120.36" width="19.11" height="4.89"/><rect class="b5983ab1-42a9-4aaa-95f5-4e1e39923068" x="7.86" y="15.13" width="27.24" height="1.63"/><rect class="b5983ab1-42a9-4aaa-95f5-4e1e39923068" x="7.86" y="24.44" width="27.24" height="1.63"/><rect class="b5983ab1-42a9-4aaa-95f5-4e1e39923068" x="7.86" y="33.75" width="27.24" height="1.63"/><rect class="a70af7ea-ac7d-47d5-a5aa-06cdd034f77a" x="52.33" y="2.69" width="42.95" height="161.85"/><rect class="f83ce647-0b11-4fc0-83d5-02b45673ad31" x="58.62" y="8.98" width="30.38" height="120.47"/><rect class="bcf51902-2a1e-415c-bb4e-e0b27e1d98fd" x="85" y="8.98" width="4" height="120.47"/><circle class="f83ce647-0b11-4fc0-83d5-02b45673ad31" cx="726.81" cy="618.65" r="12.05" transform="translate(-694.59 712.82) rotate(-76.79)"/><circle class="a8722f3b-06c1-4e46-b5db-814eee3592bb" cx="726.81" cy="618.65" r="10.31" transform="translate(-694.69 712.69) rotate(-76.78)"/><rect class="e7c5bde2-c317-4ec5-a020-f3fe044fb2c6" x="64.25" y="120.36" width="19.11" height="4.89"/><rect class="b5983ab1-42a9-4aaa-95f5-4e1e39923068" x="60.19" y="15.13" width="27.24" height="1.63"/><rect class="b5983ab1-42a9-4aaa-95f5-4e1e39923068" x="60.19" y="24.44" width="27.24" height="1.63"/><rect class="b5983ab1-42a9-4aaa-95f5-4e1e39923068" x="60.19" y="33.75" width="27.24" height="1.63"/><rect class="b5983ab1-42a9-4aaa-95f5-4e1e39923068" x="764.98" y="474.67" width="42.95" height="161.85" transform="translate(-750.9 -297.32) rotate(-11.94)"/><rect class="f83ce647-0b11-4fc0-83d5-02b45673ad31" x="768.29" y="481.27" width="30.38" height="120.47" transform="matrix(0.98, -0.21, 0.21, 0.98, -748.05, -298.24)"/><rect class="bcf51902-2a1e-415c-bb4e-e0b27e1d98fd" x="794.38" y="478.54" width="4" height="120.47" transform="translate(-747.2 -295.64) rotate(-11.94)"/><circle class="f83ce647-0b11-4fc0-83d5-02b45673ad31" cx="799.49" cy="617.28" r="12.05" transform="translate(-717.13 669.12) rotate(-68.91)"/><circle class="a8722f3b-06c1-4e46-b5db-814eee3592bb" cx="799.49" cy="617.28" r="10.31" transform="translate(-819 -151.41) rotate(-20.59)"/><rect class="e7c5bde2-c317-4ec5-a020-f3fe044fb2c6" x="785" y="591.49" width="19.11" height="4.89" transform="translate(-758.65 -294.82) rotate(-11.94)"/><rect class="b5983ab1-42a9-4aaa-95f5-4e1e39923068" x="758.84" y="488.57" width="27.24" height="1.63" transform="translate(-737.51 -301.65) rotate(-11.94)"/><rect class="b5983ab1-42a9-4aaa-95f5-4e1e39923068" x="760.77" y="497.68" width="27.24" height="1.63" transform="translate(-739.35 -301.05) rotate(-11.94)"/><rect class="b5983ab1-42a9-4aaa-95f5-4e1e39923068" x="762.69" y="506.8" width="27.24" height="1.63" transform="translate(-741.19 -300.45) rotate(-11.94)"/></g></g></svg>