<svg id="a0ce2042-ae3c-4379-a044-7a14247a0f09" data-name="Layer 2" xmlns="http://www.w3.org/2000/svg" viewBox="0 0 306.72 306.72"><defs><style>.adb99911-f386-418b-a3e3-ee6439a6ab54{fill:#c1c3cb;}.fd4f7788-ef5f-40f3-9c0d-9b211641bfab{fill:#4d91bb;}.a8275114-c705-470f-a133-8a4abcb53885,.ac84939c-7e63-4657-9aa9-4af33610432c,.b0d8630e-fe9f-45c1-b3f0-de0d621a0930,.b485a628-5e27-4251-ad0e-06a63e8c9fa3,.b520afae-f155-4d4b-b4d4-b835775fc12a,.e12ae0ff-fd11-4356-b098-4992504b9edd,.e1743a9c-610a-49b6-8668-ef7cba49b340,.e952eafb-ca28-4bdf-8dfd-cd14db043a46,.ef40f3eb-4e76-4efe-8b8c-8a8fc7118c23,.f09b886e-431f-4926-9b80-20f942d7584f,.fd4f7788-ef5f-40f3-9c0d-9b211641bfab{stroke:#231f20;stroke-linecap:round;stroke-linejoin:round;}.a8275114-c705-470f-a133-8a4abcb53885,.ac84939c-7e63-4657-9aa9-4af33610432c,.b520afae-f155-4d4b-b4d4-b835775fc12a,.e1743a9c-610a-49b6-8668-ef7cba49b340,.e952eafb-ca28-4bdf-8dfd-cd14db043a46,.ef40f3eb-4e76-4efe-8b8c-8a8fc7118c23,.f09b886e-431f-4926-9b80-20f942d7584f,.fd4f7788-ef5f-40f3-9c0d-9b211641bfab{stroke-width:4px;}.ef40f3eb-4e76-4efe-8b8c-8a8fc7118c23{fill:gray;}.b520afae-f155-4d4b-b4d4-b835775fc12a{fill:#4d4d4d;}.f09b886e-431f-4926-9b80-20f942d7584f{fill:#efd3b6;}.ac84939c-7e63-4657-9aa9-4af33610432c,.b0d8630e-fe9f-45c1-b3f0-de0d621a0930,.e12ae0ff-fd11-4356-b098-4992504b9edd{fill:none;}.ad64bcf8-bc3c-43ee-b859-9e410dfc8bfd{fill:#231f20;}.e952eafb-ca28-4bdf-8dfd-cd14db043a46{fill:#87dbec;}.e12ae0ff-fd11-4356-b098-4992504b9edd{stroke-width:4.11px;}.e1743a9c-610a-49b6-8668-ef7cba49b340{fill:#ccc;}.a8275114-c705-470f-a133-8a4abcb53885{fill:#666;}.af635d4e-074a-46a5-8386-e536f239af5a,.b485a628-5e27-4251-ad0e-06a63e8c9fa3{fill:#2175aa;}.b0d8630e-fe9f-45c1-b3f0-de0d621a0930,.b485a628-5e27-4251-ad0e-06a63e8c9fa3{stroke-width:3.29px;}</style></defs><title>avatarIcon</title><g id="ae67f1c0-838f-41e2-a2cf-648b067fe923" data-name="Layer 3"><rect class="adb99911-f386-418b-a3e3-ee6439a6ab54" width="306.72" height="306.72"/></g><path class="fd4f7788-ef5f-40f3-9c0d-9b211641bfab" d="M706.75,449.16c-44,0-76.67,28.67-76.67,28.67,34.67,9.33,28.67,86,76.67,86s42-76.67,76.67-86C783.42,477.83,750.75,449.16,706.75,449.16Z" transform="translate(-559.32 -299.64)"/><polygon class="ef40f3eb-4e76-4efe-8b8c-8a8fc7118c23" points="147.43 169.73 140.54 157.44 147.43 150.54 154.32 157.44 147.43 169.73"/><path class="b520afae-f155-4d4b-b4d4-b835775fc12a" d="M706.75,440a118.63,118.63,0,0,1,14,.87c4.74.58-4.84,9.32-4.84,9.32l-5,4.21-6.21.44Z" transform="translate(-559.32 -299.64)"/><circle class="f09b886e-431f-4926-9b80-20f942d7584f" cx="706.75" cy="388.83" r="44.67" transform="translate(-627.26 313.99) rotate(-45)"/><path class="ac84939c-7e63-4657-9aa9-4af33610432c" d="M721.47,415.86a31.66,31.66,0,0,1-29.44,0" transform="translate(-559.32 -299.64)"/><path class="ef40f3eb-4e76-4efe-8b8c-8a8fc7118c23" d="M706.75,449.16V440s-22.33.92-30.08,4.59v8.93s16.79.41,25.28,4.27a3.43,3.43,0,0,0,4.8-3.16Z" transform="translate(-559.32 -299.64)"/><path class="ef40f3eb-4e76-4efe-8b8c-8a8fc7118c23" d="M717,440.62s12.08.29,19.83,4v8.93s-16.79.41-25.28,4.27a3.43,3.43,0,0,1-4.8-3.16Z" transform="translate(-559.32 -299.64)"/><circle class="ad64bcf8-bc3c-43ee-b859-9e410dfc8bfd" cx="141.03" cy="147.51" r="1.69"/><polygon class="e952eafb-ca28-4bdf-8dfd-cd14db043a46" points="147.43 276.44 135.17 262.23 147.43 169.73 159.69 262.23 147.43 276.44"/><line class="e12ae0ff-fd11-4356-b098-4992504b9edd" x1="103.61" y1="80.83" x2="191.32" y2="80.83"/><polygon class="e1743a9c-610a-49b6-8668-ef7cba49b340" points="138.07 96.6 116.73 93.01 115.65 77.9 142.72 76.89 138.07 96.6"/><polygon class="e1743a9c-610a-49b6-8668-ef7cba49b340" points="155.78 96.6 177.11 93.01 178.19 77.9 151.12 76.89 155.78 96.6"/><path class="a8275114-c705-470f-a133-8a4abcb53885" d="M652.75,356.52c6.33-4,41.17-43.06,74.92-10.86,16.25-1.81,29,10.29,22,30.87C731.92,333,679.75,381.19,652.75,356.52Z" transform="translate(-559.32 -299.64)"/><path class="e12ae0ff-fd11-4356-b098-4992504b9edd" d="M727.67,345.66a42.19,42.19,0,0,1,4.25,5.36" transform="translate(-559.32 -299.64)"/><path class="af635d4e-074a-46a5-8386-e536f239af5a" d="M739.5,509.66V534l4.59,2.34s11.24-25.84,12.49-26.67Z" transform="translate(-559.32 -299.64)"/><path class="ac84939c-7e63-4657-9aa9-4af33610432c" d="M743.91,537.35c6.12-11.47,10.69-24.8,16.32-36" transform="translate(-559.32 -299.64)"/><rect class="b485a628-5e27-4251-ad0e-06a63e8c9fa3" x="171.07" y="201.69" width="33.56" height="8.33"/><polyline class="b0d8630e-fe9f-45c1-b3f0-de0d621a0930" points="174.76 210.02 174.76 232.35 184.77 237.36"/><line class="b0d8630e-fe9f-45c1-b3f0-de0d621a0930" x1="180.18" y1="210.02" x2="180.18" y2="222.35"/></svg>