<svg xmlns="http://www.w3.org/2000/svg" viewBox="0 0 204.81 273.69"><defs><style>.cls-1{isolation:isolate;}.cls-2{fill:#dd6966;}.cls-3{fill:#6d5c49;}.cls-4{fill:#f7e9da;}.cls-5{fill:#e6e6e6;}.cls-6{fill:#f2f2f2;}.cls-7{fill:#4d4d4d;}.cls-8{fill:#a6c8dd;mix-blend-mode:multiply;}</style></defs><title>avatarIcon</title><g class="cls-1"><g id="Layer_2" data-name="Layer 2"><path class="cls-2" d="M627.52,584.67a102.41,102.41,0,1,1,204.81,0C832.33,611.22,627.52,611.22,627.52,584.67Z" transform="translate(-627.52 -330.89)"/><circle class="cls-3" cx="102.41" cy="68.86" r="68.86"/><circle class="cls-4" cx="102.41" cy="81.23" r="62.24"/><path class="cls-2" d="M798.78,399.74a68.86,68.86,0,0,0-137.71,0c0,29.83,24.74,74.62,68.86,74.62C772.16,474.36,798.78,431.7,798.78,399.74Z" transform="translate(-627.52 -330.89)"/><path class="cls-5" d="M708.38,429a10.46,10.46,0,0,0-9.67,14.51c5,11.74,15.72,22.8,31.22,22.8,15,0,26-10.73,31.18-22.67A10.48,10.48,0,0,0,751.5,429Z" transform="translate(-627.52 -330.89)"/><path class="cls-6" d="M698.1,487.31l31.83,94,31.82-94a102.81,102.81,0,0,0-63.65,0Z" transform="translate(-627.52 -330.89)"/><path class="cls-7" d="M52.76,59.66H152a0,0,0,0,1,0,0v0a21.57,21.57,0,0,1-21.57,21.57H74.33A21.57,21.57,0,0,1,52.76,59.66v0A0,0,0,0,1,52.76,59.66Z"/><path class="cls-8" d="M735.91,474.06l1.22-.13,1-.13a62.15,62.15,0,0,0,40.13-22.54,85.12,85.12,0,0,0,14.6-23.69,68.29,68.29,0,0,0,5.81-24.89c0-1,.07-2,.07-2.94a68.67,68.67,0,0,0-20.17-48.69c-.77-.77-1.57-1.53-2.39-2.28a68.93,68.93,0,0,0-13.47-9.57c-1-.53-2-1-3-1.52q-3-1.46-6.18-2.61a68.51,68.51,0,0,0-23.67-4.18V474.36c.94,0,1.88,0,2.81-.08l.69,0C734.27,474.2,735.09,474.14,735.91,474.06Z" transform="translate(-627.52 -330.89)"/><path class="cls-8" d="M761.75,487.31h0q-3.72-1.21-7.56-2.15l-.14,0q-3.75-.9-7.61-1.53l-.31,0c-1.23-.2-2.47-.37-3.72-.52l-.48-.06c-1.16-.13-2.32-.25-3.49-.35l-.36,0c-1.21-.09-2.43-.16-3.65-.22l-.79,0c-1.23,0-2.47-.07-3.71-.07V604.58c51.2,0,102.4-6.64,102.4-19.91A102.44,102.44,0,0,0,761.75,487.31Z" transform="translate(-627.52 -330.89)"/></g></g></svg>