<svg id="a2b8f266-1c2b-467b-8ad7-c6d233b296be" data-name="Layer 2" xmlns="http://www.w3.org/2000/svg" viewBox="0 0 215.12 200.9"><defs><style>.bd525c80-6c17-4922-9a5c-e7207a554334{fill:#fbcb66;}.ad3b7505-f847-4e0f-b070-72a5687ee341{fill:#fff;}</style></defs><title>homeIcon</title><g id="b5131f6e-7268-4b11-8afb-5e2cd4af4927" data-name="Layer 5"><path class="bd525c80-6c17-4922-9a5c-e7207a554334" d="M490.39,603.94c7.87-4.49,5.6-14.06,5.57-21.75l-.08-24.8-.16-50.58c0-5.33-5.86-6.3-10.24-5.83-3.66.38-13.06,3.21-13,8.36l.14,45.62.07,21.82,0,11.91,0,5.95c0,.84.37,3.88.25,4.18l3.53-3.45-.82.46c-3.67,2.1-6.36,7.37-1.77,10,5,2.88,11.94.68,16.49-1.91Z" transform="translate(-432.92 -410.1)"/><path class="bd525c80-6c17-4922-9a5c-e7207a554334" d="M456.72,504.73a32.08,32.08,0,0,0,16.39-4.4c3.52-2.19,3.37-4.74-1.27-4.74a32.08,32.08,0,0,0-16.39,4.4c-3.52,2.19-3.37,4.74,1.27,4.74Z" transform="translate(-432.92 -410.1)"/><path class="bd525c80-6c17-4922-9a5c-e7207a554334" d="M454.55,506.67c5.31,0,12.35-1.57,15.23-6.6,2.67-4.67-2.29-7.86-6.57-7.86-5.31,0-12.35,1.57-15.23,6.6-2.67,4.67,2.29,7.86,6.57,7.86Z" transform="translate(-432.92 -410.1)"/><path class="bd525c80-6c17-4922-9a5c-e7207a554334" d="M457.7,504.65c6.1-1.07,12.43-3.16,16.66-8,2.78-3.14,4.45-7,7.66-9.84,3.75-3.29,8.12-5.46,11.72-9s6.75-7,10.57-10.05c14-11.36,32-19,50.18-15.18,5.17,1.09,12.32-1.19,16.39-4.39,3.86-3,2.66-5.79-1.8-6.73-23.5-4.95-50,2.87-70.2,15.12-9.48,5.76-17.35,12.71-25.17,20.51-3.68,3.67-8.46,5.91-12.25,9.52a38.25,38.25,0,0,0-5.39,6.32c-.49.72-.92,1.49-1.42,2.2-3.21,4.58-2.42.26,6.75-1.34-3.73.65-12.42,2.52-13.37,7.14s7.22,4.11,9.67,3.68Z" transform="translate(-432.92 -410.1)"/><path class="bd525c80-6c17-4922-9a5c-e7207a554334" d="M560.14,434.58c-2.38-.57-4.76-3.53-6.5-5.12-2.33-2.13-4.57-4.36-6.75-6.65-6-6.27-19.67-1.33-22.35,6l-1.66,4.54-.92,2.51q1.62-1.08.36-.3c-1.27,1-4.66,3-6.25,3.32-4.55.85-12.16,2.89-13,8.49-.78,5.23,6.54,6.75,10.3,6.05A65.91,65.91,0,0,0,537.11,444c6.6-4.2,8.19-10.64,10.73-17.58l-22.35,6c5.58,5.85,12.69,14.09,20.79,16.06,5.46,1.33,12.4-.31,16.39-4.39,3.47-3.55,2.52-8.22-2.53-9.45Z" transform="translate(-432.92 -410.1)"/><path class="bd525c80-6c17-4922-9a5c-e7207a554334" d="M494.27,501.92a28.44,28.44,0,0,0-17.36-8.83,16.9,16.9,0,0,0-9.15,1.59c-2.19,1.07-5,3.15-5.93,5.54-2.13,5.36,1.95,9.2,7.1,9.88.45,0,.9.11,1.35.2-1.57-.39-1.8-.43-.7-.11.27.11,2.78,1.21,1.4.48s1,.67,1.21.85.73.55,1.07.84c-.83-.84-.9-.9-.2-.18,4,4.18,10.77,4.42,15.76,1.79,2.33-1.23,4.92-3,5.94-5.55.79-2,1.17-4.75-.49-6.5Z" transform="translate(-432.92 -410.1)"/><path class="bd525c80-6c17-4922-9a5c-e7207a554334" d="M492.83,500.64c-4.88-9.05-.22-20.29,5.34-27.93,2.42-3.32-8.47-2.19-9.23-2-4.46.8-10.76,2.3-13.61,6.22-5.79,7.94-10.76,20.56-5.68,30,3,5.53,25-2.92,23.18-6.21Z" transform="translate(-432.92 -410.1)"/><path class="bd525c80-6c17-4922-9a5c-e7207a554334" d="M496.21,505.9c1.53-6.64.77-13.4,3.08-19.94a44.25,44.25,0,0,1,9.44-15.2c8.8-9.52,20.9-15.08,32.38-20.63,2.82-1.37,7.2-5.29,2.51-7.27s-12,.56-16.29,2.64c-13.84,6.7-27.88,13.79-38.74,24.94a55.54,55.54,0,0,0-11.44,16.94c-3.07,7.3-2.21,14.62-3.93,22.12-1.52,6.58,21.47,3,23-3.6Z" transform="translate(-432.92 -410.1)"/><path class="bd525c80-6c17-4922-9a5c-e7207a554334" d="M506.47,517.58a43.94,43.94,0,0,0,4.65-11.67c.91-3.77-7.4-2.21-9.17-1.86a37,37,0,0,0-8.85,2.73c-1.34.64-4.42,1.79-4.8,3.38a43.94,43.94,0,0,1-4.65,11.67c-2,3.46,8.2,2,9.18,1.86a37.42,37.42,0,0,0,8.84-2.73c1.67-.8,3.84-1.7,4.8-3.38Z" transform="translate(-432.92 -410.1)"/><path class="bd525c80-6c17-4922-9a5c-e7207a554334" d="M510.25,518.42c.36-7.72-.08-16.07,1.9-23.58,1.89-7.15,8.35-11.82,13.43-16.79,10.41-10.17,21.16-19.54,35.2-24.25,3.22-1.08,11.27-3.69,10.15-8.5-1-4.48-10.32-3.19-13-2.28-19.24,6.45-35,16.44-49.49,30.57-6.52,6.35-14.9,12.64-18.38,21.3-3.27,8.15-2.5,18-2.9,26.65-.23,5,6.29,4.93,9.87,4.46,3.25-.43,13-2.9,13.25-7.58Z" transform="translate(-432.92 -410.1)"/><path class="bd525c80-6c17-4922-9a5c-e7207a554334" d="M541,442.94c-24.32,6.08-48.43,19.54-55.22,45.33-1.5,5.68,6.74,7.91,10.72,7.62,5.74-.41,11.26-3.65,12.77-9.38,4.33-16.45,21-23.89,36-27.65,4.58-1.14,10.93-5.55,9.46-11.07s-9.23-6-13.73-4.85Z" transform="translate(-432.92 -410.1)"/><path class="bd525c80-6c17-4922-9a5c-e7207a554334" d="M511,519.51c-4.08-21.68,12.36-38.79,26.38-52.84,3.5-3.51,2.41-7.79-2.43-9.05-5.25-1.37-12.52.52-16.39,4.39-17,17-35.64,37.68-30.74,63.71,1.64,8.71,24.92,3,23.18-6.21Z" transform="translate(-432.92 -410.1)"/></g><g id="ec2a9c04-73d5-4eec-8bcf-441fdd0955e4" data-name="Layer 3"><path class="bd525c80-6c17-4922-9a5c-e7207a554334" d="M572.37,421.25c2.64,5,7.37,5.17,12.54,5.35q3.65.12,7.27.38,2.27.16,4.53.36c.42,0,3.67.62,2.14,0,4.55,1.81,10.29.62,14.37-1.9,2.47-1.53,6.38-6.07,1.78-7.91-3.85-1.53-8.11-1.51-12.21-1.84-3-.24-9.79.26-11.58-.88l2.07,2.18-.63-1.19c-3.63-6.87-23.3-.29-20.28,5.44Z" transform="translate(-432.92 -410.1)"/><path class="bd525c80-6c17-4922-9a5c-e7207a554334" d="M581.36,431.1c-.34,5.73-1.81,12.91.41,18.38,1.83,4.5,7.2,8.66,11.75,10.1s13.45-.79,15.63-5.4c1.47-3.11,1.08-6.85,1.24-10.25.19-4,.42-8,.5-12,.09-4.64-5.23-5.36-8.92-5-3.23.35-11.35,2.76-11.44,7.24-.06,3.39-.24,6.77-.4,10.16l-.22,4.58c0,.92.37,4,.22,4.29l15.62-5.4-.33-.1,3.27,1.76c-2.61-2.46-6.34-3.49-7.21-7.21-1-4.26,0-9.17.24-13.48.53-8.89-19.92-5.15-20.36,2.28Z" transform="translate(-432.92 -410.1)"/><path class="bd525c80-6c17-4922-9a5c-e7207a554334" d="M591.28,460.25a62.9,62.9,0,0,0,3.64,9.07c.67,1.34,2.31,1.6,3.65,1.72a21.56,21.56,0,0,0,7.45-.88,21.22,21.22,0,0,0,6.89-3c.8-.6,2.92-2.05,2.3-3.31a64.72,64.72,0,0,1-3.65-9.08c-.42-1.34-2.57-1.62-3.64-1.71a21.56,21.56,0,0,0-7.45.88,21.27,21.27,0,0,0-6.9,3c-.91.68-2.73,1.92-2.29,3.31Z" transform="translate(-432.92 -410.1)"/><path class="bd525c80-6c17-4922-9a5c-e7207a554334" d="M609,471a3.58,3.58,0,0,0,1.45-2.14.49.49,0,0,0-.09-.57.74.74,0,0,0-.54-.41,4.4,4.4,0,0,0-2.19-.1,7.69,7.69,0,0,0-2.57.84l-.63.4a2,2,0,0,0-.7.85,2.16,2.16,0,0,1-.26.75l.25-.42a2.17,2.17,0,0,1-.36.44l.46-.42-.13.1c-.32.26-.86.75-.72,1.25s.85.67,1.25.71A7.42,7.42,0,0,0,609,471Z" transform="translate(-432.92 -410.1)"/></g><path class="ad3b7505-f847-4e0f-b070-72a5687ee341" d="M644.17,511h-31.4a3.87,3.87,0,0,1,0-7.74h31.4a3.87,3.87,0,0,1,0,7.74Z" transform="translate(-432.92 -410.1)"/><path class="ad3b7505-f847-4e0f-b070-72a5687ee341" d="M612.77,611H473.35a3.87,3.87,0,0,1-3.87-3.87V511H436.79a3.87,3.87,0,0,1-2.52-6.81L538,415.39a3.88,3.88,0,0,1,5,0l103.69,88.83a3.87,3.87,0,0,1-5,5.88L540.48,423.43l-93.22,79.86h26.09a3.87,3.87,0,0,1,3.87,3.87v96.09H612.77a3.88,3.88,0,0,1,0,7.75Z" transform="translate(-432.92 -410.1)"/><path class="ad3b7505-f847-4e0f-b070-72a5687ee341" d="M535.17,611h-42a3.88,3.88,0,0,1-3.87-3.87V528a3.88,3.88,0,0,1,3.87-3.88h42A3.88,3.88,0,0,1,539,528v79.18A3.87,3.87,0,0,1,535.17,611ZM497,603.25H531.3V531.82H497Z" transform="translate(-432.92 -410.1)"/><path class="ad3b7505-f847-4e0f-b070-72a5687ee341" d="M611.8,483.31a3.87,3.87,0,0,1-3.87-3.87V431.85H583.16v19.74a3.87,3.87,0,1,1-7.74,0V428a3.87,3.87,0,0,1,3.87-3.87H611.8a3.87,3.87,0,0,1,3.87,3.87v51.46A3.87,3.87,0,0,1,611.8,483.31Z" transform="translate(-432.92 -410.1)"/><path class="ad3b7505-f847-4e0f-b070-72a5687ee341" d="M617.78,431.85H573.31a3.87,3.87,0,0,1-3.87-3.87V414a3.87,3.87,0,0,1,3.87-3.87h44.47a3.87,3.87,0,0,1,3.88,3.87v14A3.87,3.87,0,0,1,617.78,431.85Zm-40.6-7.74h36.74v-6.27H577.18Z" transform="translate(-432.92 -410.1)"/><path class="ad3b7505-f847-4e0f-b070-72a5687ee341" d="M608.9,538.56v-31.4a3.87,3.87,0,1,1,7.74,0v31.4a3.87,3.87,0,0,1-7.74,0Z" transform="translate(-432.92 -410.1)"/></svg>