<svg id="b625d813-d94e-4031-a934-502c73265b64" data-name="Layer 6" xmlns="http://www.w3.org/2000/svg" viewBox="0 0 215.12 196.53"><defs><style>.b272bb85-e64e-4466-b888-512fee90d0a4{fill:#f8f9fb;}</style></defs><title>homeIconDesktop</title><path class="b272bb85-e64e-4466-b888-512fee90d0a4" d="M510.3,467.6H478.9a3.87,3.87,0,0,1,0-7.74h31.4a3.87,3.87,0,0,1,0,7.74Z" transform="translate(-299.05 -371.03)"/><path class="b272bb85-e64e-4466-b888-512fee90d0a4" d="M353.47,567.57h-14a3.87,3.87,0,0,1-3.87-3.87V467.6H302.92a3.87,3.87,0,0,1-2.52-6.81L404.09,372a3.88,3.88,0,0,1,5,0l103.69,88.83a3.87,3.87,0,0,1-5,5.88L406.61,380l-93.22,79.86h26.09a3.87,3.87,0,0,1,3.87,3.87v96.1h10.12c6,0,7.72,1.73,7.72,3.87S362.63,567.13,353.47,567.57Z" transform="translate(-299.05 -371.03)"/><path class="b272bb85-e64e-4466-b888-512fee90d0a4" d="M475,495.13v-31.4a3.87,3.87,0,0,1,7.74,0v31.4a3.87,3.87,0,0,1-7.74,0Z" transform="translate(-299.05 -371.03)"/><path class="b272bb85-e64e-4466-b888-512fee90d0a4" d="M474.38,567.57H405.81c-4.63,0-7.78-1.73-7.78-3.87s3.75-3.87,8.38-3.87h68c4.62,0,6.06,1.73,6.06,3.87S479,567.57,474.38,567.57Z" transform="translate(-299.05 -371.03)"/><path class="b272bb85-e64e-4466-b888-512fee90d0a4" d="M363.15,490.06v68.87c0,7.39-1.73,8.49-3.87,8.49s-3.87-3.8-3.87-8.49V490.06c0-4.69,1.64-7.87,3.87-8.61C362.15,480.49,363.15,485.37,363.15,490.06Z" transform="translate(-299.05 -371.03)"/><path class="b272bb85-e64e-4466-b888-512fee90d0a4" d="M397.43,558V490c0-4.63,1.73-8.38,3.87-8.38s3.87.39,3.87,8.38v68c0,4.62-1.73,8.38-3.87,8.38S398,567.68,397.43,558Z" transform="translate(-299.05 -371.03)"/><path class="b272bb85-e64e-4466-b888-512fee90d0a4" d="M400.65,489H361.73c-2.65,0-5.28-1.73-5.28-3.87s2.63-3.87,5.28-3.87h38.92c2.65,0,3.78,1.09,3.78,3.23S403.3,489,400.65,489Z" transform="translate(-299.05 -371.03)"/></svg>