<svg id="e9ce4f4f-96f5-4b05-99e9-5e28b9a5f30b" data-name="a613b63e-4a43-4d45-ae2f-813a31187669" xmlns="http://www.w3.org/2000/svg" viewBox="0 0 35.4 31.91"><title>homeIcon</title><path d="M5.5,0h5c3,0,5.4,1.87,5.4,4.29v9c0,2.33-2.4,4.29-5.4,4.29h-5c-3,0-5.4-1.87-5.4-4.29v-9C.1,1.87,2.5,0,5.5,0Z" transform="translate(0 0)"/><path d="M5.1,18.85h5.8c2.8,0,5.1,2.61,5.1,6v1.12c0,3.26-2.3,6-5.1,6H5.1c-2.8,0-5.1-2.61-5.1-6V24.82C0,21.55,2.3,18.85,5.1,18.85Z" transform="translate(0 0)"/><path d="M30,31.91H24.6c-3,0-5.4-1.77-5.4-4V19.06c0-2.24,2.4-4,5.4-4H30c3,0,5.4,1.77,5.4,4v8.87C35.4,30.14,33,31.91,30,31.91Z" transform="translate(0 0)"/><path d="M30.3,12.88h-6c-2.8,0-5.1-2.62-5.1-5.79V5.78C19.2,2.61,21.5,0,24.3,0h6c2.8,0,5.1,2.61,5.1,5.78V7.09C35.4,10.26,33.1,12.88,30.3,12.88Z" transform="translate(0 0)"/></svg>