<?xml version="1.0" encoding="utf-8"?>
<!-- Generator: Adobe Illustrator 24.0.1, SVG Export Plug-In . SVG Version: 6.00 Build 0)  -->
<svg version="1.1" id="a4d04ae1-6d9e-4b89-9f24-170bfe997f6e"
	 xmlns="http://www.w3.org/2000/svg" xmlns:xlink="http://www.w3.org/1999/xlink" x="0px" y="0px" viewBox="0 0 215.1 196.5"
	 style="enable-background:new 0 0 215.1 196.5;" xml:space="preserve">
<style type="text/css">
	.st0{fill:#9475F4;}
	.st1{fill:none;}
	.st2{fill:#051D28;}
</style>
<title>homeIcon</title>
<g id="b1074df2-4b57-452f-aed8-bb26399708b6">
	<path class="st0" d="M57.5,189.5c7.9-4.5,5.6-14.1,5.6-21.8L63,142.9l-0.2-50.6c0-5.3-5.9-6.3-10.2-5.8c-3.7,0.4-13.1,3.2-13,8.4
		l0.1,45.6l0.1,21.8v11.9v6c0,0.8,0.4,3.9,0.3,4.2l3.5-3.5l-0.8,0.5c-3.7,2.1-6.4,7.4-1.8,10C46,194.3,52.9,192.1,57.5,189.5
		L57.5,189.5z"/>
	<path class="st0" d="M23.8,90.3c5.8,0,11.4-1.5,16.4-4.4c3.5-2.2,3.4-4.7-1.3-4.7c-5.8,0-11.4,1.5-16.4,4.4
		C19,87.7,19.2,90.3,23.8,90.3z"/>
	<path class="st0" d="M21.6,92.2c5.3,0,12.4-1.6,15.2-6.6c2.7-4.7-2.3-7.9-6.6-7.9c-5.3,0-12.4,1.6-15.2,6.6
		C12.4,89,17.3,92.2,21.6,92.2z"/>
	<path class="st0" d="M24.8,90.2c6.1-1.1,12.4-3.2,16.7-8c2.8-3.1,4.5-7,7.7-9.8c3.8-3.3,8.1-5.5,11.7-9s6.8-7,10.6-10
		c14-11.4,32-19,50.2-15.2c5.2,1.1,12.3-1.2,16.4-4.4c3.9-3,2.7-5.8-1.8-6.7c-23.5-5-50,2.9-70.2,15.1c-9.5,5.8-17.4,12.7-25.2,20.5
		c-3.7,3.7-8.5,5.9-12.3,9.5c-2,1.9-3.8,4-5.4,6.3c-0.5,0.7-0.9,1.5-1.4,2.2c-3.2,4.6-2.4,0.3,6.8-1.3c-3.7,0.6-12.4,2.5-13.4,7.1
		S22.3,90.6,24.8,90.2L24.8,90.2z"/>
	<path class="st0" d="M127.2,20.1c-2.4-0.6-4.8-3.5-6.5-5.1c-2.3-2.1-4.6-4.4-6.8-6.6c-6-6.3-19.7-1.3-22.3,6L90,18.9L89,21.4
		c1.1-0.7,1.2-0.8,0.4-0.3c-1.3,1-4.7,3-6.3,3.3c-4.5,0.9-12.2,2.9-13,8.5c-0.8,5.2,6.5,6.8,10.3,6c8.5-1.6,16.5-4.8,23.7-9.4
		c6.6-4.2,8.2-10.6,10.7-17.6l-22.3,6c5.6,5.9,12.7,14.1,20.8,16.1c5.5,1.3,12.4-0.3,16.4-4.4C133.2,26.1,132.3,21.4,127.2,20.1
		L127.2,20.1z"/>
	<path class="st0" d="M61.3,87.5c-4.6-4.9-10.7-8-17.4-8.8c-3.1-0.3-6.3,0.2-9.1,1.6c-2.2,1.1-5,3.1-5.9,5.5c-2.1,5.4,2,9.2,7.1,9.9
		c0.5,0,0.9,0.1,1.4,0.2c-1.6-0.4-1.8-0.4-0.7-0.1c0.3,0.1,2.8,1.2,1.4,0.5s1,0.7,1.2,0.9s0.7,0.5,1.1,0.8c-0.8-0.8-0.9-0.9-0.2-0.2
		c4,4.2,10.8,4.4,15.8,1.8c2.3-1.2,4.9-3,5.9-5.5C62.6,92,63,89.2,61.3,87.5L61.3,87.5z"/>
	<path class="st0" d="M59.9,86.2c-4.9-9-0.2-20.3,5.3-27.9c2.4-3.3-8.5-2.2-9.2-2c-4.5,0.8-10.8,2.3-13.6,6.2
		c-5.8,7.9-10.8,20.6-5.7,30C39.7,98,61.7,89.6,59.9,86.2L59.9,86.2z"/>
	<path class="st0" d="M63.3,91.4c1.5-6.6,0.8-13.4,3.1-19.9c2.1-5.7,5.3-10.8,9.4-15.2c8.8-9.5,20.9-15.1,32.4-20.6
		c2.8-1.4,7.2-5.3,2.5-7.3S98.7,29,94.4,31C80.6,37.7,66.5,44.8,55.7,56c-4.8,4.9-8.7,10.6-11.4,16.9C41.2,80.2,42,87.5,40.3,95
		C38.8,101.6,61.8,98,63.3,91.4L63.3,91.4z"/>
	<path class="st0" d="M73.5,103.1c2.1-3.6,3.7-7.6,4.6-11.7c0.9-3.8-7.4-2.2-9.2-1.9c-3.1,0.5-6,1.5-8.9,2.7
		c-1.3,0.6-4.4,1.8-4.8,3.4c-1,4.1-2.5,8-4.6,11.7c-2,3.5,8.2,2,9.2,1.9c3-0.5,6-1.5,8.8-2.7C70.4,105.7,72.6,104.8,73.5,103.1
		L73.5,103.1z"/>
	<path class="st0" d="M77.3,104c0.4-7.7-0.1-16.1,1.9-23.6c1.9-7.1,8.3-11.8,13.4-16.8c10.4-10.2,21.2-19.5,35.2-24.3
		c3.2-1.1,11.3-3.7,10.2-8.5c-1-4.5-10.3-3.2-13-2.3C105.8,35,90,45,75.5,59.1C69,65.5,60.6,71.8,57.1,80.4
		c-3.3,8.1-2.5,18-2.9,26.6c-0.2,5,6.3,4.9,9.9,4.5C67.4,111.1,77.1,108.6,77.3,104L77.3,104z"/>
	<path class="st0" d="M108.1,28.5C83.8,34.6,59.6,48,52.9,73.8c-1.5,5.7,6.7,7.9,10.7,7.6c5.7-0.4,11.3-3.6,12.8-9.4
		c4.3-16.5,21-23.9,36-27.6c4.6-1.1,10.9-5.5,9.5-11.1S112.6,27.3,108.1,28.5L108.1,28.5z"/>
	<path class="st0" d="M78.1,105.1C74,83.4,90.4,66.3,104.5,52.2c3.5-3.5,2.4-7.8-2.4-9c-5.3-1.4-12.5,0.5-16.4,4.4
		c-17,17-35.6,37.7-30.7,63.7C56.5,120,79.8,114.3,78.1,105.1z"/>
</g>
<path class="st1" d="M176,188.1v-68.3c0-4.7,1.7-8.4,3.9-8.4s3.9,3.8,3.9,8.4v68.3c0,4.7-1.7,8.4-3.9,8.4S176,192.8,176,188.1z"/>
<path class="st2" d="M211.2,96.5h-31.4c-2.1,0-3.9-1.7-3.9-3.9c0-2.1,1.7-3.9,3.9-3.9h31.4c2.1,0,3.9,1.7,3.9,3.9
	C215.1,94.8,213.4,96.5,211.2,96.5z"/>
<path class="st2" d="M54.4,196.5h-14c-2.1,0-3.9-1.7-3.9-3.9V96.5H3.9c-2.1,0-3.9-1.7-3.9-3.9c0-1.1,0.5-2.2,1.4-2.9L105.1,0.9
	c1.4-1.2,3.6-1.2,5,0l103.7,88.8c1.5,1.5,1.5,4,0,5.5c-1.3,1.4-3.5,1.5-5,0.4L107.6,9L14.3,88.8h26.1c2.1,0,3.9,1.7,3.9,3.9v96.1
	h10.1c6,0,7.7,1.7,7.7,3.9S63.6,196.1,54.4,196.5z"/>
<path class="st2" d="M176,124.1V92.7c0-2.1,1.7-3.9,3.9-3.9c2.1,0,3.9,1.7,3.9,3.9c0,0,0,0,0,0v31.4c0,2.1-1.7,3.9-3.9,3.9
	C177.7,128,176,126.2,176,124.1z"/>
<path class="st2" d="M175.3,196.5h-68.6c-4.6,0-7.8-1.7-7.8-3.9s3.8-3.9,8.4-3.9h68c4.6,0,6.1,1.7,6.1,3.9S179.9,196.5,175.3,196.5z
	"/>
<path class="st2" d="M64.1,119v68.9c0,7.4-1.7,8.5-3.9,8.5s-3.9-3.8-3.9-8.5V119c0-4.7,1.6-7.9,3.9-8.6
	C63.1,109.5,64.1,114.3,64.1,119z"/>
<path class="st2" d="M98.4,186.9v-68c0-4.6,1.7-8.4,3.9-8.4s3.9,0.4,3.9,8.4v68c0,4.6-1.7,8.4-3.9,8.4S99,196.6,98.4,186.9z"/>
<path class="st2" d="M101.6,117.9H62.7c-2.6,0-5.3-1.7-5.3-3.9s2.6-3.9,5.3-3.9h38.9c2.7,0,3.8,1.1,3.8,3.2S104.2,117.9,101.6,117.9
	z"/>
</svg>
