<?xml version="1.0" encoding="utf-8"?>
<!-- Generator: Adobe Illustrator 24.0.1, SVG Export Plug-In . SVG Version: 6.00 Build 0)  -->
<svg version="1.1" id="image" xmlns="http://www.w3.org/2000/svg" xmlns:xlink="http://www.w3.org/1999/xlink" x="0px" y="0px"
	 viewBox="0 0 545.5 416.1" style="enable-background:new 0 0 545.5 416.1;" xml:space="preserve">
<style type="text/css">
	.st0{fill:#E8E8E8;}
	.st1{fill:#FFFFFF;}
	.st2{fill:#FF6584;}
	.st3{fill:#6C63FF;}
	.st4{fill:#B0FFB0;}
	.st5{fill:#A38155;}
	.st6{fill:#2F2E41;}
	.st7{fill:#A0616A;}
	.st8{fill:#3F3D56;}
	.st9{fill:#FFB8B8;}
	.st10{fill:#B72020;}
	.st11{opacity:0.2;enable-background:new    ;}
	.st12{fill:#CCCCCC;}
	.st13{fill:#E6E6E6;}
	.st14{fill:#83829E;}
	.st15{fill:#E5C1C1;}
</style>
<path class="st0" d="M90.1,354.6c33.6-16.4,103-43.8,190.7-43.8s157.1,27.5,190.7,43.8c32.7,15.9,59,34.7,71.4,50.1
	c4.5-5.8-2.1-108.6-20.5-149.4c-55-122.5-182.7-202.1-324.1-202c-49.7-0.1-97.4,18.4-132.4,51.6c-0.7,0.7-1.5,1.4-2.2,2.1
	c-38.8,37.7-56.9,90.2-50.3,142.3C18,286.4,29.7,364,46.1,380.4C60,370.7,74.7,362.1,90.1,354.6z"/>
<ellipse class="st1" cx="51.3" cy="209.2" rx="4.8" ry="4.5"/>
<ellipse class="st1" cx="384.9" cy="274.5" rx="4.8" ry="4.5"/>
<path class="st1" d="M89.8,288h-2.4v-2.2c0-1.6-1.4-2.9-3.1-2.9s-3.1,1.3-3.1,2.9v2.2h-2.4c-1.7,0-3.1,1.3-3.1,2.9s1.4,2.9,3.1,2.9
	h2.4v2.2c0,1.6,1.4,2.9,3.1,2.9s3.1-1.3,3.1-2.9v-2.2h2.4c1.7,0,3.1-1.3,3.1-2.9C92.9,289.2,91.5,288,89.8,288z"/>
<path class="st2" d="M440.5,233h-1.2v-1.2c0-0.8-0.7-1.5-1.6-1.5s-1.6,0.7-1.6,1.5v1.2h-1.2c-0.9,0-1.6,0.7-1.6,1.5s0.7,1.5,1.6,1.5
	h1.2v1.2c0,0.8,0.7,1.5,1.6,1.5s1.6-0.7,1.6-1.5V236h1.2c0.9,0,1.6-0.7,1.6-1.5S441.4,233,440.5,233L440.5,233z"/>
<path class="st3" d="M79,155.5h-1.2v-1.2c0-0.8-0.7-1.5-1.6-1.5s-1.6,0.7-1.6,1.5l0,0v1.2h-1.2c-0.9,0-1.6,0.7-1.6,1.5
	s0.7,1.5,1.6,1.5l0,0h1.2v1.2c0,0.8,0.7,1.5,1.6,1.5s1.6-0.7,1.6-1.5l0,0v-1.2H79c0.9,0,1.6-0.7,1.6-1.5S79.9,155.5,79,155.5
	L79,155.5z"/>
<path class="st1" d="M170.9,155.5h-1.2v-1.2c0-0.8-0.7-1.5-1.6-1.5c-0.9,0-1.6,0.7-1.6,1.5l0,0v1.2h-1.2c-0.9,0-1.6,0.7-1.6,1.5
	s0.7,1.5,1.6,1.5l0,0h1.2v1.2c0,0.8,0.7,1.5,1.6,1.5c0.9,0,1.6-0.7,1.6-1.5l0,0v-1.2h1.2c0.9,0,1.6-0.7,1.6-1.5
	S171.8,155.5,170.9,155.5L170.9,155.5z"/>
<path class="st1" d="M487.5,309.2h-1.2V308c0-0.8-0.7-1.5-1.6-1.5s-1.6,0.7-1.6,1.5v1.2h-1.2c-0.9,0-1.6,0.7-1.6,1.5
	s0.7,1.5,1.6,1.5h1.2v1.2c0,0.8,0.7,1.5,1.6,1.5s1.6-0.7,1.6-1.5v-1.2h1.2c0.9,0,1.6-0.7,1.6-1.5
	C489.1,309.8,488.4,309.2,487.5,309.2z"/>
<path class="st1" d="M344.5,184.4h-1.2v-1.2c0-0.8-0.7-1.5-1.6-1.5s-1.6,0.7-1.6,1.5v1.2h-1.2c-0.9,0-1.6,0.7-1.6,1.5
	s0.7,1.5,1.6,1.5h1.2v1.2c0,0.8,0.7,1.5,1.6,1.5s1.6-0.7,1.6-1.5v-1.2h1.2c0.9,0,1.6-0.7,1.6-1.5C346.1,185,345.4,184.4,344.5,184.4
	L344.5,184.4z"/>
<path class="st1" d="M126,216.4h-1.2v-1.2c0-0.8-0.7-1.5-1.6-1.5s-1.6,0.7-1.6,1.5l0,0v1.2h-1.2c-0.9,0-1.6,0.7-1.6,1.5
	s0.7,1.5,1.6,1.5l0,0h1.2v1.2c0,0.8,0.7,1.5,1.6,1.5s1.6-0.7,1.6-1.5l0,0v-1.2h1.2c0.9,0,1.6-0.7,1.6-1.5
	C127.6,217,126.9,216.4,126,216.4L126,216.4z"/>
<path class="st1" d="M130.1,110.1h-1.2v-1.2c0-0.8-0.7-1.5-1.6-1.5s-1.6,0.7-1.6,1.5l0,0v1.2h-1.2c-0.9,0-1.6,0.7-1.6,1.5
	s0.7,1.5,1.6,1.5l0,0h1.2v1.2c0,0.8,0.7,1.5,1.6,1.5s1.6-0.7,1.6-1.5l0,0v-1.2h1.2c0.9,0,1.6-0.7,1.6-1.5
	C131.7,110.8,131,110.1,130.1,110.1L130.1,110.1z"/>
<title>loginImage</title>
<path class="st4" d="M178.2,361.2c-0.1,17.2-1.4,34.4-3.8,51.5c-0.1,0.6-0.2,1.2-0.3,1.8l-161.2-0.9c-0.5-0.6-0.9-1.2-1.4-1.8
	c-1.5-2-2.9-4.1-4.2-6.2c-6.2-10.3-9.1-22.4-6.2-30.8v-0.1c0.6-1.8,1.6-3.5,2.9-5c6.5-7.3,19.7-6.1,31.6-0.2
	c-10.7-11.7-19.2-26.5-19.8-39.7c-0.6-12.9,6.1-22.1,13.4-29.9l0.7-0.8c0.1-0.1,0.2-0.3,0.4-0.4c5.7-6,12.4-11.8,22-11.1
	c10.5,0.8,22.2,9.6,30.5,19.9s13.7,22,19.2,33.4s11.5,23.1,20.4,32.9c-12-15.2-21.7-32.5-25.3-49.4s-0.4-33,10.3-40.9
	c3.3-2.3,7-3.9,11-4.4l1.4-0.2c9.9-1.1,21.8,2.3,31.8,10.5c11.1,9,18.8,22.4,22.6,35.1S178.3,349.3,178.2,361.2z"/>
<path class="st1" d="M72.7,413.9h-3.1l-3-1.8c-0.6-0.4-1.2-0.8-1.8-1.1c-10.2-6.3-20.5-12.3-30.8-18s-20.7-11.2-31.2-16.4
	c-0.6-0.2-0.9-0.9-0.8-1.5V375c0.2-0.3,0.5-0.4,1-0.1c1.3,0.6,2.6,1.3,3.8,1.9c10.5,5.3,20.9,10.9,31.3,16.7s20.7,11.9,31,18.3
	l0.6,0.4L72.7,413.9z"/>
<path class="st1" d="M112.4,414.1h-1.9l-1.3-1.8L79,369.8l-49.6-69.6c-0.1-0.1-0.2-0.3-0.2-0.4c-0.1-0.5,0.2-0.8,0.7-0.8
	c0.4,0.1,0.8,0.3,1,0.6l27.8,39l49.3,69.2c1,1.5,2.1,2.9,3.1,4.4L112.4,414.1z"/>
<path class="st1" d="M154.9,403c-0.1,3.2-0.3,6.4-0.6,9.5c-0.1,0.6-0.1,1.2-0.2,1.8h-2l0.2-1.8c0.4-4.5,0.7-9.1,0.8-13.8
	c0.1-13-1.2-26-3.8-38.8c-2.7-13.8-6.7-27.2-11.7-40.3c-5.3-13.8-11.8-27.1-19.2-39.9c-0.1-0.2-0.2-0.5-0.2-0.7
	c0.1-0.6,0.8-0.7,1.4-0.2c0.1,0.1,0.2,0.2,0.3,0.4c0.9,1.6,1.8,3.2,2.7,4.8c7.2,12.8,13.3,26.2,18.4,40c4.8,13.1,8.5,26.6,10.9,40.4
	C154.3,377.1,155.3,390,154.9,403z"/>
<path class="st5" d="M545.5,320.5c0-7.7-29.1-14-65-14s-65,6.3-65,14c0,5,12,9.3,30,11.8V409c0,3.6,2.9,6.5,6.5,6.5s6.5-2.9,6.5-6.5
	v-75.3c6.9,0.5,14.3,0.8,22,0.8s15.1-0.3,22-0.8V409c0,3.6,2.9,6.5,6.5,6.5c3.6,0,6.5-2.9,6.5-6.5v-76.7
	C533.6,329.8,545.5,325.4,545.5,320.5z"/>
<circle class="st6" cx="487.7" cy="164.4" r="28"/>
<polygon class="st7" points="418.1,403.9 405.8,403.9 400,356.6 418.1,356.6 "/>
<path class="st6" d="M397,400.4h23.6v14.9h-38.5C382.2,407.1,388.8,400.4,397,400.4z"/>
<polygon class="st7" points="398.9,397.1 387.2,393.4 395.8,346.5 413.1,352 "/>
<path class="st6" d="M379.9,387.4l22.6,7.1l0,0l-4.5,14.2l0,0l-36.8-11.5l0,0C363.7,389.3,372.1,385,379.9,387.4L379.9,387.4
	L379.9,387.4z"/>
<path class="st6" d="M402.9,378.2c-0.5,0-1.1-0.1-1.6-0.3l-9-3.4c-2.1-0.8-3.3-3-2.8-5.2c2.3-10.2,10-45,14.3-63.6
	c5-22.1,78.3-26.2,81.5-26.4h0.3l8.3,10.4c3,9.6,2,17-2.8,22.2c-14.1,15-56.3,5.7-61.4,4.5l-22.4,58.9
	C406.5,377.1,404.8,378.2,402.9,378.2z"/>
<path class="st6" d="M415.9,385.2c-0.5,0-1.1-0.1-1.6-0.3l-9-3.4c-2.1-0.8-3.3-3-2.8-5.2c2.3-10.2,10-45,14.3-63.6
	c5-22.1,78.3-26.2,81.5-26.4h0.3l8.3,10.4c3,9.6,2,17-2.8,22.2c-14.1,15-56.3,5.7-61.4,4.5l-22.4,58.9
	C419.5,384.1,417.8,385.2,415.9,385.2z"/>
<path class="st7" d="M389.8,241.2c0.3,0.4,0.6,0.9,0.9,1.4l49.3,5.2l7.1-9.7l16.1,8.8l-13.9,23.6l-60.5-15.4c-4.2,4-10.8,4-14.8-0.2
	s-4-10.8,0.2-14.8c4.1-4,10.8-4,14.8,0.2C389.3,240.6,389.6,240.9,389.8,241.2L389.8,241.2z"/>
<path class="st3" d="M504.4,300.7c-0.7,0-1.4-0.2-2-0.5c-9.9-5-29.1-13.7-46.9-15.5c-1.2-0.1-2.4-0.8-3.1-1.8
	c-0.8-1-1.1-2.3-0.8-3.5c1.6-8.9,5.3-31.5,4.8-49.7c-0.3-11.5,7.4-21.7,18.6-24.5l0,0c3.3-0.9,6.6-1.5,9.9-2
	c13.6-1.7,26,7.9,27.7,21.5c0.3,2.4,0.3,4.8-0.2,7.2c-3.2,18.8-6.4,45.1-3.6,63.4c0.4,2.5-1.3,4.8-3.8,5.2
	C504.9,300.6,504.7,300.6,504.4,300.7L504.4,300.7z"/>
<path class="st3" d="M457.3,252.8c-0.6,0-1.2-0.1-1.8-0.4l-12.8-5.5c-2.3-1-3.3-3.6-2.3-5.9l9.9-22.9c2.5-5.8,9.3-8.5,15.1-6
	s8.5,9.3,6,15.1l0,0l0,0l-9.9,22.9C460.7,251.7,459.1,252.8,457.3,252.8L457.3,252.8z"/>
<circle class="st7" cx="486.7" cy="170.9" r="24.6"/>
<path class="st6" d="M461.7,158.8c11.6,7.1,24.7,11.4,38.3,12.6l-4-4.8c2.9,1.1,6,1.7,9.2,1.8c3.1-0.1,6.4-1.3,8.2-3.8
	c1.6-2.6,1.8-5.8,0.6-8.6s-3.1-5.2-5.6-7c-8.7-6.9-20.3-9-30.9-5.5c-3.6,1.1-6.8,3.1-9.2,5.9c-2.3,2.9-6.8,5.4-5.6,8.9L461.7,158.8z
	"/>
<path class="st6" d="M490.9,139c-7.8-7.9-17.1-13.9-27.5-17.8c-6.6-2.5-13.9-4-20.8-2.6s-13.5,6.2-15.4,13c-1.6,5.6,0,11.6,2.5,16.8
	s5.7,10.1,7.7,15.5c6.7,18.4-2.8,38.8-21.2,45.5c-4.6,1.7-9.6,2.4-14.5,2.1c6.8,0.9,13.1,4.1,19.8,5.8s14.5,1.6,19.5-3.2
	c5.2-5.1,5.3-13.3,5.1-20.6c-0.4-10.8-0.8-21.6-1.1-32.4c-0.2-5.5-0.4-11.2,1.6-16.4s6.7-9.6,12.2-9.6c4.2,0,7.9,2.6,11.2,5.1
	s6.9,5.2,11.1,5.5s8.9-2.7,8.6-6.9"/>
<path class="st7" d="M445.4,294.4c-6.1,0-11-4.9-11-11s4.9-11,11-11c1.4,0,2.9,0.3,4.2,0.9l0,0c0.5,0.2,0.9,0.4,1.4,0.7l44.7-20.1
	l1.3-12.2l19.3-0.5l-0.1,20.2c0,4.8-3.2,9-7.9,10.4L456,286.6c-0.1,0.3-0.2,0.7-0.4,1C453.9,291.7,449.9,294.3,445.4,294.4
	L445.4,294.4z"/>
<path class="st3" d="M514.6,251c-0.6,0.3-1.2,0.4-1.8,0.5l-14,0.9c-2.5,0.1-4.6-1.7-4.8-4.2l-1.5-25c-0.5-6.3,4.2-11.9,10.5-12.4
	s11.9,4.2,12.4,10.5c0,0.1,0,0.3,0,0.4l0,0l1.5,24.9C517.2,248.4,516.2,250.1,514.6,251L514.6,251z"/>
<path class="st8" d="M484.3,296.9h-79c-1.9,0-3.5-1.6-3.5-3.5l0,0c0-1.9,1.6-3.5,3.5-3.5h79c1.9,0,3.5,1.6,3.5,3.5l0,0
	C487.8,295.3,486.2,296.9,484.3,296.9z"/>
<path class="st8" d="M370.8,290.4v-49c0-3.6,2.9-6.5,6.5-6.5h89c3.6,0,6.5,2.9,6.5,6.5v49c0,3.6-2.9,6.5-6.5,6.5h-89
	C373.7,296.9,370.8,294,370.8,290.4L370.8,290.4z"/>
<circle class="st1" cx="421.8" cy="265.9" r="6"/>
<path class="st9" d="M276.8,208.2c-3-4.6-9.2-5.9-13.8-2.9c0,0-0.1,0-0.1,0.1c-0.5,0.3-1,0.7-1.4,1.1l-31.7-16.4l2,18.5l29.8,12.7
	c4.1,3.8,10.5,3.5,14.3-0.6C279,217.3,279.4,212.1,276.8,208.2L276.8,208.2z"/>
<path class="st10" d="M248.6,215.7c-1.2,0.5-2.5,0.5-3.7,0l-30.2-13.1c-10.3-4.5-18.6-12.5-23.5-22.7l-15.9-33.5
	c-5-6.2-4.1-15.4,2.1-20.4c6.2-5,15.4-4.1,20.4,2.1c0.1,0.1,0.2,0.3,0.3,0.4l0,0l27.9,51.7l25.7,19.4c1.5,1.1,2.1,3.1,1.6,4.9
	l-2.5,8.2c-0.3,0.9-0.8,1.6-1.5,2.2C249.2,215.3,248.9,215.5,248.6,215.7z"/>
<circle class="st9" cx="174.7" cy="82.5" r="24.6"/>
<polygon class="st9" points="184.7,404.7 196.9,404.7 202.8,357.4 184.7,357.4 "/>
<path class="st6" d="M220.6,416.1H182v-14.9h23.6C213.9,401.2,220.5,407.9,220.6,416.1L220.6,416.1z"/>
<polygon class="st9" points="144.7,404.7 156.9,404.7 162.8,357.4 144.7,357.4 "/>
<path class="st6" d="M180.6,416.1H142v-14.9h23.6C173.9,401.2,180.5,407.9,180.6,416.1L180.6,416.1z"/>
<path class="st6" d="M140.4,391.2c-0.9-1-1.2-2.3-1.1-3.6l21.5-161l53.3,9.1l5.7-3.4L205.1,385c-0.2,2.1-1.9,3.8-4.1,4l-16.1,1.3
	c-2.5,0.2-4.7-1.6-4.9-4.1l0,0c0-0.2,0-0.4,0-0.6l4.2-72.7c0-0.3-0.2-0.5-0.5-0.5l0,0c-0.2,0-0.4,0.1-0.5,0.4l-20.7,76.7
	c-0.5,2-2.3,3.3-4.4,3.3h-14.4C142.5,392.8,141.2,392.2,140.4,391.2z"/>
<path class="st10" d="M177.3,237.9c-1.3-1.1-3.2-1.2-4.5-0.2l-10.7,8.3c-1.9,1.5-4.8,1.2-6.3-0.8c-0.4-0.5-0.6-1-0.8-1.6
	c-5.2-18.3-17.1-64.4-14.2-96.8c1.6-18.4,17.5-32.4,35.4-31.2c12.2,0.8,20.3,7.9,23.9,20.9c8.9,32.1,18.7,91.1,20.6,102.5
	c0.3,1.8-0.5,3.6-2.1,4.6c-5,3-10.8,4.7-16.7,4.7C194.8,248.4,186.3,245.9,177.3,237.9z"/>
<path class="st9" d="M181.3,249.3c0.4-5.5-3.7-10.4-9.2-10.8c-0.6-0.1-1.2-0.1-1.8,0L155.5,206l-9.8,15.8l15.6,28.4
	c0.9,5.5,6.1,9.3,11.6,8.4C177.5,257.8,181,254,181.3,249.3L181.3,249.3z"/>
<path class="st10" d="M154.5,237.8c-1.2-0.3-2.3-1.1-2.9-2.2l-15.6-29c-5.4-9.9-6.9-21.4-4.4-32.3l8.2-36.1c0-8,6.5-14.5,14.6-14.4
	c8,0,14.5,6.5,14.4,14.6l0,0l0,0l-10,57.9l8.3,31.2c0.5,1.8-0.2,3.8-1.8,4.9l-7,4.9c-0.8,0.5-1.6,0.8-2.6,0.8
	C155.3,237.9,154.9,237.9,154.5,237.8z"/>
<polygon class="st11" points="166.7,162.7 157.7,200.7 170.7,232.7 161.7,201.7 "/>
<path class="st6" d="M160.7,102.7c-2.2,0-4.4-0.4-6.4-1.2c-0.9-0.3-1.8-0.6-2.7-1c-7.9-3-13.1-11.4-13.3-19.9s4.2-16.6,10.7-22
	s14.9-8.2,23.3-8.8c9.1-0.7,19.3,1.6,24.4,9.2c1.4,2,2.3,4.4,1.5,6.9c-0.2,0.7-0.6,1.4-1.2,1.9c-2.3,2-4.5,0.5-6.8,0.4
	c-3.2-0.2-6,2.4-7,5.4s-0.6,6.3,0.3,9.4c0.6,1.8,1,3.8,1.2,5.7c0.1,2-0.8,3.9-2.4,5c-2,1.2-4.6,0.5-6.6-0.7s-3.7-2.9-5.8-3.7
	s-5-0.7-6.3,1.3c-0.4,0.7-0.7,1.5-0.8,2.3C161.6,97.9,161.9,97.6,160.7,102.7L160.7,102.7z"/>
<g id="documentOne">
	<polygon class="st1" points="276.3,147.8 275.6,148.4 275,149 275,150.1 274.9,152 275,204.2 275.6,205.5 276.8,206 278.3,206 
		325.8,205.9 326.7,205.5 328,204.2 328.2,202.9 328,153.4 320.2,147.4 277.4,147.4 	"/>
	<path class="st8" d="M276.1,147.6c-0.9,0.4-1.4,1.3-1.5,2.2v0.4h0.4v-0.4c0.1-1.1,0.9-2,2-2.2H276.1z M320.4,147.3h-42.6
		c-1.6-0.1-2.9,1.1-3.1,2.6v53.8c0.1,1.6,1.5,2.7,3.1,2.6h47.4c1.6,0.1,2.9-1.1,3.1-2.6v-50.4L320.4,147.3z M327.8,203.6
		c-0.1,1.4-1.3,2.4-2.7,2.3h-47.4c-1.4,0.1-2.6-0.9-2.7-2.3v-53.7c0.1-1.1,0.9-2,2-2.2c0.2,0,0.5-0.1,0.7-0.1h42.5l7.6,5.8V203.6z
		 M276.1,147.6c-0.9,0.4-1.4,1.3-1.5,2.2v0.4h0.4v-0.4c0.1-1.1,0.9-2,2-2.2H276.1z"/>
	<path class="st8" d="M328,153.4h-4.9c-1.6,0.1-3-1-3.1-2.6l0,0v-3.4c0-0.1,0.1-0.2,0.2-0.2s0.2,0.1,0.2,0.2v3.4
		c0.1,1.4,1.3,2.4,2.7,2.3h4.9c0.1,0,0.2,0,0.2,0.1C328.2,153.3,328.2,153.4,328,153.4C328.1,153.4,328,153.4,328,153.4L328,153.4z"
		/>
	<path class="st12" d="M321.9,163.6h-41.1c-0.7,0.1-1.3-0.3-1.5-1c-0.1-0.7,0.3-1.3,1-1.5c0.1,0,0.3,0,0.4,0h41.1
		c0.7-0.1,1.3,0.3,1.5,1c0.1,0.7-0.3,1.3-1,1.5C322.2,163.7,322.1,163.7,321.9,163.6z"/>
	<path class="st12" d="M301.2,158.4h-20.4c-0.7,0.1-1.3-0.4-1.4-1c-0.1-0.7,0.4-1.3,1-1.4c0.1,0,0.3,0,0.4,0h20.4
		c0.7-0.1,1.3,0.4,1.4,1c0.1,0.7-0.4,1.3-1,1.4C301.5,158.4,301.4,158.4,301.2,158.4L301.2,158.4z"/>
	<path class="st12" d="M321.9,174h-41.1c-0.7,0.1-1.3-0.4-1.4-1c-0.1-0.7,0.4-1.3,1-1.4c0.1,0,0.3,0,0.4,0h41.1
		c0.7-0.1,1.3,0.4,1.4,1c0.1,0.7-0.4,1.3-1,1.4C322.2,174,322.1,174,321.9,174z"/>
	<path class="st12" d="M301.2,168.7h-20.4c-0.7,0.1-1.3-0.4-1.4-1c-0.1-0.7,0.4-1.3,1-1.4c0.1,0,0.3,0,0.4,0h20.4
		c0.7-0.1,1.3,0.4,1.4,1c0.1,0.7-0.4,1.3-1,1.4C301.5,168.8,301.4,168.8,301.2,168.7L301.2,168.7z"/>
	<path class="st3" d="M320.5,197.6h-38.2c-1.5,0.1-2.9-1-3-2.5v-12.9c0.1-1.5,1.5-2.7,3-2.5h38.2c1.5-0.1,2.9,1,3,2.5v12.9
		C323.4,196.6,322,197.7,320.5,197.6z"/>
</g>
<g id="documentTwo">
	<path class="st2" d="M280,92.5c-2.6-16.9-2.6-34.1,0-51c0.3-2.1,2.1-3.6,4.2-3.6h39.9c1.3,0,2.6,0.6,3.4,1.6s1.1,2.4,0.8,3.7
		c-3.7,15.6-3.7,31.9,0,47.5c0.3,1.3,0,2.7-0.8,3.7s-2,1.6-3.4,1.6h-39.8C282.2,96.1,280.4,94.6,280,92.5z"/>
	<path class="st1" d="M311.9,62.6H291c-1.7,0-3-1.3-3-3v-1.2c0-1.7,1.3-3,3-3h20.9c1.7,0,3,1.3,3,3v1.2
		C314.9,61.2,313.5,62.6,311.9,62.6L311.9,62.6z"/>
	<path class="st1" d="M311.9,74.9H291c-1.7,0-3-1.3-3-3v-1.1c0-1.7,1.3-3,3-3h20.9c1.7,0,3,1.3,3,3v1.1
		C314.9,73.5,313.5,74.9,311.9,74.9L311.9,74.9z"/>
</g>
<g id="documentThree">
	<path class="st1" d="M415.7,40.6h-20.9c-1.7,0-3-1.3-3-3v-1.2c0-1.7,1.3-3,3-3h20.9c1.7,0,3,1.3,3,3v1.2
		C418.7,39.3,417.4,40.6,415.7,40.6z"/>
	<path class="st13" d="M394.4,23.8h-20.8c-0.9,0.1-1.7-0.6-1.7-1.5c-0.1-0.9,0.6-1.7,1.5-1.7c0.1,0,0.2,0,0.3,0h20.8
		c0.9-0.1,1.7,0.6,1.7,1.5c0.1,0.9-0.6,1.7-1.5,1.7C394.5,23.8,394.5,23.8,394.4,23.8z"/>
	<path class="st13" d="M401.2,29.2h-27.6c-0.9,0.1-1.7-0.6-1.7-1.5s0.6-1.7,1.5-1.7c0.1,0,0.2,0,0.3,0h27.6c0.9-0.1,1.7,0.6,1.7,1.5
		c0.1,0.9-0.6,1.7-1.5,1.7C401.3,29.2,401.3,29.2,401.2,29.2z"/>
	<path class="st1" d="M439.4,36.4c0.1-1.3-0.6-2.5-1.7-3L380.9,6.2c-1.5-0.7-3.3-0.1-4.1,1.4l0,0l-21.3,42.6c-0.7,1.5-0.1,3.3,1.4,4
		l56.8,27.2c1.5,0.7,3.3,0.1,4.1-1.4l21.3-42.7C439.2,37.1,439.3,36.7,439.4,36.4z"/>
	<path class="st14" d="M439.4,36.4c0.1-1.3-0.6-2.5-1.7-3L380.9,6.2c-1.5-0.7-3.3-0.1-4.1,1.4l0,0l-21.3,42.6
		c-0.7,1.5-0.1,3.3,1.4,4l56.8,27.2c1.5,0.7,3.3,0.1,4.1-1.4l21.3-42.7C439.2,37.1,439.3,36.7,439.4,36.4z M417.5,79.9
		c-0.7,1.3-2.3,1.9-3.6,1.2l-56.8-27.2c-1.3-0.6-1.9-2.2-1.3-3.5l0,0l21.3-42.6c0.7-1.3,2.3-1.9,3.6-1.2l56.8,27.1
		c1.3,0.6,1.9,2.2,1.3,3.5c0,0,0,0,0,0.1L417.5,79.9z"/>
	<path class="st13" d="M433.2,38.3l-14.9,29.8c-0.2,0.4-0.7,0.6-1.1,0.4l0,0l-51.6-24.7l-0.1-0.1c-0.3-0.2-0.5-0.7-0.3-1.1L380,12.9
		c0.2-0.4,0.7-0.6,1.1-0.4l0,0l51.6,24.7C433.2,37.4,433.4,37.9,433.2,38.3L433.2,38.3L433.2,38.3z"/>
	<ellipse class="st3" cx="387.8" cy="29.5" rx="7.5" ry="7.3"/>
	<path class="st8" d="M398.8,59.8l-33-15.8c0,0-0.1,0-0.1-0.1l28.8-19c0.6-0.4,1.3-0.2,1.7,0.3c0.1,0.2,0.2,0.4,0.2,0.6l1.6,22.8
		l0.1,1.1L398.8,59.8z"/>
	<polygon class="st11" points="398.8,59.8 387.5,54.5 397,49.2 397.7,48.9 398,48.7 398.1,49.8 	"/>
	<path class="st8" d="M417.1,68.6L388.6,55l9.4-5.2l0.7-0.4l12.3-6.8c0.8-0.4,1.8,0,2.2,0.8v0.1c0,0.1,0,0.1,0,0.2L417.1,68.6z"/>
</g>
<g id="documentFour">
	<path class="st15" d="M350.9,159.9c-0.8-1-1.1-2.4-0.8-3.7c3.7-15.6,3.7-31.9,0-47.5c-0.6-2.3,0.8-4.6,3.1-5.2
		c0.3-0.1,0.7-0.1,1-0.1h39.9c2.1,0,3.9,1.5,4.2,3.6c2.6,16.9,2.6,34.1,0,51c-0.3,2.1-2.1,3.6-4.2,3.6h-39.9
		C352.9,161.5,351.7,160.9,350.9,159.9z"/>
	<path class="st1" d="M385.9,122.8H365c-1.7,0-3-1.3-3-3v-1.2c0-1.7,1.3-3,3-3h20.9c1.7,0,3,1.3,3,3v1.2
		C388.9,121.4,387.6,122.8,385.9,122.8z"/>
	<path class="st1" d="M385.9,137.6H365c-1.7,0-3-1.3-3-3v-1.2c0-1.7,1.3-3,3-3h20.9c1.7,0,3,1.3,3,3v1.2
		C388.9,136.3,387.6,137.6,385.9,137.6z"/>
	<path class="st1" d="M385.9,152.4H365c-1.7,0-3-1.3-3-3v-1.2c0-1.7,1.3-3,3-3h20.9c1.7,0,3,1.3,3,3v1.2
		C388.9,151.1,387.6,152.4,385.9,152.4z"/>
</g>
</svg>
