<svg id="e4010ebf-3fe6-49b7-a076-cdda51cf4fd8" data-name="Layer 2" xmlns="http://www.w3.org/2000/svg" viewBox="0 0 91.66 92.89"><defs><style>.b3f58656-b4a1-4225-9071-da1cbe893fff{fill:#d1e4f6;}.bdeb749e-438d-4bd1-b678-b7b793f837b0{fill:#454c56;}</style></defs><title>personIcon</title><path class="b3f58656-b4a1-4225-9071-da1cbe893fff" d="M297.6,422a45.84,45.84,0,0,0-18.18,87.91l6.5-3.46v-8.36c-1-1-2-2.08-3.15-3.34a27.67,27.67,0,0,1-5.71-11.15c-5.71,1.36-9.52-12.51-6.8-16.41a5,5,0,0,1,1.43-1.41h0s-5.5-11.89,2.39-19.61,7.07-15.65,23.53-15.65,15.64,7.92,23.53,15.65,2.39,19.61,2.39,19.61h0a5,5,0,0,1,1.43,1.41c2.72,3.9-1.09,17.77-6.8,16.41a27.67,27.67,0,0,1-5.71,11.15c-1.12,1.26-2.14,2.38-3.15,3.34v8.36l6.5,3.46A45.84,45.84,0,0,0,297.6,422Z" transform="translate(-251.77 -421.99)"/><path class="bdeb749e-438d-4bd1-b678-b7b793f837b0" d="M275.36,514.88,273,510.46l10.4-5.52v-5.81c-.86-.88-1.71-1.82-2.51-2.73a29.54,29.54,0,0,1-5.74-10.32c-1.51-.29-3.3-1.25-5-3.71-3-4.46-4.6-12.87-2-16.62.17-.24.34-.46.52-.67-1.35-3.94-3.61-13.65,3.59-20.71a39.5,39.5,0,0,0,4.84-6c3.74-5.33,7.28-10.37,20.44-10.37s16.7,5,20.44,10.37a39.5,39.5,0,0,0,4.84,6c7.2,7.06,4.94,16.77,3.59,20.71.18.21.35.43.52.67,2.62,3.75,1.05,12.16-2,16.62-1.68,2.46-3.47,3.42-5,3.71a29.82,29.82,0,0,1-5.73,10.32c-.81.91-1.66,1.85-2.53,2.73v5.81l9.89,5.24-2.35,4.42-11.21-6a2.53,2.53,0,0,1-1.33-2.21v-8.36a2.52,2.52,0,0,1,.79-1.82c.89-.84,1.81-1.84,3-3.18a25.2,25.2,0,0,0,5.14-10,2.49,2.49,0,0,1,1.11-1.59,2.51,2.51,0,0,1,1.91-.31c.83.2,1.78-1.05,2.15-1.6,2.41-3.55,3-9.5,2-10.94a2.41,2.41,0,0,0-.7-.72,2.51,2.51,0,0,1-1.09-2.81,2.58,2.58,0,0,1,.23-.54c.61-1.43,4.17-10.61-1.95-16.61a44.07,44.07,0,0,1-5.43-6.68c-3.49-5-5.79-8.25-16.35-8.25s-12.86,3.28-16.35,8.24a43.62,43.62,0,0,1-5.43,6.69c-6.18,6.06-2.41,15.52-1.92,16.67a2.53,2.53,0,0,1,.19.48A2.49,2.49,0,0,1,273,467.9a2.41,2.41,0,0,0-.7.72c-1,1.44-.39,7.39,2,10.94.37.55,1.32,1.79,2.15,1.6a2.49,2.49,0,0,1,3,1.9,25.54,25.54,0,0,0,5.14,10c1.19,1.34,2.1,2.33,3,3.18a2.51,2.51,0,0,1,.78,1.82v8.36a2.52,2.52,0,0,1-1.32,2.21Z" transform="translate(-251.77 -421.99)"/></svg>