<svg id="f2376179-5741-44e7-be5d-3b9195b63953" data-name="Layer 9" xmlns="http://www.w3.org/2000/svg" viewBox="0 0 66.96 50.09"><defs><style>.f551fe80-596d-40ea-aad0-c21520776765{fill:none;stroke:#f7f8fa;stroke-miterlimit:10;stroke-width:2px;}</style></defs><title>settingsIconDesktop</title><path class="f551fe80-596d-40ea-aad0-c21520776765" d="M201,69.32c.45.45-.57,0-.92,0l.46,0c1.3.81-1-.29.59.07v1.81a1.16,1.16,0,0,0,1.16,1.16h4.18a1.16,1.16,0,0,0,1.15-1.16V69.35a14.26,14.26,0,0,0,4.29-1.78l1.29,1.28a1.15,1.15,0,0,0,1.63,0l3-2.95a1.16,1.16,0,0,0,0-1.64L216.51,63a14.11,14.11,0,0,0,1.78-4.29h1.82a1.15,1.15,0,0,0,1.15-1.16V53.35a1.14,1.14,0,0,0-1.15-1.15" transform="translate(-155.3 -36.79)"/><path class="f551fe80-596d-40ea-aad0-c21520776765" d="M220.11,52.2h-1.82a14.07,14.07,0,0,0-1.78-4.3l1.29-1.28a1.15,1.15,0,0,0,0-1.63l-3-3a1.15,1.15,0,0,0-1.63,0l-1.29,1.28a14,14,0,0,0-4.29-1.77V39.72a1.16,1.16,0,0,0-1.15-1.16H202.3a1.16,1.16,0,0,0-1.16,1.16v1.82a14,14,0,0,0-4.29,1.77L195.57,42a1.16,1.16,0,0,0-1.64,0l-2.44,2.12c-.45.45-.45-.3,0,.16" transform="translate(-155.3 -36.79)"/><path class="f551fe80-596d-40ea-aad0-c21520776765" d="M198.84,53.59a5.84,5.84,0,1,1,5.55,7.69" transform="translate(-155.3 -36.79)"/><path class="f551fe80-596d-40ea-aad0-c21520776765" d="M202.74,57.21h-2.59a20.15,20.15,0,0,0-2.53-6.12l1.83-1.83a1.65,1.65,0,0,0,0-2.33l-4.21-4.21a1.65,1.65,0,0,0-2.33,0l-1.83,1.83A20.19,20.19,0,0,0,185,42V39.43a1.64,1.64,0,0,0-1.65-1.64h-6a1.63,1.63,0,0,0-1.64,1.64V42a20.15,20.15,0,0,0-6.12,2.53l-1.83-1.83a1.65,1.65,0,0,0-2.33,0l-4.21,4.21a1.65,1.65,0,0,0,0,2.33l1.83,1.83a20.4,20.4,0,0,0-2.53,6.12h-2.59a1.63,1.63,0,0,0-1.64,1.64v6a1.63,1.63,0,0,0,1.64,1.64h2.59a20.4,20.4,0,0,0,2.53,6.12l-1.83,1.83a1.65,1.65,0,0,0,0,2.33l4.21,4.21a1.65,1.65,0,0,0,2.33,0l1.83-1.83a20.15,20.15,0,0,0,6.12,2.53v2.59a1.63,1.63,0,0,0,1.64,1.64h6A1.64,1.64,0,0,0,185,84.23V81.64a20.19,20.19,0,0,0,6.11-2.53l1.83,1.83a1.65,1.65,0,0,0,2.33,0l4.21-4.21a1.65,1.65,0,0,0,0-2.33l-1.83-1.83a20.15,20.15,0,0,0,2.53-6.12h2.59a1.64,1.64,0,0,0,1.65-1.64v-6a1.64,1.64,0,0,0-1.65-1.64" transform="translate(-155.3 -36.79)"/><path class="f551fe80-596d-40ea-aad0-c21520776765" d="M180.34,70.15a8.32,8.32,0,1,1,8.32-8.32,8.31,8.31,0,0,1-8.32,8.32" transform="translate(-155.3 -36.79)"/></svg>