<svg xmlns="http://www.w3.org/2000/svg" viewBox="0 0 66.96 50.09"><defs><style>.a,.c{fill:#fbcb67;}.a,.d{stroke:#031d28;stroke-miterlimit:10;stroke-width:2px;}.b{fill:#fff;}.d{fill:none;}</style></defs><title>settingIcon</title><path class="a" d="M196,72.36h-1.82a14.07,14.07,0,0,0-1.78-4.3l1.29-1.28a1.15,1.15,0,0,0,0-1.63l-3-3a1.15,1.15,0,0,0-1.63,0l-1.29,1.28a14,14,0,0,0-4.29-1.77V59.88a1.16,1.16,0,0,0-1.15-1.16h-4.18A1.16,1.16,0,0,0,177,59.88V61.7a14,14,0,0,0-4.29,1.77l-1.28-1.28a1.16,1.16,0,0,0-1.64,0l-3,3a1.15,1.15,0,0,0,0,1.63l1.29,1.28a14.32,14.32,0,0,0-1.78,4.3h-1.81a1.15,1.15,0,0,0-1.16,1.15v4.18a1.16,1.16,0,0,0,1.16,1.16h1.81a14.37,14.37,0,0,0,1.78,4.29l-1.29,1.28a1.16,1.16,0,0,0,0,1.64l3,3a1.16,1.16,0,0,0,1.64,0l1.28-1.28A14.26,14.26,0,0,0,177,89.51v1.81a1.16,1.16,0,0,0,1.16,1.16h4.18a1.16,1.16,0,0,0,1.15-1.16V89.51a14.26,14.26,0,0,0,4.29-1.78L189.09,89a1.15,1.15,0,0,0,1.63,0l3-3a1.16,1.16,0,0,0,0-1.64l-1.29-1.28a14.11,14.11,0,0,0,1.78-4.29H196a1.15,1.15,0,0,0,1.15-1.16V73.51A1.14,1.14,0,0,0,196,72.36m-15.72,9.08a5.84,5.84,0,1,1,5.84-5.84,5.84,5.84,0,0,1-5.84,5.84" transform="translate(-131.18 -56.95)"/><path class="b" d="M161.73,72.76A8.14,8.14,0,0,1,163,75.28l4.57-1.93A3.52,3.52,0,0,0,162.83,72c-2,.9-1.35,4.07.59,4.57.35.09.05-.13.31.11-.35-.33.31.37.18.19s.27.5.19.32.06.17.07.18c.06.2.12.41.17.63s.06.25.08.38c0-.06,0-.31,0,0s0,.82,0,1.24c0,.8-.14,1.6-.18,2.41a9.4,9.4,0,0,0,3.59,8.12c1.33,1,3.07,1.91,4.75,1.25,1.94-.76,2.46-3,2.13-4.91-.29-1.62-1.35-2.78-2-4.24a7.77,7.77,0,0,1-.31-3.45,14.33,14.33,0,0,0-.42-5.14,36.4,36.4,0,0,0-2.57-5.2A2.5,2.5,0,1,0,165.08,71a22.54,22.54,0,0,1,2.2,4.46,17,17,0,0,1,.07,4.17,11,11,0,0,0,1,5c.33.69.77,1.3,1.13,2a2.38,2.38,0,0,1,.37.9c0-.13,0,0,0,.3-.33-.35,0-.7.85-1.06H172a3.2,3.2,0,0,1-1.31-.67,3.85,3.85,0,0,1-1.11-1.45,2.49,2.49,0,0,1-.23-.69,3.54,3.54,0,0,1-.13-1c0-.94.09-1.86.16-2.79.26-3.4-.85-7.45-4.6-8.4l.6,4.57-2.12-.47c1.39,2.45,5.36.81,4.57-1.93A12.17,12.17,0,0,0,166,70.24a2.57,2.57,0,0,0-3.42-.9,2.52,2.52,0,0,0-.89,3.42Z" transform="translate(-131.18 -56.95)"/><path class="b" d="M171.61,87a9.18,9.18,0,0,0,2.17.86,5.77,5.77,0,0,0,1.49.16,4.34,4.34,0,0,0,1.34-.24,5,5,0,0,0,1.61-.93,4.49,4.49,0,0,0,.82-1,3.87,3.87,0,0,0,.45-3.06,2.5,2.5,0,0,0-4.57-.59,2.67,2.67,0,0,0-.25,1.92,1.16,1.16,0,0,1,0,.18l-.09-.67a2,2,0,0,1,0,.35l.09-.67a1.78,1.78,0,0,1-.09.33l.25-.6a1.69,1.69,0,0,1-.24.41L175,83a1.82,1.82,0,0,1-.34.34l.51-.39a1.94,1.94,0,0,1-.48.28l.6-.25a1.89,1.89,0,0,1-.48.13l.67-.08a3.14,3.14,0,0,1-.75,0l.66.09a4.9,4.9,0,0,1-1.24-.36l.59.25-.63-.29a2.62,2.62,0,0,0-1.92-.26,2.58,2.58,0,0,0-1.5,1.15,2.55,2.55,0,0,0-.25,1.93A2.5,2.5,0,0,0,171.61,87Z" transform="translate(-131.18 -56.95)"/><path class="b" d="M179.36,82.26a.78.78,0,0,1,0-.16l-.09.67a7,7,0,0,1,.44-1.63l-.25.59c.05-.11.11-.23.16-.35a1.8,1.8,0,0,0,.3-.93,1.86,1.86,0,0,0-.05-1,1.78,1.78,0,0,0-.44-.85,1.9,1.9,0,0,0-.7-.65l-.6-.25a2.5,2.5,0,0,0-1.33,0l-.6.25a2.56,2.56,0,0,0-.89.9,9.37,9.37,0,0,0-.66,1.64,10.29,10.29,0,0,0-.31,1.76,2,2,0,0,0,.21,1,2.61,2.61,0,0,0,2.29,1.54l.66-.09a2.55,2.55,0,0,0,1.11-.65l.39-.5a2.53,2.53,0,0,0,.34-1.26Z" transform="translate(-131.18 -56.95)"/><path class="b" d="M177.15,81.31a4.39,4.39,0,0,0-.39-3,8.26,8.26,0,0,0-.89-1.32,15,15,0,0,1-1.67-2.94l.25.6c-.33-.78-.58-1.58-.92-2.35a5.13,5.13,0,0,0-1.83-2.14,2.5,2.5,0,1,0-2.52,4.32c-.58-.41-.3-.23-.14-.08s-.28-.43-.14-.18.22.39.31.6l-.25-.6a35.06,35.06,0,0,0,1.57,3.68,13.38,13.38,0,0,0,.94,1.49,10.19,10.19,0,0,1,1,1.51l-.26-.6a2.05,2.05,0,0,1,.14.5l-.09-.67a1.61,1.61,0,0,1,0,.38l.09-.66,0,.13a2.5,2.5,0,0,0,4.83,1.33Z" transform="translate(-131.18 -56.95)"/><path class="b" d="M170.2,64.5l-.73-.17a1.86,1.86,0,0,0-1,0,1.93,1.93,0,0,0-.93.3,1.88,1.88,0,0,0-.7.64,2,2,0,0,0-.45.85l-.09.67a2.53,2.53,0,0,0,.34,1.26l.39.51a2.48,2.48,0,0,0,1.11.64l.72.18a1.85,1.85,0,0,0,1,0,1.71,1.71,0,0,0,.93-.3,2.8,2.8,0,0,0,1.15-1.49l.09-.66a2.44,2.44,0,0,0-.34-1.27l-.39-.5a2.52,2.52,0,0,0-1.1-.65Z" transform="translate(-131.18 -56.95)"/><path class="b" d="M166.46,70c3.22,0,3.22-5,0-5s-3.22,5,0,5Z" transform="translate(-131.18 -56.95)"/><path class="b" d="M170.06,68.56c3.22,0,3.22-5,0-5s-3.22,5,0,5Z" transform="translate(-131.18 -56.95)"/><path class="b" d="M169.29,68.84a9.41,9.41,0,0,1,1.2.77l-.51-.39a9.56,9.56,0,0,1,1,.9l.5-3.92-.35.16.59-.25a5,5,0,0,1-1.21.33l.66-.09-.39,0a1.89,1.89,0,0,0-1,.21,2.3,2.3,0,0,0-1.32,1.32,2,2,0,0,0-.21,1l.09.66a2.5,2.5,0,0,0,.64,1.1l.51.4a2.53,2.53,0,0,0,1.26.34,11.66,11.66,0,0,0,1.17-.14l.5-.11.49-.16a11.21,11.21,0,0,0,1.07-.47,2.53,2.53,0,0,0,.89-.89,1.86,1.86,0,0,0,.3-.93,2,2,0,0,0,0-1,2.52,2.52,0,0,0-.65-1.1A12.55,12.55,0,0,0,173,65.28a11.28,11.28,0,0,0-1.18-.76,1.85,1.85,0,0,0-.93-.29,1.89,1.89,0,0,0-1,0,1.94,1.94,0,0,0-.85.45,1.87,1.87,0,0,0-.64.7l-.25.6a2.5,2.5,0,0,0,0,1.33l.25.59a2.48,2.48,0,0,0,.89.9Z" transform="translate(-131.18 -56.95)"/><path class="c" d="M141.34,67.57l.11.09-.5-.39a4.37,4.37,0,0,1,.68.68l-.39-.5a4.08,4.08,0,0,1,.52.88l-.25-.6a4,4,0,0,1,.28,1l-.09-.67a4.15,4.15,0,0,1,0,.49,2.62,2.62,0,0,0,.74,1.77,1.83,1.83,0,0,0,.8.51,1.88,1.88,0,0,0,1,.22,2.49,2.49,0,0,0,2.5-2.5,4.15,4.15,0,0,0,0-.49,8.22,8.22,0,0,0-.17-1.09,3.53,3.53,0,0,0-.15-.46,8.85,8.85,0,0,0-.43-1,6.45,6.45,0,0,0-.89-1.25,6.27,6.27,0,0,0-1.2-1,1.85,1.85,0,0,0-.93-.29,1.89,1.89,0,0,0-1,0,1.94,1.94,0,0,0-.85.45,1.88,1.88,0,0,0-.64.7,2.5,2.5,0,0,0-.25,1.93l.25.59a2.43,2.43,0,0,0,.9.9Z" transform="translate(-131.18 -56.95)"/><path class="c" d="M142.45,67.14c-.28,2.61.54,5.12,1.24,7.61a13.13,13.13,0,0,1,.64,3.45,12.21,12.21,0,0,1-.81,3.86c-1.76,5.44-2.21,10.91-.39,16.41,1,3,5.84,1.74,4.82-1.33a19.66,19.66,0,0,1-1-7.46c.14-2.65,1.1-5,1.81-7.57a14.71,14.71,0,0,0,0-7.87c-.6-2.36-1.54-4.62-1.28-7.1a2.51,2.51,0,0,0-2.5-2.5,2.56,2.56,0,0,0-2.5,2.5Z" transform="translate(-131.18 -56.95)"/><path class="c" d="M144.21,97.15c-.93-2.12-2-5-4.79-4.83l1.76,4.27c2.49-2.45,2.46-6.12,1.22-9.17A12.62,12.62,0,0,0,139.78,83a6.8,6.8,0,0,0-1.84-1.27,5.64,5.64,0,0,0-1.37-.45,7.37,7.37,0,0,0-.93-.11c-.32,0-.35,0-.11,0l1.11.64c.28.53.33.59.14.15-.06-.14-.11-.28-.16-.42-.12-.33-.23-.67-.34-1a2.55,2.55,0,0,0-3.07-1.74,2.52,2.52,0,0,0-1.75,3.07c.53,1.66,1.06,3.74,3,4.19a2.43,2.43,0,0,0,.93.07q.47,0,.12,0c.29.1.34.1.16,0l.23.13a2.8,2.8,0,0,1,.94,1,10,10,0,0,1,1.4,3.51,3,3,0,0,1,0,1.28c0,.12-.07.24-.11.36l-.05.1a3.87,3.87,0,0,1-.27.43c.12-.18.08-.16-.11.06-1.49,1.46-.43,4.38,1.77,4.27a1.85,1.85,0,0,1-.8-.38l0,0c.12.2.23.42.33.63.31.68.6,1.37.89,2.06a2.53,2.53,0,0,0,3.43.9,2.57,2.57,0,0,0,.89-3.43Z" transform="translate(-131.18 -56.95)"/><path class="c" d="M140,65l-2.17,2.42a2.54,2.54,0,0,0,1.1,4.18,1.41,1.41,0,0,1-.56-.34c.28.29-.09-.14-.08-.16s.17.27.16.27c-.12-.33-.16-.4-.1-.22a1,1,0,0,1,.05.16.9.9,0,0,1,0,.16c0,.14,0,.11,0-.08s0-.22,0-.08v.35c0,.14,0,.11,0-.08s0-.22,0-.08a1,1,0,0,1,0,.17l-.09.34c-.06.19-.17.46,0,.12-.11.28-.24.54-.37.81A13.89,13.89,0,0,0,137,75a8.8,8.8,0,0,0-.29,2.28c0,.32,0,.65,0,1s.13-.41,0,0l-.11.38c.06-.2.14-.3,0-.07a1.46,1.46,0,0,1,.34-.36c.15-.12.35-.07,0,0,.23,0,.35,0,.07,0-.48-.08.26.11-.05,0-.13,0-.28-.07-.41-.11-.31-.09-.6-.2-.9-.32a2.52,2.52,0,0,0-3.08,1.75,2.59,2.59,0,0,0,1.75,3.08c2,.78,4.48,1,6-.79a5.54,5.54,0,0,0,1.3-3.22c.05-.47,0-.94.05-1.41,0-.06,0-.69,0-.39s.08-.35.11-.44.12-.34.17-.52c-.16.5.07-.14.1-.21.17-.37.35-.73.51-1.1a7.61,7.61,0,0,0,.77-3,4.84,4.84,0,0,0-3.15-4.79l1.1,4.18,2.17-2.43A2.5,2.5,0,0,0,140,65Z" transform="translate(-131.18 -56.95)"/><path class="c" d="M142,72.2a6.62,6.62,0,0,0-2,3.52,14.9,14.9,0,0,0-.33,2.4c0,.36,0,.71-.07,1.06,0,.16,0,.32,0,.47l0,.24c0-.24,0-.28,0-.09a15,15,0,0,1-.49,1.86,6.1,6.1,0,0,0-.57,2.33,4.21,4.21,0,0,0,1.1,2.65c.16.18.34.34.51.51s.28.43.12.1c0-.08-.29-.68-.19-.3a2.5,2.5,0,0,0,4.82-1.33,4.35,4.35,0,0,0-1.1-1.89c-.15-.15-.3-.31-.46-.45s-.15-.15.08.14q-.28-.53.12.57c-.05.6.09-.22.14-.38s.23-.55.32-.84a9.28,9.28,0,0,0,.42-1.65,19.76,19.76,0,0,0,.26-2.17l.06-.94c0-.11.15-1,.05-.51a6.2,6.2,0,0,1,.16-.72,3.58,3.58,0,0,1,.11-.35c.1-.26.09-.23,0,.08a1.58,1.58,0,0,1,.37-.62c-.51.43.13-.07.23-.15a2.51,2.51,0,0,0,0-3.54,2.56,2.56,0,0,0-3.53,0Z" transform="translate(-131.18 -56.95)"/><path class="c" d="M143,82.39a13.69,13.69,0,0,0,.14,5.22A13.53,13.53,0,0,0,144,90c.15.32.32.64.47,1s-.07-.27.06.13c0,.09.16.65.09.2a16.19,16.19,0,0,1,0,2,6.25,6.25,0,0,0,.58,2.66,7.32,7.32,0,0,0,1.47,1.86s.31.37.18.19.19.34.06.08a1.07,1.07,0,0,1,.09.48,2.5,2.5,0,1,0,5,0,6.48,6.48,0,0,0-2-4.53c-.11-.11-.22-.22-.32-.34.15.21.14.2,0-.05.09.24.09.21,0-.06,0,.27,0,.26,0-.05,0-.65,0-1.31,0-2a7.38,7.38,0,0,0-.69-2.73,10.59,10.59,0,0,0-.46-1c-.12-.28-.15-.32-.08-.14-.06-.17-.13-.34-.18-.51a9.32,9.32,0,0,1-.3-1c0-.18-.07-.36-.1-.53,0,.22,0,.17,0-.14s0-.72,0-1.08l0-.54c0-.31,0-.36,0-.14A2.57,2.57,0,0,0,146,80.64c-1.18-.27-2.87.37-3.07,1.75Z" transform="translate(-131.18 -56.95)"/><path class="c" d="M149.1,101.17c.17,0,.59.26.23.07.23.12.46.24.68.38l.28.18s-.26-.24-.07,0l.56.53c.32.32-.08-.18.16.19.14.22.28.44.4.67a4.71,4.71,0,0,0,1,1.51c1.21,1.07,2.95.93,4.46,1a4,4,0,0,0,3.74-1.63,3.21,3.21,0,0,0-1.21-4.37,8.42,8.42,0,0,0-1.61-.67c-.27-.1,0,0,0,0l-.33-.16c-.26-.13-.52-.27-.76-.41L155.9,98l-.3-.22s.24.19,0,0a15.83,15.83,0,0,1-1.29-1.17c-.36-.37-.7-.75-1-1.15L152.9,95l-.13-.18-.39-.54c-.74-1.07-1.43-2.17-2.11-3.28-.33-.53-.64-1.06-.93-1.62,0,0-.18-.43-.06-.13a4.2,4.2,0,0,1-.17-.5c0-.12-.07-.25-.09-.38-.09-.43,0,.55,0-.24a2.5,2.5,0,0,0-5,0c.1,3,1.94,5.51,3.53,7.9a22.85,22.85,0,0,0,5.74,6.22A16.24,16.24,0,0,0,156.9,104c-.31-.14-.35-.14-.1,0-.91-1.77-.79-2.86.34-3.29l.3,0h-.36c-.38,0-.76,0-1.13-.06a4.32,4.32,0,0,0-1.13,0c1.05,1,1.4,1.14,1.07.56l-.09-.19a7.29,7.29,0,0,0-.42-.78A8.77,8.77,0,0,0,154,98.44a9.26,9.26,0,0,0-3.57-2.09,2.51,2.51,0,0,0-3.07,1.74,2.56,2.56,0,0,0,1.74,3.08Z" transform="translate(-131.18 -56.95)"/><path class="c" d="M156.07,96.17c-.77-1.46-1.49-3-2.33-4.38s-2.48-2.54-3.84-3.63a2.74,2.74,0,0,0-1.77-.74,2.54,2.54,0,0,0-1.77.74,2.48,2.48,0,0,0-.73,1.76,2.4,2.4,0,0,0,.73,1.77L148,93a10.06,10.06,0,0,1,1.46,1.31l-.39-.51a18.63,18.63,0,0,1,1.32,2.35l1.34,2.51a2.52,2.52,0,0,0,3.42.9,2.56,2.56,0,0,0,.89-3.42Z" transform="translate(-131.18 -56.95)"/><path class="c" d="M148.53,94.26a10.88,10.88,0,0,0,2.69,4.27,8.17,8.17,0,0,0,2.05,1.65c.78.4,1.63.65,2.44,1l-.6-.25a6,6,0,0,1,1.36.8l-.5-.4c.19.16.37.32.54.49l2.43-4.18q-.34-.12-.69-.27l.6.25a4.89,4.89,0,0,1-1.07-.6l.51.39a10.89,10.89,0,0,1-1.6-1.79l.39.51a25.32,25.32,0,0,1-2.75-4.47,2.48,2.48,0,0,0-3.42-.89,2.53,2.53,0,0,0-1.15,1.49,2.88,2.88,0,0,0,.25,1.93,26.24,26.24,0,0,0,2.67,4.36,16.12,16.12,0,0,0,1.89,2.24,9,9,0,0,0,3,1.67l.67.09a2,2,0,0,0,1-.21,2.46,2.46,0,0,0,1.2-1,2.57,2.57,0,0,0-.4-3,8,8,0,0,0-2-1.49c-.77-.39-1.59-.64-2.39-1l.6.26a5.58,5.58,0,0,1-1.09-.62l.5.39a10.86,10.86,0,0,1-1.81-1.9l.39.51a7.59,7.59,0,0,1-.93-1.55l.25.6c-.07-.19-.14-.38-.2-.57a2.5,2.5,0,0,0-4.82,1.33Z" transform="translate(-131.18 -56.95)"/><path class="c" d="M149.73,74.94c-.15-.54-.29-1.07-.41-1.61l-.15-.77c0-.16-.23-.73-.14-.86-.05.08.05.47,0,.08,0-.13,0-.26,0-.38,0-.3-.06-.59-.08-.88,0-.56,0-1.12,0-1.68a11.42,11.42,0,0,0,0-1.43l-.05.4c.06-.19,0-.18,0,0a1.63,1.63,0,0,1-.67.71.72.72,0,0,1-.52.25c-.2,0-.23,0-.09,0s.22,0,.33,0a6.78,6.78,0,0,0,3.82-1.78,2.51,2.51,0,0,0,.39-3,2.59,2.59,0,0,0-2.83-1.15c-2.46.65-3.12,3.37-3.4,5.57a11.39,11.39,0,0,0,0,2.61c.05.42.1.84.12,1.26,0,.1,0,.5,0,.54.06-.38.07-.42,0-.15a3.37,3.37,0,0,1-.1.34,2.52,2.52,0,0,0,1.74,3.08,2.56,2.56,0,0,0,3.08-1.75c.55-1.59.06-3.18.11-4.81a5.4,5.4,0,0,1,0-.56l0-.18c0-.29,0-.25,0,.1a3.35,3.35,0,0,1,.24-1.1c0-.18.12-.35.16-.53.11-.42-.21.37-.06.12s.36-.43.08-.17a.9.9,0,0,1-.41.36c-.4.13-.47.17-.22.09l-2.43-4.17c-.36.28.31-.22.05-.05l-.33.24-.28.16c-.41.24.33-.06.08,0l-.15,0c-.19,0-.1,0,.26,0a1.24,1.24,0,0,0-.33,0,4.33,4.33,0,0,0-1.73.43c-1.6.8-1.83,2.57-1.84,4.16a27.63,27.63,0,0,0,1,7.83,2.5,2.5,0,1,0,4.82-1.32Z" transform="translate(-131.18 -56.95)"/><path class="c" d="M151.23,72.52c0-.24-.08-.48-.11-.72l.09.66a7.31,7.31,0,0,1-.06-1.75l-.09.67a5.22,5.22,0,0,1,.34-1.23l-.25.6c.39-.9.85-1.75,1.19-2.67a13.09,13.09,0,0,0,.62-2.92,2.47,2.47,0,0,0-.74-1.77,2.5,2.5,0,0,0-3.53,0,2.87,2.87,0,0,0-.73,1.77l0,.14.09-.66a10.42,10.42,0,0,1-.67,2.52l.25-.6a16.47,16.47,0,0,0-1.32,3.2,11.25,11.25,0,0,0,.11,4.09,2.5,2.5,0,0,0,3.08,1.75A2.53,2.53,0,0,0,151,74.45a2.86,2.86,0,0,0,.26-1.93Z" transform="translate(-131.18 -56.95)"/><path class="c" d="M150.8,66.76c3.22,0,3.22-5,0-5s-3.22,5,0,5Z" transform="translate(-131.18 -56.95)"/><path class="d" d="M178.62,77.37H176a20.15,20.15,0,0,0-2.53-6.12l1.83-1.83a1.65,1.65,0,0,0,0-2.33l-4.21-4.21a1.65,1.65,0,0,0-2.33,0L167,64.71a20.19,20.19,0,0,0-6.11-2.53V59.59A1.64,1.64,0,0,0,159.2,58h-6a1.63,1.63,0,0,0-1.64,1.64v2.59a20.15,20.15,0,0,0-6.12,2.53l-1.83-1.83a1.65,1.65,0,0,0-2.33,0l-4.21,4.21a1.65,1.65,0,0,0,0,2.33l1.83,1.83a20.4,20.4,0,0,0-2.53,6.12h-2.59A1.63,1.63,0,0,0,132.18,79v6a1.63,1.63,0,0,0,1.64,1.64h2.59a20.4,20.4,0,0,0,2.53,6.12l-1.83,1.83a1.65,1.65,0,0,0,0,2.33l4.21,4.21a1.65,1.65,0,0,0,2.33,0l1.83-1.83a20.15,20.15,0,0,0,6.12,2.53v2.59a1.63,1.63,0,0,0,1.64,1.64h6a1.64,1.64,0,0,0,1.65-1.64V101.8A20.19,20.19,0,0,0,167,99.27l1.83,1.83a1.65,1.65,0,0,0,2.33,0l4.21-4.21a1.65,1.65,0,0,0,0-2.33l-1.83-1.83A20.15,20.15,0,0,0,176,86.61h2.59A1.64,1.64,0,0,0,180.27,85V79a1.64,1.64,0,0,0-1.65-1.64m-22.4,12.94A8.32,8.32,0,1,1,164.54,82a8.31,8.31,0,0,1-8.32,8.32" transform="translate(-131.18 -56.95)"/></svg>