<svg id="aac58ef0-4b37-442c-85ff-8748453a2add" data-name="Layer 1" xmlns="http://www.w3.org/2000/svg" viewBox="0 0 350 363.54"><title>settingsIcon</title><path d="M157.24,99l-13.55,6.65,12.84,26.16,13.55-6.64a55.31,55.31,0,0,0,10.78,9.48L176,148.9l27.58,9.42L208.44,144a55.48,55.48,0,0,0,14.34-.91l6.64,13.55,26.17-12.84-6.65-13.55a55.41,55.41,0,0,0,9.49-10.78l14.29,4.88,4.71-13.79,4.71-13.79-14.29-4.88a55.48,55.48,0,0,0-.9-14.34L280.5,71,267.66,44.78l-13.55,6.65a55.7,55.7,0,0,0-10.78-9.49l4.88-14.29-13.79-4.71-13.79-4.71-4.88,14.29a55.48,55.48,0,0,0-14.34.9l-6.64-13.55L168.6,32.71l6.65,13.55A55.37,55.37,0,0,0,165.76,57l-14.29-4.88L146.76,66l-4.71,13.79,14.29,4.88A55.48,55.48,0,0,0,157.24,99Zm28.32-13.9a26.67,26.67,0,0,1,3.58-10.47A26.75,26.75,0,0,1,220.74,63a26.86,26.86,0,0,1,5,2.34,26.62,26.62,0,0,1,12.83,26.16,25.91,25.91,0,0,1-1.24,5.43,26.29,26.29,0,0,1-2.34,5,26.81,26.81,0,0,1-6.44,7.35,27.11,27.11,0,0,1-4.73,3,26.63,26.63,0,0,1-15,2.53,26.64,26.64,0,0,1-10.48-3.58,26.68,26.68,0,0,1-12.84-26.17ZM227,215.19l18.36-18.36-35.44-35.44-18.36,18.36a95.46,95.46,0,0,0-22.81-9.46V144.34H118.66v25.95a95.46,95.46,0,0,0-22.81,9.46L77.49,161.39,59.77,179.11,42.05,196.83l18.36,18.36A95.06,95.06,0,0,0,51,238H25v50.11H51a95.06,95.06,0,0,0,9.46,22.81L42.05,329.28,59.77,347l17.72,17.72,18.36-18.36a95.06,95.06,0,0,0,22.81,9.46v25.95h50.11V355.82a95.06,95.06,0,0,0,22.81-9.46l18.36,18.36,35.44-35.44L227,310.92a95.46,95.46,0,0,0,9.46-22.81h26V238h-26A95.46,95.46,0,0,0,227,215.19Zm-38.33,57.4a45.74,45.74,0,0,1-6.46,15.52,45.61,45.61,0,0,1-13.46,13.46A45.93,45.93,0,0,1,105.2,238a45.61,45.61,0,0,1,13.46-13.46,45.78,45.78,0,0,1,50.11,0A45.61,45.61,0,0,1,182.23,238a45.84,45.84,0,0,1,6.46,34.59Zm173-77.1a51.74,51.74,0,0,0-.48-13.48l12.89-5.89-11.38-24.89-12.89,5.89a51.68,51.68,0,0,0-9.88-9.18l4.95-13.29-12.83-4.77-12.82-4.78-4.95,13.29a52.2,52.2,0,0,0-13.48.48L295,126l-24.89,11.39L276,150.25a52.94,52.94,0,0,0-9.18,9.88l-13.28-4.95-9.55,25.65,13.28,4.95a52.63,52.63,0,0,0,.48,13.48l-12.88,5.89L256.2,230l12.88-5.89a52.28,52.28,0,0,0,9.88,9.18L274,246.62l12.82,4.77,12.83,4.78,4.94-13.29a52.16,52.16,0,0,0,13.48-.48L324,255.29l24.89-11.38L343,231a52.28,52.28,0,0,0,9.18-9.88l13.29,5L375,200.44Zm-27.42-1.16a24.88,24.88,0,0,1-3.63,9.74,24.88,24.88,0,0,1-10.75,9.4,25.49,25.49,0,0,1-5,1.67,25.1,25.1,0,0,1-9.17.32,25.3,25.3,0,0,1-9.74-3.63,24.93,24.93,0,0,1-6.73-6.24,25.28,25.28,0,0,1-2.67-4.51,25.72,25.72,0,0,1-1.67-5,25.34,25.34,0,0,1,1-14.23,25.49,25.49,0,0,1,2.32-4.68,25.17,25.17,0,0,1,6.25-6.74A24.89,24.89,0,0,1,299,167.8a25.4,25.4,0,0,1,5-1.67,25.11,25.11,0,0,1,9.17-.32,25.27,25.27,0,0,1,9.75,3.63,25.09,25.09,0,0,1,6.73,6.24,25.15,25.15,0,0,1,4.33,9.48A25.11,25.11,0,0,1,334.29,194.33Z" transform="translate(-25 -18.23)"/></svg>