<svg xmlns="http://www.w3.org/2000/svg" viewBox="0 0 66.96 50.09"><defs><style>.a,.c{fill:#fbcb67;}.a,.d{stroke:#031d28;stroke-miterlimit:10;stroke-width:2px;}.b{fill:#fff;}.d{fill:none;}</style></defs><title>settingsIcon</title><path class="a" d="M217.59,63.72h-1.82a14.07,14.07,0,0,0-1.78-4.3l1.29-1.28a1.15,1.15,0,0,0,0-1.63l-3-3a1.15,1.15,0,0,0-1.63,0l-1.29,1.28a14,14,0,0,0-4.29-1.77V51.24A1.16,1.16,0,0,0,204,50.08h-4.18a1.16,1.16,0,0,0-1.16,1.16v1.82a14,14,0,0,0-4.29,1.77l-1.28-1.28a1.16,1.16,0,0,0-1.64,0l-3,3a1.15,1.15,0,0,0,0,1.63l1.29,1.28a14.32,14.32,0,0,0-1.78,4.3h-1.81A1.15,1.15,0,0,0,185,64.87v4.18a1.16,1.16,0,0,0,1.16,1.16H188a14.37,14.37,0,0,0,1.78,4.29l-1.29,1.28a1.16,1.16,0,0,0,0,1.64l3,3a1.16,1.16,0,0,0,1.64,0l1.28-1.28a14.26,14.26,0,0,0,4.29,1.78v1.81a1.16,1.16,0,0,0,1.16,1.16H204a1.16,1.16,0,0,0,1.15-1.16V80.87a14.26,14.26,0,0,0,4.29-1.78l1.29,1.28a1.15,1.15,0,0,0,1.63,0l3-3a1.16,1.16,0,0,0,0-1.64L214,74.5a14.11,14.11,0,0,0,1.78-4.29h1.82a1.15,1.15,0,0,0,1.15-1.16V64.87a1.14,1.14,0,0,0-1.15-1.15M201.87,72.8A5.84,5.84,0,1,1,207.71,67a5.84,5.84,0,0,1-5.84,5.84" transform="translate(-152.78 -48.31)"/><path class="b" d="M183,64.29c.38.09.36.06-.06-.06s-.36-.25-.07,0a5.77,5.77,0,0,0,.9,1c.31.26.64.51,1,.76s.31.2,0-.07c-.79-.81-1-1.57-.54-2.3-.18.37-.17.36,0,0l1.54-.9.49-.1,1.77.48-.18-.11,1.25,1.26L189,64.1a3.52,3.52,0,0,0-4.79-1.25A3.58,3.58,0,0,0,183,67.64a4,4,0,0,0,6.21,1A5.92,5.92,0,0,0,191,63.78a4.45,4.45,0,0,0-1.21-2.66,6.84,6.84,0,0,0-1-.83c-.67-.46.36.51-.26-.21a6.51,6.51,0,0,0-3.62-2.54A3.58,3.58,0,0,0,180.55,60c-.39,1.72.52,4,2.45,4.31Z" transform="translate(-152.78 -48.31)"/><path class="b" d="M189.36,64.44a8.53,8.53,0,0,0,3.89-3.87l-6-3.53-.31.4,2.48-1a5.28,5.28,0,0,1-4.53-1.69l-4.24,5.49a12.6,12.6,0,0,0,2.6,1.29l2.69-6.4c-4.12-1.24-3.86-6-9.1-5.45a5.34,5.34,0,0,0-3.8,2.18c-.54.6-2.44,3-.62,1.71-.53.37-1.46.27-2.09.71a3.62,3.62,0,0,0-1.61,4c1.68,5.39,5.54,8.68,11.14,6.38,5.32-2.2,2.23-7.52-1-9.88l1.61,3.95c-.26,1.49-3,1.41.09,2,1.57.33,1.85.95,1.4-1.14l.9-3.41c-2.09,2.6-5,4.9-1.82,8.16v-5l-.68.57a3.52,3.52,0,0,0,.71,5.49,10.19,10.19,0,0,1,5,4.34A3.6,3.6,0,0,0,190,71.37c3-.76,3.54-3.07,4.3-5.74l-5.14,2.09.76.52c2.17,1.47,5.37-.47,5.26-3a10.06,10.06,0,0,0,0-2.74l-2.48,1,.38,0c3.7.11,4.46-4.67,1.77-6.53l-.48-.61a3.55,3.55,0,0,0-6.4.84c-.31.89-2,2.16-2.48,3.49-.9,2.74-.32,5.69,0,8.48.69,6.11-.08,13.93-8.25,12-3.69-.86-6.43,4.59-2.7,6.39.73.36,4.61,1.76,4.75,2.44a3.52,3.52,0,0,0,3.37,2.57A7.59,7.59,0,0,0,189.34,88c1.14-3.47-1.74-5.32-4.65-6.13L186.78,87c1.51-2.83,4.62-4.44,6.18-7.47l-6.39-.83c.75,3.29-1.43,5.7.08,9.15a7.91,7.91,0,0,0,4.29,4.29,3.56,3.56,0,0,0,3.41-.9,6.52,6.52,0,0,0,2.26-4.29,11.88,11.88,0,0,0-.44-2.05,11.84,11.84,0,0,1,.49-5.23,20,20,0,0,0,.88-7.21c-.24-2.5-1.82-4.67-1.73-7.15l-6.88.93c.77,2.83,1,7.44,3.7,9.26,2.33,1.59,5.42.79,7.62-.54l-5.14-4a20,20,0,0,0-.37,3.62l1.73-3a13.81,13.81,0,0,0-3.16,1.82l5.27,3c0-7.93-8.73-2.15-11.51-.09a62.93,62.93,0,0,0-4.91,4.33c-1.52,1.38-2.87,2.66-2.36,4.93,1.44,6.28,8.23,2,10.73-.62,3.83-4,8.17-9.55,4.8-15.12-2.34-3.85-8.39-.33-6.05,3.53,1.56,2.58-5.05,8.19-6.76,9.06l2.7-.35,1,.8.35,2.7c-.83,2.23,1.42-.37,2.11-1.09,1.87-2,4.27-4.5,6.87-5.54l-2.7-.35.48.32-1.73-3v.51c0,2.42,3.07,4.68,5.27,3A13.29,13.29,0,0,1,200,77.63a3.42,3.42,0,0,0,1.73-3l.12-1.76c.51-2.86-2.33-5.64-5.14-3.95.29-.18-.7-3.3-1-4.54-1.05-3.88-6.73-3-6.87.93-.16,4.38,2.45,7.48,1.31,11.9-1,4-1.39,6.57-.39,10.67l.36-2.7a3.05,3.05,0,0,1-.69,1.11l3.4-.9c.41.16.68-7.83.52-8.55-.66-2.87-5-3.49-6.4-.84-1.57,3-4.6,4.49-6.18,7.47a3.54,3.54,0,0,0,2.09,5.14l-.06-1,.35-2.69c-.89.64-1.06.9-.49.76L186,88.19c-.8-4-4.71-5-8-6.62L175.35,88c6.7,1.55,13.93-.9,16.58-7.85,1.23-3.25,1-6.68.63-10.07-.27-2.65-1.11-5.4.16-7.94.55-1.1,1.52-1.7,2-3l-6.4.84a8.62,8.62,0,0,0,3,3.12l1.76-6.52c-4.4-.14-5,5.44-4.9,8.7l5.27-3-.76-.51c-1.91-1.29-4.55,0-5.14,2.09-.67,1.16-.48,1.44.59.85l3.95,1.6a16.3,16.3,0,0,0-7.51-6.84l.7,5.5.68-.57a3.54,3.54,0,0,0,0-5l-.39-.4,1,2.47v-.6l-1,2.48c1.57-1.78,3.66-2.9,3.11-5.61-.38-1.88-1.7-2.68-3.37-3.28-3.22-1.15-10.73-2.82-11.62,2.38a3.68,3.68,0,0,0,1.6,4c.56.59.7.41.44-.55l2.44-2.44a8.93,8.93,0,0,1-3.18.6l2.48,1a13.08,13.08,0,0,1-2-3l-1.6,3.95c-.59.42-1.29.49,0,.11a6,6,0,0,0,1.75-.88c1.42-1,2.16-2.75,3.47-3.87l-2.48,1a3.56,3.56,0,0,1,1.71.16l-2.44-2.44c1.13,4.35,4.08,6.22,8.22,7.46,3.7,1.12,6.41-4.82,2.7-6.39a12.28,12.28,0,0,1-2.59-1.29c-3.34-1.91-7.38,2.86-4.25,5.5s10.86,6.67,13.35.89c1.73-4-3.88-7.62-6-3.53l-1.38,1.36c-4,2.08-.47,8.12,3.53,6Z" transform="translate(-152.78 -48.31)"/><path class="b" d="M179.51,51.08a2.56,2.56,0,0,0,.2.26l0,.07.12.11a2.49,2.49,0,0,0,.47.33.85.85,0,0,0,.38.12.78.78,0,0,0,.4,0,1.08,1.08,0,0,0,.59-.46l.1-.24a1,1,0,0,0,0-.53l-.1-.24a1,1,0,0,0-.36-.36l-.23-.14.2.15a1.58,1.58,0,0,1-.23-.22l.16.2,0,0a.84.84,0,0,0-.25-.28.73.73,0,0,0-.35-.18.86.86,0,0,0-.39,0,.85.85,0,0,0-.38.12l-.2.16a1,1,0,0,0-.26.44l0,.27a1,1,0,0,0,.14.5Z" transform="translate(-152.78 -48.31)"/><path class="c" d="M166.28,64.62c5.79,0,5.8-9,0-9s-5.8,9,0,9Z" transform="translate(-152.78 -48.31)"/><path class="c" d="M164.93,64.53c5.79,0,5.8-9,0-9s-5.8,9,0,9Z" transform="translate(-152.78 -48.31)"/><path class="c" d="M164.57,63.63c5.79,0,5.8-9,0-9s-5.8,9,0,9Z" transform="translate(-152.78 -48.31)"/><path class="c" d="M163.22,65.25c5.79,0,5.8-9,0-9s-5.8,9,0,9Z" transform="translate(-152.78 -48.31)"/><path class="c" d="M160.25,61a9.91,9.91,0,0,1,.27,2.9c.24-1-.57.35-.92.85-1.34,1.9-.82,3.35-3.2,4.15-4.47,1.51-4.05,7,0,8.68a53.8,53.8,0,0,1,3.45,4.4c.89,1.75.05,1.91-.87,4.42-2,5.45,6.69,7.79,8.68,2.4,1.57-4.27,2-8.47-.89-12.49-2.11-3-4.16-5.84-8-7.41V77.6c4.39-1.48,5.79-3.19,7.83-6.81.57-1,2-2.16,2.51-3.62.69-2,.35-4.16.12-6.15-.68-5.68-9.68-5.75-9,0Z" transform="translate(-152.78 -48.31)"/><path class="c" d="M165.12,90.14a4.24,4.24,0,0,0,2.65,2.06,6,6,0,0,0,2.86,0,3.51,3.51,0,0,0,.84-6.4l-.84-.35a3.46,3.46,0,0,0-1.86,0l-.33.06.93-.13a2,2,0,0,1-.54,0l.93.12-.26-.07.84.35-.23-.13.71.54-.12-.12.55.71a.8.8,0,0,1-.08-.16,3.52,3.52,0,0,0-2.1-1.6,3.56,3.56,0,0,0-2.69.35,3.51,3.51,0,0,0-1.61,2.09l-.13.93a3.67,3.67,0,0,0,.48,1.77Z" transform="translate(-152.78 -48.31)"/><path class="c" d="M171.33,91.26c-2.52.44.2.21.95,1.37.38.59.14,2,.85,2.89,1.68,2,4.14,2.08,6.47,1.35l-4.43-3.38.06.6c.46,4.4,7.37,4.53,7,0-.42-5.12-6.33-6-8.78-9.9-4.2-6.69-3.76-12.88-2.79-20.4.58-4.45-6.43-4.41-7,0a79.1,79.1,0,0,0-1,11c.05,3.11,1.19,5.3,2.47,8.11,1.13,2.47,2,5.26,3.92,7.26,2.09,2.19,5,3.49,7.1,5.67l-1-2.48.06.78h7l-.06-.6c-.23-2.15-2.07-4.12-4.43-3.37,1-.31-.09-1.74-1-2.69-.49-.52-3.36-2.44-1-.56-2.29-1.79-3.12-2.91-6.32-2.36-4.43.77-2.55,7.52,1.86,6.75Z" transform="translate(-152.78 -48.31)"/><path class="c" d="M167.08,62.53a1,1,0,0,1-.51-.3c.28.29.3.29.07,0,.06.08.52.87.32.44a2.89,2.89,0,0,1,.25,2.06,3.51,3.51,0,0,0,3.5,3.5,3.59,3.59,0,0,0,3.5-3.5,8.59,8.59,0,0,0-5.27-8.94,3.52,3.52,0,0,0-4.31,2.44,3.61,3.61,0,0,0,2.45,4.31Z" transform="translate(-152.78 -48.31)"/><path class="c" d="M181.54,87.43a44.21,44.21,0,0,1-5.06-4,14.71,14.71,0,0,0-5.36-3.72c-1.75-.7-3.84.76-4.3,2.44a3.59,3.59,0,0,0,2.44,4.31c1.53.61,2.64,2.34,3.92,3.34,1.59,1.24,3.22,2.43,4.83,3.65s3.91.24,4.79-1.26c1-1.79.26-3.64-1.26-4.79Z" transform="translate(-152.78 -48.31)"/><path class="d" d="M200.22,68.73h-2.59a20.15,20.15,0,0,0-2.53-6.12l1.83-1.83a1.65,1.65,0,0,0,0-2.33l-4.21-4.21a1.65,1.65,0,0,0-2.33,0l-1.83,1.83a20.19,20.19,0,0,0-6.11-2.53V51a1.64,1.64,0,0,0-1.65-1.64h-6A1.63,1.63,0,0,0,173.2,51v2.59a20.15,20.15,0,0,0-6.12,2.53l-1.83-1.83a1.65,1.65,0,0,0-2.33,0l-4.21,4.21a1.65,1.65,0,0,0,0,2.33l1.83,1.83A20.4,20.4,0,0,0,158,68.73h-2.59a1.63,1.63,0,0,0-1.64,1.64v6A1.63,1.63,0,0,0,155.42,78H158a20.4,20.4,0,0,0,2.53,6.12l-1.83,1.83a1.65,1.65,0,0,0,0,2.33l4.21,4.21a1.65,1.65,0,0,0,2.33,0l1.83-1.83a20.15,20.15,0,0,0,6.12,2.53v2.59a1.63,1.63,0,0,0,1.64,1.64h6a1.64,1.64,0,0,0,1.65-1.64V93.16a20.19,20.19,0,0,0,6.11-2.53l1.83,1.83a1.65,1.65,0,0,0,2.33,0l4.21-4.21a1.65,1.65,0,0,0,0-2.33l-1.83-1.83A20.15,20.15,0,0,0,197.63,78h2.59a1.64,1.64,0,0,0,1.65-1.64v-6a1.64,1.64,0,0,0-1.65-1.64m-22.4,12.94a8.32,8.32,0,1,1,8.32-8.32,8.31,8.31,0,0,1-8.32,8.32" transform="translate(-152.78 -48.31)"/></svg>