<?xml version="1.0" encoding="utf-8"?>
<!-- Generator: Adobe Illustrator 24.0.1, SVG Export Plug-In . SVG Version: 6.00 Build 0)  -->
<svg version="1.1" id="Layer_1" xmlns="http://www.w3.org/2000/svg" xmlns:xlink="http://www.w3.org/1999/xlink" x="0px" y="0px"
	 viewBox="0 0 67 50.1" style="enable-background:new 0 0 67 50.1;" xml:space="preserve">
<style type="text/css">
	.st0vsdsbbbfx{fill:#9475F4;stroke:#031D28;stroke-width:2;stroke-miterlimit:10;}
	.st1cascce3rr{fill:#FFFFFF;}
	.st2cascsdvv{fill:#9475F4;}
	.st3adaffv{fill:none;stroke:#031D28;stroke-width:2;stroke-miterlimit:10;}
</style>
<title>settingsIcon</title>
<path class="st0vsdsbbbfx" d="M64.8,15.4H63c-0.4-1.5-1-3-1.8-4.3l1.3-1.3c0.5-0.4,0.5-1.2,0-1.6c0,0,0,0,0,0l-3-3c-0.4-0.5-1.2-0.5-1.6,0
	c0,0,0,0,0,0l-1.3,1.3c-1.3-0.8-2.8-1.4-4.3-1.8V2.9c0-0.6-0.5-1.1-1.1-1.2H47c-0.6,0-1.2,0.5-1.2,1.2v0v1.8c-1.5,0.3-3,0.9-4.3,1.8
	l-1.3-1.3c-0.5-0.5-1.2-0.5-1.6,0l-3,3c-0.5,0.4-0.5,1.2,0,1.6c0,0,0,0,0,0l1.3,1.3c-0.8,1.3-1.4,2.8-1.8,4.3h-1.8
	c-0.6,0-1.1,0.5-1.2,1.1v4.2c0,0.6,0.5,1.2,1.2,1.2l0,0h1.8c0.4,1.5,1,3,1.8,4.3l-1.3,1.3c-0.5,0.5-0.5,1.2,0,1.6l3,3
	c0.5,0.5,1.2,0.5,1.6,0l1.3-1.3c1.3,0.8,2.8,1.4,4.3,1.8v1.8c0,0.6,0.5,1.2,1.2,1.2l0,0h4.1c0.6,0,1.2-0.5,1.1-1.2v-1.9
	c1.5-0.4,3-1,4.3-1.8l1.3,1.3c0.4,0.5,1.2,0.5,1.6,0c0,0,0,0,0,0l3-3c0.5-0.5,0.5-1.2,0-1.6l-1.4-1.2c0.8-1.3,1.4-2.8,1.8-4.3h1.8
	c0.6,0,1.2-0.5,1.2-1.1c0,0,0,0,0,0v-4.2C66,15.9,65.5,15.4,64.8,15.4C64.8,15.4,64.8,15.4,64.8,15.4 M49.1,24.5
	c-3.2,0-5.8-2.6-5.8-5.8c0-3.2,2.6-5.8,5.8-5.8c3.2,0,5.8,2.6,5.8,5.8c0,0,0,0,0,0C54.9,21.9,52.3,24.5,49.1,24.5"/>
<path class="st1cascce3rr" d="M30.2,16C30.6,16.1,30.6,16,30.2,16c-0.5-0.2-0.4-0.3-0.1-0.1c0.3,0.4,0.6,0.7,0.9,1c0.3,0.3,0.6,0.5,1,0.8
	s0.3,0.2,0-0.1c-0.8-0.8-1-1.6-0.5-2.3c-0.2,0.4-0.2,0.4,0,0l1.5-0.9l0.5-0.1l1.8,0.5l-0.2-0.1l1.3,1.3l-0.1-0.2
	c-1-1.7-3.1-2.2-4.8-1.3c-1.6,1-2.1,3.1-1.2,4.8c1.1,1.9,3.5,2.6,5.4,1.6c0.3-0.2,0.5-0.3,0.8-0.6c1.3-1.3,2-3.1,1.8-4.9
	c-0.1-1-0.5-1.9-1.2-2.7c-0.3-0.3-0.6-0.6-1-0.8c-0.7-0.5,0.4,0.5-0.3-0.2c-0.9-1.2-2.2-2.1-3.6-2.5c-1.9-0.5-3.8,0.6-4.4,2.5
	C27.4,13.4,28.3,15.7,30.2,16L30.2,16z"/>
<path class="st1cascce3rr" d="M36.6,16.1c1.7-0.8,3.1-2.2,3.9-3.9l-6-3.5l-0.3,0.4l2.5-1c-1.7,0.2-3.4-0.4-4.5-1.7l-4.2,5.5
	c0.8,0.5,1.7,1,2.6,1.3l2.7-6.4c-4.1-1.2-3.9-6-9.1-5.5c-1.5,0.1-2.9,0.9-3.8,2.2c-0.5,0.6-2.4,3-0.6,1.7c-0.5,0.4-1.5,0.3-2.1,0.7
	c-1.4,0.8-2,2.5-1.6,4c1.7,5.4,5.5,8.7,11.1,6.4c5.3-2.2,2.2-7.5-1-9.9l1.6,4c-0.3,1.5-3,1.4,0.1,2c1.6,0.3,1.9,1,1.4-1.1l0.9-3.4
	c-2.1,2.6-5,4.9-1.8,8.2v-5l-0.7,0.6c-1.4,1.4-1.3,3.6,0,5c0.2,0.2,0.4,0.4,0.7,0.5c2.1,0.8,3.9,2.4,5,4.3c0.8,1.3,2.4,2,3.9,1.6
	c3-0.8,3.5-3.1,4.3-5.7l-5.1,2.1l0.8,0.5c2.2,1.5,5.4-0.5,5.3-3c0.1-0.9,0.1-1.8,0-2.7l-2.5,1h0.4c3.7,0.1,4.5-4.7,1.8-6.5L41.6,8
	c-1-1.7-3.2-2.2-4.9-1.1c-0.7,0.5-1.3,1.1-1.5,2c-0.3,0.9-2,2.2-2.5,3.5c-0.9,2.7-0.3,5.7,0,8.5c0.7,6.1-0.1,13.9-8.3,12
	c-3.7-0.9-6.4,4.6-2.7,6.4c0.7,0.4,4.6,1.8,4.8,2.4c0.4,1.5,1.8,2.6,3.4,2.6c2.9-0.1,5.5-1.9,6.7-4.6c1.1-3.5-1.7-5.3-4.6-6.1
	l2.1,5.1c1.5-2.8,4.6-4.4,6.2-7.5l-6.4-0.8c0.8,3.3-1.4,5.7,0.1,9.2c0.8,1.9,2.3,3.5,4.3,4.3c1.2,0.3,2.5,0,3.4-0.9
	c1.3-1.1,2.1-2.6,2.3-4.3c-0.1-0.7-0.2-1.4-0.4-2.1c-0.2-1.8-0.1-3.5,0.5-5.2c0.7-2.3,1-4.8,0.9-7.2c-0.2-2.5-1.8-4.7-1.7-7.2
	l-6.9,0.9c0.8,2.8,1,7.4,3.7,9.3c2.3,1.6,5.4,0.8,7.6-0.5l-5.1-4c-0.2,1.2-0.4,2.4-0.4,3.6l1.7-3c-1.1,0.5-2.2,1.1-3.2,1.8l5.3,3
	c0-7.9-8.7-2.2-11.5-0.1c-1.7,1.4-3.3,2.8-4.9,4.3c-1.5,1.4-2.9,2.7-2.4,4.9c1.4,6.3,8.2,2,10.7-0.6c3.8-4,8.2-9.6,4.8-15.1
	c-2.3-3.8-8.4-0.3-6.1,3.5c1.6,2.6-5.1,8.2-6.8,9.1l2.7-0.3l1,0.8l0.4,2.7c-0.8,2.2,1.4-0.4,2.1-1.1c1.9-2,4.3-4.5,6.9-5.5l-2.7-0.3
	l0.5,0.3l-1.7-3v0.5c0,2.4,3.1,4.7,5.3,3c1-0.7,2-1.3,3.1-1.8c1.1-0.6,1.7-1.8,1.7-3l0.1-1.8c0.5-2.9-2.3-5.6-5.1-3.9
	c0.3-0.2-0.7-3.3-1-4.5c-1.1-3.9-6.7-3-6.9,0.9c-0.2,4.4,2.4,7.5,1.3,11.9c-1,4-1.4,6.6-0.4,10.7l0.4-2.7c-0.1,0.4-0.4,0.8-0.7,1.1
	l3.4-0.9c0.4,0.2,0.7-7.8,0.5-8.6c-0.7-2.9-5-3.5-6.4-0.8c-1.6,3-4.6,4.5-6.2,7.5c-1,1.7-0.4,3.9,1.3,4.8c0.2,0.1,0.5,0.2,0.7,0.3
	l-0.1-1l0.4-2.7c-0.9,0.6-1.1,0.9-0.5,0.8l3.3,2.5c-0.8-4-4.7-5-8-6.6l-2.6,6.4c6.7,1.6,13.9-0.9,16.6-7.8c1.2-3.3,1-6.7,0.6-10.1
	c-0.3-2.7-1.1-5.4,0.2-7.9c0.6-1.1,1.5-1.7,2-3l-6.4,0.8c0.7,1.3,1.8,2.4,3,3.1l1.8-6.5c-4.4-0.1-5,5.4-4.9,8.7l5.3-3l-0.8-0.5
	c-1.9-1.3-4.6,0-5.1,2.1c-0.7,1.2-0.5,1.4,0.6,0.8l3.9,1.6c-1.7-3-4.3-5.4-7.5-6.8l0.7,5.5l0.7-0.6c1.4-1.4,1.4-3.6,0-5l-0.4-0.4
	l1,2.5v-0.6l-1,2.5c1.6-1.8,3.7-2.9,3.1-5.6c-0.4-1.9-1.7-2.7-3.4-3.3C29.3,5,21.8,3.3,20.9,8.5c-0.4,1.5,0.3,3.2,1.6,4
	c0.6,0.6,0.7,0.4,0.4-0.5l2.4-2.4c-1,0.4-2.1,0.6-3.2,0.6l2.5,1c-0.8-0.9-1.5-1.9-2-3l-1.6,4c-0.6,0.4-1.3,0.5,0,0.1
	c0.6-0.2,1.2-0.5,1.8-0.9c1.4-1,2.2-2.8,3.5-3.9l-2.5,1c0.6-0.1,1.2,0,1.7,0.2l-2.4-2.4c1.1,4.3,4.1,6.2,8.2,7.5
	c3.7,1.1,6.4-4.8,2.7-6.4c-0.9-0.3-1.8-0.8-2.6-1.3c-3.3-1.9-7.4,2.9-4.3,5.5s10.9,6.7,13.4,0.9c1.7-4-3.9-7.6-6-3.5l-1.4,1.4
	c-4,2.1-0.5,8.1,3.5,6L36.6,16.1z"/>
<path class="st1cascce3rr" d="M26.7,2.8c0.1,0.1,0.1,0.2,0.2,0.3v0.1L27,3.2c0.1,0.1,0.3,0.2,0.5,0.3c0.1,0.1,0.2,0.1,0.4,0.1
	c0.1,0,0.3,0,0.4,0c0.2-0.1,0.5-0.2,0.6-0.5L29,3c0-0.2,0-0.4,0-0.5l-0.1-0.2c-0.1-0.1-0.2-0.3-0.4-0.4l-0.2-0.1l0.2,0.2
	c-0.1-0.1-0.2-0.1-0.2-0.2l0.2,0.2l0,0c-0.1-0.1-0.1-0.2-0.3-0.3c-0.1-0.1-0.2-0.2-0.4-0.2c-0.1,0-0.3,0-0.4,0
	c-0.1,0-0.3,0.1-0.4,0.1l-0.2,0.2c-0.1,0.1-0.2,0.3-0.3,0.4v0.3C26.6,2.5,26.7,2.7,26.7,2.8L26.7,2.8z"/>
<path class="st2cascsdvv" d="M13.5,16.3c5.8,0,5.8-9,0-9S7.7,16.3,13.5,16.3z"/>
<path class="st2cascsdvv" d="M12.1,16.2c5.8,0,5.8-9,0-9S6.3,16.2,12.1,16.2z"/>
<path class="st2cascsdvv" d="M11.8,15.3c5.8,0,5.8-9,0-9S6,15.3,11.8,15.3z"/>
<path class="st2cascsdvv" d="M10.4,16.9c5.8,0,5.8-9,0-9S4.6,16.9,10.4,16.9z"/>
<path class="st2cascsdvv" d="M7.5,12.7c0.2,0.9,0.3,1.9,0.3,2.9c0.2-1-0.6,0.3-0.9,0.8c-1.3,1.9-0.8,3.3-3.2,4.2c-4.5,1.5-4.1,7,0,8.7
	c1.2,1.4,2.4,2.9,3.4,4.4c0.9,1.8,0.1,1.9-0.9,4.4c-2,5.4,6.7,7.8,8.7,2.4c1.6-4.3,2-8.5-0.9-12.5c-2.1-3-4.2-5.8-8-7.4v8.7
	c4.4-1.5,5.8-3.2,7.8-6.8c0.6-1,2-2.2,2.5-3.6c0.7-2,0.4-4.2,0.1-6.2C15.8,7,6.8,7,7.5,12.7L7.5,12.7z"/>
<path class="st2cascsdvv" d="M12.3,41.8c0.6,1,1.5,1.8,2.6,2.1c0.9,0.2,1.9,0.2,2.9,0c1.9-0.5,3-2.5,2.4-4.3c-0.2-0.9-0.8-1.6-1.6-2.1
	l-0.8-0.3c-0.6-0.2-1.3-0.2-1.9,0l-0.3,0.1l0.9-0.1c-0.2,0-0.4,0-0.5,0l0.9,0.1l-0.3-0.1l0.8,0.3l-0.2-0.1l0.7,0.5l-0.1-0.1l0.6,0.7
	c0-0.1-0.1-0.1-0.1-0.2c-0.5-0.8-1.2-1.4-2.1-1.6c-0.9-0.2-1.9-0.1-2.7,0.3c-0.8,0.5-1.4,1.2-1.6,2.1l-0.1,0.9
	C11.9,40.7,12,41.3,12.3,41.8L12.3,41.8z"/>
<path class="st2cascsdvv" d="M18.6,42.9c-2.5,0.4,0.2,0.2,0.9,1.4c0.4,0.6,0.1,2,0.9,2.9c1.7,2,4.1,2.1,6.5,1.3l-4.4-3.4l0.1,0.6
	c0.5,4.4,7.4,4.5,7,0c-0.4-5.1-6.3-6-8.8-9.9c-4.2-6.7-3.8-12.9-2.8-20.4c0.6-4.5-6.4-4.4-7,0c-0.6,3.6-0.9,7.3-1,11
	c0.1,3.1,1.2,5.3,2.5,8.1c1.1,2.5,2,5.3,3.9,7.3c2.1,2.2,5,3.5,7.1,5.7l-1-2.5l0.1,0.8h7l-0.1-0.6c-0.2-2.2-2.1-4.1-4.4-3.4
	c1-0.3-0.1-1.7-1-2.7c-0.5-0.5-3.4-2.4-1-0.6c-2.3-1.8-3.1-2.9-6.3-2.4C12.2,37,14.1,43.8,18.6,42.9L18.6,42.9z"/>
<path class="st2cascsdvv" d="M14.3,14.2c-0.2,0-0.4-0.2-0.5-0.3c0.3,0.3,0.3,0.3,0.1,0c0.1,0.1,0.5,0.9,0.3,0.4c0.3,0.6,0.4,1.4,0.3,2.1
	c0,1.9,1.6,3.5,3.5,3.5c1.9,0,3.5-1.6,3.5-3.5c0.4-3.8-1.7-7.5-5.3-8.9c-1.9-0.5-3.8,0.6-4.3,2.4C11.4,11.8,12.5,13.7,14.3,14.2
	L14.3,14.2z"/>
<path class="st2cascsdvv" d="M28.8,39.1c-1.8-1.2-3.5-2.5-5.1-4c-1.5-1.6-3.3-2.9-5.4-3.7c-1.8-0.7-3.8,0.8-4.3,2.4
	c-0.5,1.9,0.6,3.8,2.4,4.3c1.5,0.6,2.6,2.3,3.9,3.3c1.6,1.2,3.2,2.4,4.8,3.7s3.9,0.2,4.8-1.3C31,42.1,30.3,40.2,28.8,39.1L28.8,39.1
	z"/>
<path class="st3adaffv" d="M47.4,20.4h-2.6c-0.5-2.2-1.4-4.2-2.5-6.1l1.8-1.8c0.6-0.6,0.6-1.7,0-2.3l-4.2-4.2c-0.6-0.6-1.7-0.6-2.3,0
	l-1.8,1.8c-1.9-1.2-3.9-2-6.1-2.5V2.7C29.7,1.8,28.9,1,28,1c0,0,0,0,0,0h-6c-0.9,0-1.6,0.7-1.6,1.6v2.6c-2.2,0.5-4.2,1.4-6.1,2.5
	L12.5,6c-0.6-0.6-1.7-0.6-2.3,0l-4.2,4.2c-0.6,0.6-0.6,1.7,0,2.3l1.8,1.8c-1.2,1.9-2,3.9-2.5,6.1H2.6C1.7,20.4,1,21.1,1,22
	c0,0,0,0,0,0v6c0,0.9,0.7,1.6,1.6,1.6c0,0,0,0,0,0h2.6c0.5,2.2,1.4,4.2,2.5,6.1l-1.8,1.8c-0.6,0.6-0.6,1.7,0,2.3l4.2,4.2
	c0.6,0.6,1.7,0.6,2.3,0l1.8-1.8c1.9,1.2,4,2,6.1,2.5v2.6c0,0.9,0.7,1.6,1.6,1.6c0,0,0,0,0,0h6c0.9,0,1.6-0.7,1.6-1.6c0,0,0,0,0,0
	v-2.6c2.2-0.5,4.2-1.4,6.1-2.5l1.8,1.8c0.6,0.6,1.7,0.6,2.3,0l4.2-4.2c0.6-0.6,0.6-1.7,0-2.3l-1.8-1.8c1.2-1.9,2-3.9,2.5-6.1h2.6
	c0.9,0,1.6-0.7,1.6-1.6c0,0,0,0,0,0v-6C49.1,21.1,48.4,20.4,47.4,20.4C47.4,20.4,47.4,20.4,47.4,20.4 M25,33.3
	c-4.6,0-8.3-3.7-8.3-8.3s3.7-8.3,8.3-8.3c4.6,0,8.3,3.7,8.3,8.3C33.4,29.6,29.6,33.3,25,33.3C25.1,33.4,25,33.4,25,33.3"/>
</svg>
