<svg id="fe8920b4-ea0e-4b57-9d64-644f2a9e682e" data-name="Layer 2" xmlns="http://www.w3.org/2000/svg" viewBox="0 0 50.87 50.86"><defs><style>.bb055835-8b3e-432e-abe2-9cc2b8d5e425{fill:#fff;stroke:#0e3c54;stroke-width:2px;}.bb055835-8b3e-432e-abe2-9cc2b8d5e425,.bd2445de-40bf-431b-8615-7ea9f8cca79c{stroke-miterlimit:10;}.bd2445de-40bf-431b-8615-7ea9f8cca79c{fill:none;stroke:#f7f8fa;}</style></defs><title>usersIconDesktop</title><path class="bb055835-8b3e-432e-abe2-9cc2b8d5e425" d="M227,98.78" transform="translate(-209.07 -58)"/><path class="bb055835-8b3e-432e-abe2-9cc2b8d5e425" d="M221.94,101.9" transform="translate(-209.07 -58)"/><path class="bb055835-8b3e-432e-abe2-9cc2b8d5e425" d="M232.24,101.61" transform="translate(-209.07 -58)"/><path class="bd2445de-40bf-431b-8615-7ea9f8cca79c" d="M251.71,76.86A18.43,18.43,0,1,1,234.05,65V58.51a24.93,24.93,0,1,0,25.38,24.92,24.59,24.59,0,0,0-1.59-8.73C255.85,75.54,253.78,76.22,251.71,76.86Z" transform="translate(-209.07 -58)"/><path class="bd2445de-40bf-431b-8615-7ea9f8cca79c" d="M251.71,76.86A18.43,18.43,0,1,1,234.05,65V58.51a24.93,24.93,0,1,0,25.38,24.92,24.59,24.59,0,0,0-1.59-8.73C255.85,75.54,253.78,76.22,251.71,76.86Z" transform="translate(-209.07 -58)"/><path class="bd2445de-40bf-431b-8615-7ea9f8cca79c" d="M252.92,83.44A18.42,18.42,0,1,1,234.5,65,18.42,18.42,0,0,1,252.92,83.44Z" transform="translate(-209.07 -58)"/><path class="bd2445de-40bf-431b-8615-7ea9f8cca79c" d="M234.5,72.6a5.3,5.3,0,1,1-5.29,5.3A5.29,5.29,0,0,1,234.5,72.6Z" transform="translate(-209.07 -58)"/><path class="bd2445de-40bf-431b-8615-7ea9f8cca79c" d="M243.77,88.57a10.76,10.76,0,0,0-18.54,0v2.65h18.54Z" transform="translate(-209.07 -58)"/></svg>