<svg id="a282d334-f6f7-4330-b441-3f46f32937dc" data-name="Layer 2" xmlns="http://www.w3.org/2000/svg" viewBox="0 0 232.5 215.43"><title>usersIcon</title><path d="M146.34,176.18a39,39,0,0,0,43.39,20.68,38.55,38.55,0,0,0,9.22-3.32A39,39,0,1,0,143.11,167,38.42,38.42,0,0,0,146.34,176.18Z" transform="translate(-108.75 -89.03)"/><path d="M268.75,167a39,39,0,1,0-39-39A39,39,0,0,0,268.75,167Z" transform="translate(-108.75 -89.03)"/><path d="M202.24,204h-42a51.5,51.5,0,0,0-51.5,51.5v35.74c20.3,8.32,45.37,13.25,72.5,13.25s52.2-4.93,72.49-13.26V255.48A51.49,51.49,0,0,0,202.24,204Z" transform="translate(-108.75 -89.03)"/><path d="M289.75,173.22h-42a51.63,51.63,0,0,0-17.7,3.12,52,52,0,0,1-10.29,17.18,64.5,64.5,0,0,1,46.86,62v18.2c.7,0,1.41,0,2.12,0,27.13,0,52.2-4.93,72.5-13.26V224.72A51.5,51.5,0,0,0,289.75,173.22Z" transform="translate(-108.75 -89.03)"/></svg>