<svg id="afb21821-abbc-4db1-b026-5a434eebe05f" data-name="b57fa043-12f6-4be6-99f8-6ae01b417b19" xmlns="http://www.w3.org/2000/svg" viewBox="0 0 51.1 51.12"><defs><style>.ae50838e-6923-4d9c-ada4-bc781ab99dab{fill:#fff;stroke:#0e3c54;stroke-width:2px;}.a244c4f7-a6fc-4f04-940f-17bca2b29498,.ae50838e-6923-4d9c-ada4-bc781ab99dab,.e8099fc2-cd17-4b71-9466-ec46ba18454e,.f67d44b5-a2a8-424c-9155-211ec26355f1{stroke-miterlimit:10;}.a244c4f7-a6fc-4f04-940f-17bca2b29498,.e8099fc2-cd17-4b71-9466-ec46ba18454e,.f67d44b5-a2a8-424c-9155-211ec26355f1{fill:none;}.a244c4f7-a6fc-4f04-940f-17bca2b29498{stroke:#031d28;}.e8099fc2-cd17-4b71-9466-ec46ba18454e,.f67d44b5-a2a8-424c-9155-211ec26355f1{stroke:#f7f8fa;}.e8099fc2-cd17-4b71-9466-ec46ba18454e{stroke-width:1.2px;}</style></defs><title>usersIconDesktop</title><path class="ae50838e-6923-4d9c-ada4-bc781ab99dab" d="M17.9,40.8" transform="translate(0.1 0.11)"/><path class="ae50838e-6923-4d9c-ada4-bc781ab99dab" d="M12.9,43.9" transform="translate(0.1 0.11)"/><path class="ae50838e-6923-4d9c-ada4-bc781ab99dab" d="M23.2,43.6" transform="translate(0.1 0.11)"/><path class="a244c4f7-a6fc-4f04-940f-17bca2b29498" d="M42.6,18.9A18.33,18.33,0,1,1,25,7V.5A25,25,0,1,0,50.4,25.4a23.54,23.54,0,0,0-1.6-8.7C46.8,17.5,44.7,18.2,42.6,18.9Z" transform="translate(0.1 0.11)"/><path class="e8099fc2-cd17-4b71-9466-ec46ba18454e" d="M42.6,18.9A18.33,18.33,0,1,1,25,7V.5A25,25,0,1,0,50.4,25.4a23.54,23.54,0,0,0-1.6-8.7C46.8,17.5,44.7,18.2,42.6,18.9Z" transform="translate(0.1 0.11)"/><path class="f67d44b5-a2a8-424c-9155-211ec26355f1" d="M43.8,25.4A18.4,18.4,0,1,1,25.4,7,18.42,18.42,0,0,1,43.8,25.4Z" transform="translate(0.1 0.11)"/><path class="f67d44b5-a2a8-424c-9155-211ec26355f1" d="M25.4,14.6a5.3,5.3,0,1,1-5.3,5.3h0a5.34,5.34,0,0,1,5.3-5.3Z" transform="translate(0.1 0.11)"/><path class="f67d44b5-a2a8-424c-9155-211ec26355f1" d="M34.7,30.6A10.75,10.75,0,0,0,20,26.8a9.91,9.91,0,0,0-3.8,3.8v2.7H34.7Z" transform="translate(0.1 0.11)"/></svg>