<?xml version="1.0" encoding="utf-8"?>
<!-- Generator: Adobe Illustrator 24.0.1, SVG Export Plug-In . SVG Version: 6.00 Build 0)  -->
<svg version="1.1" id="b57fa043-12f6-4be6-99f8-6ae01b417b19"
	 xmlns="http://www.w3.org/2000/svg" xmlns:xlink="http://www.w3.org/1999/xlink" x="0px" y="0px" viewBox="0 0 50.9 50.9"
	 style="enable-background:new 0 0 50.9 50.9;" xml:space="preserve">
<style type="text/css">
	.st0faddvdbbb{fill:#9475F4;}
	.st1afsgddgd{fill:#FFFFFF;stroke:#0E3C54;stroke-width:2;stroke-miterlimit:10;}
	.st2asfsbbtbt4{fill:#9475F4;stroke:#031D28;stroke-miterlimit:10;}
	.st3sdsdgsdggg{fill:none;stroke:#031D28;stroke-miterlimit:10;}
</style>
<title>usersIcon</title>
<g id="f683074c-e05f-4681-915b-5261c712498a">
	<path class="st0faddvdbbb" d="M24,7.4c-1.9,0-3.9-0.1-5.6,0.9c-1.6,0.9-3.1,1.9-4.6,3.1c-3,2.3-4.5,6.3-6,9.7l4.6,1.9
		c0.1-1.2,0.5-2.3,1.2-3.2l-4.2-2.4c-0.5,2.4-1.2,4.8-2,7.2l4.6-0.6l0.1,0.8H7.2c0.4,1.2,0,2.6,0.3,3.9c0.2,0.6,0.5,1.3,0.8,1.8
		c0.2,0.2,0.3,0.5,0.4,0.7l4.2-1.1c-0.2-0.2-0.1-0.2-0.1-0.5c0-1.4-1.1-2.5-2.5-2.5s-2.5,1.1-2.5,2.5c0,1.5,0.5,2.9,1.6,4
		c1,1,2.6,0.9,3.6-0.1c0.3-0.3,0.5-0.7,0.6-1c0.7-1.9-0.3-3.3-1-4.9c-0.2-0.5-0.2-1-0.2-1.5c0-0.9-0.1-1.8-0.3-2.7
		c-0.7-2.3-4.2-2.5-4.8,0c-0.3,1-0.1,2.2,0.4,3.1c0.8,1.2,2.3,1.5,3.5,0.8c0.5-0.3,0.9-0.8,1.1-1.4c0.8-2.4,1.5-4.8,2-7.2
		c0.3-1.1-0.2-2.2-1.1-2.8c-1-0.6-2.2-0.4-3,0.4c-1.3,1.5-2.2,3.4-2.5,5.4c-0.3,1.2,0.3,2.5,1.4,3c1.1,0.5,2.5,0.1,3.1-1
		c0.7-1.5,1.4-3,2.1-4.5c0.5-1.3,1.3-2.5,2.3-3.6c1.2-0.9,2.4-1.7,3.7-2.5c0.4-0.3,0.8-0.5,1.2-0.6c0.8-0.1,1.7-0.1,2.5-0.1
		C27.2,12.4,27.3,7.4,24,7.4L24,7.4z"/>
	<path class="st0faddvdbbb" d="M23,38.2c-0.4-0.2-0.9-0.2-1.4-0.3c-0.2,0-0.5,0-0.7,0L20.5,38l1.7,0.5c-0.3-0.3-0.6-0.6-0.9-0.8
		c-0.2-0.1-0.4-0.3-0.6-0.4c-0.4-0.3-0.9-0.5-1.3-0.7c-0.1,0-0.4-0.3-0.1,0s0,0-0.1-0.1s-0.3-0.4-0.1-0.1S19,36.3,19,36.3
		c-0.5-0.7-1.1-1.3-1.9-1.8c-0.3-0.1-0.5-0.3-0.7-0.4s0.1,0,0.1,0.1c0-0.1-0.2-0.2-0.3-0.3c-0.3-0.3-0.1-0.1,0,0.1
		c-0.1-0.1-0.1-0.2-0.2-0.3c-0.2-0.4-0.5-0.7-0.7-1c-0.4-0.4-0.9-0.7-1.4-0.9c-0.3-0.1-0.6-0.1-0.9-0.1h-0.1
		C11.6,31.8,12,32,14,32.3l0.6,1.1v-0.1c-0.4-1.3-1.7-2.1-3.1-1.8c-1.3,0.4-2.1,1.8-1.7,3.1c0.2,0.7,0.6,1.3,1.3,1.7
		c0.7,0.4,1.5,0.5,2.2,0.3H13c-1.2-0.7-1.6-0.8-1.2-0.4c-0.1-0.1-0.3-0.4-0.1-0.1c0.2,0.4,0.5,0.7,0.8,1.1c0.5,0.5,1.1,1,1.7,1.4
		l0.4,0.2l0.2,0.1c0.1,0.1,0.1,0.1-0.2-0.1c0,0,0.4,0.5,0.1,0.1s0.1,0.1,0.1,0.2c0.5,0.7,1.1,1.3,1.8,1.7c0.4,0.3,0.9,0.5,1.4,0.8
		c0.1,0.1,0.2,0.1,0.3,0.2c0.4,0.3-0.1,0-0.1-0.1c0,0.1,0.3,0.2,0.3,0.3c0.2,0.2,0.5,0.4,0.8,0.6c0.7,0.4,1.5,0.5,2.2,0.3
		c0.6-0.1-0.6,0,0,0h-0.3c0.1,0,0.2,0.1,0.3,0.1c1.3,0.4,2.7-0.4,3.1-1.8C25,39.8,24.3,38.5,23,38.2L23,38.2z"/>
	<path class="st0faddvdbbb" d="M11.5,37.2c0.6,0.8,1.3,1.5,2,2.1c1,0.9,2.2,1.6,3.4,2c0.7,0.2,1.3,0.1,1.9-0.3c1.2-0.7,1.6-2.2,0.9-3.4
		c-0.3-0.5-0.9-1-1.5-1.2c-0.2-0.1-0.3-0.1-0.5-0.2l0.6,0.3c-0.5-0.2-1-0.5-1.4-0.8l0.5,0.4c-0.9-0.7-1.7-1.6-2.4-2.5
		c-1-1-2.6-1-3.5,0c-0.5,0.5-0.7,1.1-0.7,1.8l0.1,0.7C11,36.5,11.2,36.9,11.5,37.2L11.5,37.2z"/>
	<path class="st0faddvdbbb" d="M20.9,43.1c0.2,0.2,0.4,0.3,0.6,0.5l0.1,0.1l0.1,0.1l0.6,0.3h0.1h0.1h0.1l0.7,0.1c0.1,0,0.2,0,0.2,0
		c0.3,0,0.7-0.1,1-0.2c0.6-0.2,1.1-0.7,1.3-1.3c0.2-0.3,0.2-0.7,0.2-1L25.9,41c-0.1-0.4-0.3-0.8-0.6-1.1l-0.5-0.4
		c-0.4-0.2-0.8-0.3-1.3-0.3c-0.1,0-0.2,0-0.3,0l0.7,0.1c-0.1,0-0.2,0-0.3-0.1l0.6,0.3L24,39.3l0.5,0.4l-0.1-0.1
		c-0.2-0.2-0.5-0.4-0.8-0.5c-0.6-0.3-1.3-0.3-1.9,0c-0.3,0.1-0.6,0.3-0.8,0.5l-0.4,0.5c-0.2,0.4-0.3,0.8-0.4,1.3l0.1,0.7
		C20.4,42.5,20.6,42.9,20.9,43.1L20.9,43.1z"/>
	<path class="st0faddvdbbb" d="M22,36.5c-1.8-1.1-4.6-2.1-5.5-4.2c-1-2.2-0.7-5.1-0.1-7.4c1.4-5,5.2-8.9,9.3-11.8c1.2-0.7,1.6-2.2,0.9-3.4
		c-0.7-1.2-2.2-1.6-3.4-0.9c-5.4,3.8-10.3,9-11.8,15.6c-0.9,3.4-0.6,6.9,0.7,10.1c1.4,3.1,4.6,4.6,7.4,6.2S24.8,38.2,22,36.5z"/>
	<path class="st0faddvdbbb" d="M25,41.7c1,0.4,2,0.7,3.1,0.9c1.1,0,2.1,0.1,3.1,0.3c0.3,0.1,0.6-0.1,0.6-0.4c0.1-0.3-0.1-0.6-0.4-0.6l0,0
		c-1-0.2-2-0.3-3.1-0.3c-1-0.1-2-0.4-2.9-0.8c-0.2-0.1-0.5-0.1-0.7,0.2C24.7,41.2,24.8,41.5,25,41.7C25,41.7,25,41.7,25,41.7
		L25,41.7z"/>
	<path class="st0faddvdbbb" d="M29.6,42.2c-0.8-0.2-1.7-0.3-2.5-0.3c-0.7-0.1-1.5,0.1-2,0.7c-0.1,0.2-0.1,0.5,0.2,0.7
		c0.9,0.5,1.9,0.6,2.9,0.3c0.3-0.1,0.4-0.4,0.4-0.6c-0.1-0.3-0.3-0.4-0.6-0.3c-0.7,0.3-1.5,0.2-2.2-0.2L26,43c0,0,0,0,0.1,0h0.1
		c0.1,0,0.1-0.1,0.2-0.1h0.1c0.3,0,0.6,0,0.9,0c0.7,0,1.3,0.1,2,0.3c0.3,0.1,0.5-0.1,0.6-0.3c0.1-0.3-0.1-0.5-0.4-0.6L29.6,42.2z"/>
	<path class="st0faddvdbbb" d="M28.8,41.6c-0.5-0.4-1.1-0.7-1.7-0.9c-0.5-0.3-1-0.6-1.4-1c-0.9-0.8-1.8-1.5-2.9-2.1c-0.6-0.3-1.1,0.6-0.5,0.9
		c1,0.6,1.9,1.2,2.7,2c0.4,0.4,0.9,0.7,1.4,1c0.6,0.2,1.1,0.5,1.6,0.8c0.2,0.2,0.5,0.2,0.7,0C29,42.1,29,41.8,28.8,41.6
		C28.8,41.6,28.8,41.6,28.8,41.6z"/>
	<path class="stst0faddvdbbb0" d="M26,12.2c2.2-0.7,4.4-1.4,6.6-2.2c0.6-0.2,0.3-1.2-0.3-1c-2.2,0.8-4.4,1.5-6.6,2.2c-0.3,0.1-0.4,0.4-0.4,0.6
		C25.4,12.1,25.7,12.3,26,12.2z"/>
	<path class="st0faddvdbbb" d="M32.8,9.2c-0.4-0.6-1.1-0.8-1.8-0.7c-0.6,0.1-1.3,0-1.8-0.3C28.1,7.8,27,7,25.7,7.1c-0.3,0-0.5,0.2-0.5,0.5
		c0,0.3,0.2,0.5,0.5,0.5c1.1-0.1,2,0.6,3,1c0.5,0.2,1,0.4,1.6,0.4c0.3,0,0.7,0,1-0.1c0.2,0,0.6,0,0.7,0.2c0.1,0.2,0.4,0.3,0.7,0.2
		C32.9,9.8,33,9.5,32.8,9.2L32.8,9.2z"/>
	<path class="st0faddvdbbb" d="M29.1,8.8c0.4-0.1,0.8,0,1.1,0.3l0.4-0.9c-0.4,0-0.8-0.1-1.2-0.3c-0.4-0.2-0.7-0.7-1.2-0.6
		c-0.3,0-0.5,0.2-0.6,0.4c-0.1,0.2-0.1,0.3-0.3,0.4c-0.2,0.1-0.5,0.1-0.6-0.1c0,0,0-0.1-0.1-0.1C26.5,8,26.2,7.9,26,7.9
		c-0.6,0.2-0.6,0.9-0.4,1.3c0.2,0.2,0.4,0.4,0.6,0.6c0.2,0.1,0.5,0.2,0.7,0.3L26.7,10c0-0.1,0-0.1,0,0V10c0.1,0.5,0.6,0.9,1.1,0.8
		c0,0,0.1,0,0.1,0c0.3-0.1,0.5-0.4,0.6-0.7c0-0.2,0-0.3,0-0.5c0-0.1,0,0-0.1,0s-0.4-0.2-0.4-0.3c0,0.1,0,0.1,0,0.2
		c0,0.1,0,0.3,0,0.4c0.1,0.3,0.4,0.5,0.8,0.6c0.6,0.1,1.3-0.1,1.8-0.4c0.2-0.1,0.3-0.4,0.2-0.7c0,0,0-0.1-0.1-0.1
		c-0.3-0.3-0.8-0.4-1.2-0.2l-1.3,0.3c-0.7,0.2-1.6,0.3-1.9,1s0.6,1.1,0.9,0.5c0.1-0.1,0.2-0.2,0.4-0.3c0.3-0.1,0.6-0.1,0.9-0.2
		l1-0.2c0.1,0,0.3-0.1,0.4-0.1h0.1c0.1,0,0,0,0,0l0.1-0.8c-0.3,0.2-0.6,0.3-0.9,0.3h-0.2c-0.2,0-0.1-0.1-0.1,0.1s0,0.2,0.1,0.1
		c0-0.1,0-0.2,0-0.3c0-0.4-0.2-0.7-0.5-0.8c-0.4-0.1-0.8,0.1-0.9,0.5c-0.1,0.2-0.1,0.4-0.1,0.6c0,0,0,0.1,0,0.1c0,0.2,0-0.1,0,0
		s0.1,0.1,0.1,0.1s0-0.2,0-0.3c0-0.1-0.1-0.2-0.1-0.2c-0.2-0.3-0.6-0.3-0.9-0.5c0,0-0.1-0.1-0.1-0.1l-0.1-0.1l0,0l0,0
		c0-0.1,0-0.1,0,0l0,0c0,0.1-0.1,0.1-0.2,0.2l-0.6-0.2c0.3,0.5,0.8,0.8,1.3,0.8c0.6,0,1-0.4,1.3-0.9c0-0.1,0.1-0.1,0.1-0.1
		s0.1,0-0.1,0s-0.1,0,0,0.2C28.4,8.8,28.7,9,29,9.1c0.5,0.2,1,0.3,1.5,0.3c0.3,0,0.5-0.2,0.5-0.5c0-0.1-0.1-0.3-0.1-0.4
		c-0.5-0.4-1.2-0.7-1.8-0.6c-0.3,0-0.5,0.2-0.5,0.5C28.5,8.7,28.7,8.9,29.1,8.8L29.1,8.8z"/>
	<path class="st0faddvdbbb" d="M27.4,10.8c-0.2,0-0.3,0-0.5,0c-0.1,0-0.2,0.1-0.2,0.1c0,0-0.1,0-0.1,0.1c-0.1,0.1-0.3,0.2-0.3,0.3
		c-0.1,0.1-0.1,0.3-0.1,0.5c0,0.1,0,0.1,0,0.2c0,0.1,0.1,0.2,0.3,0.3c0.1,0,0.1,0,0.2,0c0.1,0,0.3-0.1,0.4-0.2L27,12
		c0-0.1,0.1-0.2,0.1-0.3l0,0v0.1v-0.1L27,11.8c0,0,0-0.1,0.1-0.1L27,11.8c0,0,0.1-0.1,0.1-0.1L27,11.8c0,0,0.1-0.1,0.1-0.1l-0.1,0.1
		h0.1h-0.1h0.1H27h0.1c0.1,0,0.1,0,0.2,0c0.1,0,0.2-0.1,0.3-0.2c0,0,0.1-0.1,0.1-0.2c0-0.1,0-0.3,0-0.4
		C27.7,10.9,27.6,10.8,27.4,10.8L27.4,10.8z"/>
</g>
<path class="st1afsgddgd" d="M17.9,40.8"/>
<path class="st1afsgddgd" d="M12.9,43.9"/>
<path class="st1afsgddgd" d="M23.2,43.6"/>
<path class="st2asfsbbtbt4" d="M42.6,18.9C46.3,28.4,41.5,39,32,42.6C22.5,46.3,11.8,41.5,8.2,32S9.3,11.8,18.9,8.2c2-0.7,4-1.2,6.1-1.2V0.5
	C11.2,0.8,0.3,12.1,0.5,25.9s11.6,24.7,25.4,24.5C39.5,50.1,50.4,39,50.4,25.4c0-3-0.5-5.9-1.6-8.7C46.8,17.5,44.7,18.2,42.6,18.9z"
	/>
<path class="st2asfsbbtbt4" d="M42.6,18.9C46.3,28.4,41.5,39,32,42.6C22.5,46.3,11.8,41.5,8.2,32S9.3,11.8,18.9,8.2c2-0.7,4-1.2,6.1-1.2V0.5
	C11.2,0.8,0.3,12.1,0.5,25.9s11.6,24.7,25.4,24.5C39.5,50.1,50.4,39,50.4,25.4c0-3-0.5-5.9-1.6-8.7C46.8,17.5,44.7,18.2,42.6,18.9z"
	/>
<path class="st3sdsdgsdggg" d="M43.8,25.4c0,10.2-8.3,18.4-18.4,18.4S7,35.6,7,25.4C7,15.2,15.3,7,25.4,7C35.6,7,43.8,15.2,43.8,25.4
	C43.9,25.4,43.8,25.4,43.8,25.4z"/>
<path class="st3sdsdgsdggg" d="M25.4,14.6c2.9,0,5.3,2.4,5.3,5.3c0,2.9-2.4,5.3-5.3,5.3c-2.9,0-5.3-2.4-5.3-5.3c0,0,0,0,0,0
	C20.1,17,22.5,14.6,25.4,14.6C25.4,14.6,25.4,14.6,25.4,14.6z"/>
<path class="st3sdsdgsdggg" d="M34.7,30.6c-3-5.1-9.6-6.8-14.7-3.8c-1.6,0.9-2.9,2.2-3.8,3.8v2.7h18.5L34.7,30.6z"/>
</svg>
