<svg id="b57fa043-12f6-4be6-99f8-6ae01b417b19" data-name="Layer 2" xmlns="http://www.w3.org/2000/svg" viewBox="0 0 50.87 50.86"><defs><style>.a2e91291-4464-42fe-b4a9-d852f2e208dd,.e5e9c8f3-4bcc-4ced-bb80-3232b775769b{fill:#fbcb67;}.bb6a6d12-908b-4232-a363-032cef98cc0b{fill:#fff;stroke:#0e3c54;stroke-width:2px;}.b54efc95-63bb-4182-9212-9c5ade765f95,.bb6a6d12-908b-4232-a363-032cef98cc0b,.e5e9c8f3-4bcc-4ced-bb80-3232b775769b{stroke-miterlimit:10;}.b54efc95-63bb-4182-9212-9c5ade765f95,.e5e9c8f3-4bcc-4ced-bb80-3232b775769b{stroke:#031d28;}.b54efc95-63bb-4182-9212-9c5ade765f95{fill:none;}</style></defs><title>usersIcon</title><g id="f683074c-e05f-4681-915b-5261c712498a" data-name="Layer 3"><path class="a2e91291-4464-42fe-b4a9-d852f2e208dd" d="M233.06,65.44c-1.93,0-3.88-.08-5.61.91a42.4,42.4,0,0,0-4.57,3.07c-3,2.26-4.54,6.32-6,9.67L221.48,81a6.49,6.49,0,0,1,1.22-3.22l-4.18-2.43a74.23,74.23,0,0,1-2,7.18l4.57-.6.05.79H216.3c.4,1.22,0,2.6.32,3.87a7.33,7.33,0,0,0,.82,1.83,3.11,3.11,0,0,1,.36.73l4.18-1.1c-.21-.23-.1-.18-.09-.5a2.5,2.5,0,0,0-5,0,5.49,5.49,0,0,0,1.56,4,2.52,2.52,0,0,0,4.17-1.1c.66-1.86-.27-3.27-1-4.88a3,3,0,0,1-.16-1.53,8.07,8.07,0,0,0-.31-2.68c-.74-2.26-4.19-2.5-4.82,0a3.69,3.69,0,0,0,.45,3.07,2.54,2.54,0,0,0,4.57-.6,71.48,71.48,0,0,0,2-7.18,2.55,2.55,0,0,0-1.15-2.82,2.49,2.49,0,0,0-3,.39,11.12,11.12,0,0,0-2.5,5.42,2.53,2.53,0,0,0,1.44,3,2.48,2.48,0,0,0,3.13-1q1-2.28,2.09-4.47a11.56,11.56,0,0,1,2.32-3.58,36,36,0,0,1,3.66-2.46,3.21,3.21,0,0,1,1.24-.6,23.49,23.49,0,0,1,2.52-.07c3.21-.08,3.22-5.08,0-5Z" transform="translate(-209.07 -58)"/><path class="a2e91291-4464-42fe-b4a9-d852f2e208dd" d="M232.07,96.2a4.1,4.1,0,0,0-1.35-.26,3.89,3.89,0,0,0-.68,0l-.51.07,1.72.46a3.57,3.57,0,0,0-.95-.79,4.93,4.93,0,0,0-.61-.4c-.43-.25-.88-.46-1.29-.72-.09,0-.43-.32-.11,0s0,0-.08-.09-.34-.4-.1-.08-.05-.09-.08-.12a5.56,5.56,0,0,0-1.86-1.75c-.25-.14-.49-.27-.73-.42s.09,0,.12.1c0-.07-.23-.21-.29-.28-.27-.27-.07-.13,0,.08a2.3,2.3,0,0,0-.21-.33,7.41,7.41,0,0,0-.72-1,3.23,3.23,0,0,0-1.41-.86,3.07,3.07,0,0,0-.85-.13l-.15,0c-1.3.08-.9.29,1.18.62l.64,1.1,0-.1a2.52,2.52,0,0,0-3.08-1.75,2.57,2.57,0,0,0-1.74,3.08,2.61,2.61,0,0,0,1.29,1.7,3.34,3.34,0,0,0,2.24.29l-.36,0c-1.24-.71-1.65-.85-1.23-.43-.12-.12-.33-.44-.11-.1a10.48,10.48,0,0,0,.81,1.08,6.61,6.61,0,0,0,1.7,1.36l.38.2.22.12c.15.1.1.06-.17-.14,0,0,.43.47.12.1s.07.12.12.19a6.67,6.67,0,0,0,1.81,1.74c.45.3.95.52,1.41.8a3.37,3.37,0,0,1,.32.19c.39.25-.06,0-.09-.09,0,.08.25.23.32.3a4.12,4.12,0,0,0,.75.57,3.37,3.37,0,0,0,2.23.3c.57-.09-.57,0,0,0l-.31,0a1.28,1.28,0,0,1,.33.11,2.51,2.51,0,0,0,3.08-1.75,2.56,2.56,0,0,0-1.75-3.07Z" transform="translate(-209.07 -58)"/><path class="a2e91291-4464-42fe-b4a9-d852f2e208dd" d="M220.6,95.21a18.89,18.89,0,0,0,2,2.11,9.6,9.6,0,0,0,3.42,2,2.56,2.56,0,0,0,1.93-.26,2.51,2.51,0,0,0,.89-3.42,2.72,2.72,0,0,0-1.49-1.15,5.17,5.17,0,0,1-.51-.18l.6.25a6.73,6.73,0,0,1-1.39-.83l.5.39a17,17,0,0,1-2.41-2.46,2.5,2.5,0,0,0-4.26,1.77l.08.67a2.52,2.52,0,0,0,.65,1.1Z" transform="translate(-209.07 -58)"/><path class="a2e91291-4464-42fe-b4a9-d852f2e208dd" d="M230,101.13a6.15,6.15,0,0,0,.58.46l.09.06.11.06.64.27.05,0,.11,0h.06l.71.1a.88.88,0,0,0,.23,0,1.88,1.88,0,0,0,1-.22,2.16,2.16,0,0,0,1.32-1.32,1.88,1.88,0,0,0,.22-1L235,99a2.5,2.5,0,0,0-.64-1.1l-.51-.39a2.43,2.43,0,0,0-1.26-.34,1.13,1.13,0,0,1-.26,0l.67.09a1.2,1.2,0,0,1-.27-.08l.6.26-.22-.13.5.39-.07-.06a1.77,1.77,0,0,0-.8-.52,2.32,2.32,0,0,0-1.93,0,1.77,1.77,0,0,0-.8.52l-.39.5a2.55,2.55,0,0,0-.35,1.27l.09.66a2.52,2.52,0,0,0,.65,1.1Z" transform="translate(-209.07 -58)"/><path class="a2e91291-4464-42fe-b4a9-d852f2e208dd" d="M231.12,94.53c-1.8-1.08-4.56-2.13-5.47-4.17-1-2.23-.71-5.08-.07-7.36,1.4-5,5.18-8.87,9.31-11.8a2.57,2.57,0,0,0,.9-3.42,2.53,2.53,0,0,0-3.42-.9c-5.43,3.85-10.29,9-11.82,15.63a16,16,0,0,0,.67,10.13c1.41,3.06,4.64,4.56,7.38,6.21s5.28-2.66,2.52-4.32Z" transform="translate(-209.07 -58)"/><path class="a2e91291-4464-42fe-b4a9-d852f2e208dd" d="M234.1,99.72a10.43,10.43,0,0,0,3.05.86,23.78,23.78,0,0,1,3.15.28.5.5,0,0,0,.26-1,17.64,17.64,0,0,0-3.08-.28,9.3,9.3,0,0,1-2.88-.76.51.51,0,0,0-.68.18.49.49,0,0,0,.18.68Z" transform="translate(-209.07 -58)"/><path class="a2e91291-4464-42fe-b4a9-d852f2e208dd" d="M238.69,100.17a12.31,12.31,0,0,0-2.5-.32,2.17,2.17,0,0,0-2,.66.51.51,0,0,0,.18.69,3.56,3.56,0,0,0,2.92.32.52.52,0,0,0,.35-.62.51.51,0,0,0-.61-.35,2.56,2.56,0,0,1-2.16-.21l.18.68s0,0,.06,0l.07,0a.66.66,0,0,1,.2-.06l.09,0a4.71,4.71,0,0,1,.92,0,10.46,10.46,0,0,1,2,.28.5.5,0,0,0,.61-.35.51.51,0,0,0-.35-.62Z" transform="translate(-209.07 -58)"/><path class="a2e91291-4464-42fe-b4a9-d852f2e208dd" d="M237.83,99.63a10.32,10.32,0,0,0-1.67-.9,9.13,9.13,0,0,1-1.42-1,14.28,14.28,0,0,0-2.86-2.09c-.57-.28-1.08.58-.5.86a14.79,14.79,0,0,1,2.73,2,10.16,10.16,0,0,0,1.38,1,12.06,12.06,0,0,1,1.64.84.51.51,0,0,0,.7,0,.5.5,0,0,0,0-.71Z" transform="translate(-209.07 -58)"/><path class="a2e91291-4464-42fe-b4a9-d852f2e208dd" d="M235.08,70.21q3.31-1,6.57-2.16c.6-.22.34-1.18-.27-1q-3.25,1.17-6.57,2.16a.5.5,0,0,0,.27,1Z" transform="translate(-209.07 -58)"/><path class="a2e91291-4464-42fe-b4a9-d852f2e208dd" d="M241.88,67.19a1.71,1.71,0,0,0-1.8-.68,3.51,3.51,0,0,1-1.84-.26c-1.12-.48-2.19-1.25-3.47-1.12a.51.51,0,0,0-.5.5.5.5,0,0,0,.5.5c1.09-.11,2,.56,3,1a4.65,4.65,0,0,0,1.6.44,8.24,8.24,0,0,0,1-.07c.24,0,.55,0,.68.22a.5.5,0,0,0,.87-.51Z" transform="translate(-209.07 -58)"/><path class="a2e91291-4464-42fe-b4a9-d852f2e208dd" d="M238.19,66.84a1.42,1.42,0,0,1,1.12.3l.35-.86a4.27,4.27,0,0,1-1.24-.25c-.43-.19-.72-.65-1.22-.58a.86.86,0,0,0-.61.45,1.26,1.26,0,0,1-.26.45.44.44,0,0,1-.67-.17.51.51,0,0,0-.57-.23c-.6.15-.65.86-.39,1.32a1.78,1.78,0,0,0,.61.58c.2.13.5.19.66.31l-.18-.18c0-.09,0-.09,0,0v.06a1,1,0,0,0,1.25.82,1,1,0,0,0,.63-.69,1.56,1.56,0,0,0,0-.48c0-.13,0,0-.07,0s-.44-.19-.37-.27a.76.76,0,0,0,0,.16,1.08,1.08,0,0,0,0,.44.81.81,0,0,0,.76.55,2.84,2.84,0,0,0,1.84-.45.5.5,0,0,0,.1-.78,1.2,1.2,0,0,0-1.18-.23l-1.29.28c-.71.15-1.55.27-1.94,1s.55,1.07.86.5a.65.65,0,0,1,.41-.28c.27-.09.56-.14.85-.21l1-.22c.14,0,.29-.07.44-.09h.12c.06,0,0,0,0,0l.1-.78a2,2,0,0,1-.88.32h-.23c-.2,0-.15-.07-.05.1s0,.19.05.1a1.45,1.45,0,0,0,0-.29.71.71,0,0,0-.53-.78.85.85,0,0,0-.92.49,1.34,1.34,0,0,0-.1.59s0,.1,0,.14c0,.22,0-.07,0,0s.08.06.05.06,0-.22,0-.26a.74.74,0,0,0-.11-.24c-.2-.31-.61-.31-.89-.52a.58.58,0,0,1-.12-.1l-.1-.1s0,0,0,0v0c0-.07,0-.07,0,0h0a.41.41,0,0,1-.18.19l-.56-.23a1.47,1.47,0,0,0,1.33.76,1.5,1.5,0,0,0,1.26-.91c0-.05.05-.09.07-.14s.06,0-.1,0-.1,0,0,.15a2.55,2.55,0,0,0,.73.43,5.76,5.76,0,0,0,1.54.3.5.5,0,0,0,.36-.85,2.41,2.41,0,0,0-1.83-.59.51.51,0,0,0-.5.5.51.51,0,0,0,.5.5Z" transform="translate(-209.07 -58)"/><path class="a2e91291-4464-42fe-b4a9-d852f2e208dd" d="M236.5,68.8a1,1,0,0,0-.49,0,1.09,1.09,0,0,0-.23.09.27.27,0,0,0-.1.06,1.1,1.1,0,0,0-.34.34,1,1,0,0,0-.13.47.31.31,0,0,0,0,.19.42.42,0,0,0,.26.26.46.46,0,0,0,.2,0,.53.53,0,0,0,.35-.15l.08-.1a.72.72,0,0,0,.07-.25v0l0,.13,0-.11-.05.12a.35.35,0,0,1,.07-.12l-.08.1a.47.47,0,0,1,.1-.1l-.1.08a.57.57,0,0,1,.13-.08l-.12.05.14,0-.13,0h.12l-.13,0,.07,0a.31.31,0,0,0,.19,0,.48.48,0,0,0,.33-.18.32.32,0,0,0,.09-.17.53.53,0,0,0,0-.39.53.53,0,0,0-.3-.23Z" transform="translate(-209.07 -58)"/></g><path class="bb6a6d12-908b-4232-a363-032cef98cc0b" d="M227,98.78" transform="translate(-209.07 -58)"/><path class="bb6a6d12-908b-4232-a363-032cef98cc0b" d="M221.94,101.9" transform="translate(-209.07 -58)"/><path class="bb6a6d12-908b-4232-a363-032cef98cc0b" d="M232.24,101.61" transform="translate(-209.07 -58)"/><path class="e5e9c8f3-4bcc-4ced-bb80-3232b775769b" d="M251.71,76.86A18.43,18.43,0,1,1,234.05,65V58.51a24.93,24.93,0,1,0,25.38,24.92,24.59,24.59,0,0,0-1.59-8.73C255.85,75.54,253.78,76.22,251.71,76.86Z" transform="translate(-209.07 -58)"/><path class="e5e9c8f3-4bcc-4ced-bb80-3232b775769b" d="M251.71,76.86A18.43,18.43,0,1,1,234.05,65V58.51a24.93,24.93,0,1,0,25.38,24.92,24.59,24.59,0,0,0-1.59-8.73C255.85,75.54,253.78,76.22,251.71,76.86Z" transform="translate(-209.07 -58)"/><path class="b54efc95-63bb-4182-9212-9c5ade765f95" d="M252.92,83.44A18.42,18.42,0,1,1,234.5,65,18.42,18.42,0,0,1,252.92,83.44Z" transform="translate(-209.07 -58)"/><path class="b54efc95-63bb-4182-9212-9c5ade765f95" d="M234.5,72.6a5.3,5.3,0,1,1-5.29,5.3A5.29,5.29,0,0,1,234.5,72.6Z" transform="translate(-209.07 -58)"/><path class="b54efc95-63bb-4182-9212-9c5ade765f95" d="M243.77,88.57a10.76,10.76,0,0,0-18.54,0v2.65h18.54Z" transform="translate(-209.07 -58)"/></svg>